<svg clip-rule="evenodd" fill-rule="evenodd" stroke-linejoin="round" stroke-miterlimit="1.414" viewBox="0 0 320 320" xmlns="http://www.w3.org/2000/svg"><g fill-rule="nonzero"><path d="m182.116 307.85h-32.863l-10.445-10.938 32.226-8.422z" fill="#1677bf"/><path d="m150.17 305.704h28.24l-8.423-14.72-27.105 7.084 7.29 7.636zm31.948 4.296h-32.864c-.588 0-1.15-.24-1.554-.664l-10.445-10.94c-.525-.55-.72-1.338-.513-2.07.208-.732.787-1.3 1.524-1.492l32.225-8.422c.94-.245 1.926.17 2.41 1.01l11.08 19.362c.38.666.38 1.483-.005 2.146-.384.662-1.092 1.07-1.858 1.07"/><path d="m32.01 212.118c18.22 8.383 39.745 30.456 48.128 30.456 8.384 0 23.548-22.21 23.548-30.592l-48.23-68.604-34.492 7.697z" fill="#e73c60"/><path d="m33.927 210.647c8.654 4.184 17.875 11.144 26.048 17.312 8.12 6.128 16.518 12.467 20.163 12.467 6.555 0 20.614-19.837 21.368-27.81l-46.983-66.83-31.078 6.936 10.482 57.924zm46.21 34.075c-5.084 0-12.88-5.884-22.75-13.334-8.32-6.28-17.752-13.397-26.275-17.32-.636-.292-1.09-.878-1.215-1.568l-11.047-61.043c-.206-1.134.52-2.228 1.645-2.478l34.492-7.7c.85-.187 1.726.152 2.226.862l48.23 68.604c.254.362.39.793.39 1.235 0 9.245-15.762 32.742-25.695 32.742"/><path d="m45.112 251.426h60.004l-.983-43.454-71.65 5.13 12.63 38.324z" fill="#c17b4a"/><path d="m46.666 249.278h56.252l-.882-39.002-66.65 4.773 11.28 34.228zm58.45 4.297h-60.003c-.928 0-1.75-.595-2.04-1.476l-12.63-38.325c-.207-.628-.113-1.317.255-1.868.37-.55.972-.9 1.632-.946l71.65-5.13c.58-.043 1.164.158 1.6.553.433.396.687.952.7 1.54l.983 43.455c.014.578-.208 1.137-.61 1.55-.405.414-.96.647-1.537.647"/><path d="m46.98 256.233h56.385l-1.45-10.62-58.777-.095z" fill="#1677bf"/><path d="m48.492 254.084h52.41l-.862-6.325-53.848-.09 2.3 6.414zm54.873 4.297h-56.385c-.907 0-1.715-.568-2.022-1.422l-3.843-10.715c-.235-.658-.136-1.39.268-1.962.4-.57 1.057-.91 1.755-.91h.003l58.78.095c1.073.002 1.98.796 2.125 1.86l1.448 10.617c.084.615-.102 1.236-.51 1.703-.41.468-.998.736-1.618.736"/><path d="m64.09 251.995c11.665 5.368 19.682 9.72 25.05 9.72s15.734-17.562 15.734-22.93l-34.374-47.671h-24.665l18.256 60.882z" fill="#1677bf"/><path d="m65.87 250.45c1.835.85 3.577 1.672 5.232 2.45 7.9 3.726 14.143 6.667 18.038 6.667 1.012 0 4.098-2.3 8.074-8.468 3.12-4.842 5.105-9.487 5.455-11.698l-33.269-46.139h-20.68l17.147 57.19zm23.27 13.413c-4.857 0-11.154-2.967-19.87-7.075-1.906-.898-3.93-1.853-6.08-2.84-.56-.26-.98-.745-1.158-1.336l-18.255-60.882c-.195-.65-.07-1.355.335-1.9s1.044-.865 1.723-.865h24.665c.692 0 1.34.332 1.744.892l34.372 47.672c.263.365.406.804.406 1.255 0 5.85-10.864 25.078-17.882 25.078"/><path d="m72.86 296.912h26.68l11.472 10.013-3.34-73.597h-51.682z" fill="#1677bf"/><path d="m74.513 294.764h25.025c.52 0 1.02.19 1.412.53l7.686 6.708-3.02-66.526h-46.833zm36.498 14.31c-.51 0-1.013-.182-1.413-.53l-10.865-9.483h-25.87c-.975 0-1.828-.655-2.077-1.597l-16.87-63.584c-.172-.645-.034-1.333.372-1.862.407-.528 1.036-.838 1.703-.838h51.68c1.148 0 2.093.904 2.145 2.05l3.34 73.598c.04.86-.438 1.66-1.212 2.032-.297.143-.616.213-.932.213"/><path d="m71.153 296.912h28.714l-5.49-82.488h-42.247l19.02 82.488z" fill="#3db47a"/><path d="m72.863 294.764h24.707l-5.204-78.192h-37.534l18.03 78.192zm27.004 4.297h-28.714c-1 0-1.87-.69-2.094-1.665l-19.022-82.49c-.146-.636.005-1.306.413-1.818.408-.513 1.027-.81 1.682-.81h42.244c1.13 0 2.068.876 2.142 2.005l5.492 82.488c.04.593-.17 1.175-.575 1.61-.406.434-.974.68-1.568.68m31.813-243.517 17.133-23.18h20.156l7.053 29.226z"/><path d="m135.564 53.905 37.633 5.132-5.92-24.524h-17.38zm40.46 9.833c-.097 0-.193-.006-.29-.02l-44.343-6.046c-.75-.103-1.393-.594-1.688-1.293-.295-.7-.2-1.503.25-2.114l17.134-23.178c.405-.548 1.046-.87 1.728-.87h20.155c.99 0 1.854.68 2.087 1.643l7.055 29.227c.166.69-.02 1.417-.494 1.944-.41.454-.99.708-1.595.708"/><path d="m169.474 44.573 29.83 21.4 45.396 145.912-132.535 47.353 19.047-146.572z"/><path d="m133.29 113.355-18.542 142.68 127.288-45.48-44.57-143.255-27.295-19.583-36.88 65.638zm-21.124 148.03c-.484 0-.96-.162-1.35-.474-.58-.47-.877-1.207-.78-1.95l19.046-146.57c.036-.275.123-.538.257-.777l38.261-68.094c.3-.532.81-.912 1.407-1.044.594-.132 1.22-.005 1.716.352l29.83 21.4c.38.272.66.66.8 1.108l45.395 145.91c.343 1.1-.243 2.275-1.328 2.663l-132.535 47.35c-.234.085-.48.126-.72.126"/><path d="m117.594 108.126-47.632-64.736h-44.455l46.26 127.856z" fill="#3db47a"/><path d="m28.57 45.54 43.84 121.166 42.522-58.572-46.056-62.594zm43.196 127.855c-.1 0-.2-.007-.3-.022-.788-.112-1.448-.648-1.72-1.396l-46.256-127.855c-.238-.66-.14-1.392.26-1.965.403-.573 1.06-.915 1.76-.915h44.455c.683 0 1.325.325 1.73.876l47.63 64.735c.555.753.558 1.778.01 2.535l-45.827 63.12c-.41.562-1.057.887-1.74.887"/><path d="m43.006 180.552 14.9-24.643-12.97-24.643 83.007-19.456 36.964 29.184v98.05l-44.424 17.19-.955-36.947-64.184 11.296-12.338-50.03z" fill="#3db47a"/><path d="m119.53 217.138c.49 0 .972.17 1.358.486.484.395.772.982.788 1.608l.875 33.9 40.21-15.56v-95.537l-35.335-27.896-79.295 18.584 11.676 22.185c.35.665.326 1.466-.063 2.11l-14.44 23.882 11.646 47.22 62.206-10.95c.125-.02.248-.032.373-.032m.953 41.245c-.42 0-.833-.12-1.192-.36-.58-.387-.937-1.034-.954-1.732l-.89-34.455-61.73 10.864c-1.118.194-2.188-.505-2.458-1.602l-12.338-50.032c-.136-.553-.047-1.138.248-1.625l14.27-23.604-12.403-23.57c-.31-.588-.33-1.287-.054-1.89.277-.606.817-1.05 1.465-1.2l83.008-19.456c.636-.15 1.307 0 1.82.405l36.965 29.183c.517.407.818 1.03.818 1.686v98.05c0 .888-.546 1.684-1.373 2.004l-44.425 17.19c-.25.098-.513.145-.775.145"/><path d="m63.77 137.957 68.09-13.62 23.347 23.347-21.163 71.983-10.614 5.837-49.934.648-9.08-34.37-.647-53.825z"/><path d="m66.562 191.49 8.583 32.493 47.72-.62 9.368-5.15 20.554-69.912-21.632-21.63-65.217 13.044.624 51.776zm6.934 36.81c-.974 0-1.827-.655-2.077-1.6l-9.08-34.37c-.045-.17-.068-.346-.07-.522l-.65-53.826c-.012-1.033.714-1.93 1.728-2.13l68.09-13.62c.707-.138 1.433.08 1.942.588l23.346 23.345c.557.556.764 1.37.542 2.125l-21.163 71.983c-.16.544-.53 1.003-1.026 1.277l-10.614 5.836c-.308.17-.655.26-1.007.266l-49.936.65h-.028z"/><path d="m67.01 142.294 71.51-11.217-12.618 23.837-53.282 4.206z" fill="#ffca34"/><path d="m99.456 145.69-12.676 34.13 15.577 7.79 5.876-32.168z" fill="#3db47a"/><path d="m89.464 178.76 11.293 5.65 5.173-28.316-5.696-6.328-10.77 28.995zm12.892 10.998c-.328 0-.657-.076-.96-.227l-15.578-7.788c-.98-.49-1.435-1.64-1.053-2.67l12.677-34.13c.26-.704.873-1.22 1.61-1.362.74-.142 1.497.114 2 .673l8.777 9.75c.445.496.636 1.17.516 1.825l-5.876 32.168c-.12.665-.55 1.234-1.154 1.535-.302.152-.63.228-.96.228"/><path d="m84.83 146.665-12.678 30.23 14.627 2.926 12.676-34.13-14.627.975z" fill="#3db47a"/><path d="m75.148 175.304 10.256 2.05 10.883-29.3-9.99.667-11.15 26.584zm11.632 6.665c-.14 0-.28-.014-.422-.042l-14.628-2.926c-.632-.127-1.174-.53-1.476-1.1-.302-.568-.333-1.243-.084-1.837l12.678-30.23c.315-.75 1.026-1.26 1.84-1.313l14.625-.975c.74-.043 1.43.275 1.865.86.435.583.545 1.35.292 2.032l-12.678 34.13c-.316.853-1.13 1.4-2.012 1.4"/><path d="m72.15 176.895-.95 13.628 29.23-2.9-11.7-11.703z" fill="#3db47a"/><path d="m74.162 178.93-.64 9.204 22.18-2.2-7.81-7.813-13.73.81zm-2.96 13.74c-.557 0-1.094-.215-1.497-.606-.454-.44-.69-1.06-.647-1.69l.95-13.628c.075-1.077.94-1.93 2.017-1.995l16.578-.974c.603-.038 1.212.19 1.645.626l11.702 11.7c.587.588.783 1.462.504 2.243-.28.782-.985 1.333-1.81 1.415l-29.23 2.9c-.072.008-.142.01-.213.01"/><path d="m155.207 95.804 84.952-83.656h53.176l-69.388 178.337-68.74-94.68z" fill="#3db47a"/><path d="m158.032 96.038 65.34 90 66.823-171.742h-49.155l-83.01 81.742zm65.915 96.595c-.682 0-1.33-.325-1.738-.886l-68.74-94.68c-.626-.86-.528-2.047.23-2.793l84.953-83.656c.4-.396.943-.618 1.507-.618h53.177c.708 0 1.373.35 1.772.935.4.586.486 1.33.23 1.993l-69.39 178.336c-.286.732-.948 1.25-1.728 1.352-.09.01-.184.017-.275.017"/><path d="m67.728 204.156 55.784-6.507-11.882 61.785h-29.268l-14.634-55.28z" fill="#1677bf"/><path d="m84.016 257.287h25.84l10.992-57.164-50.408 5.88zm27.615 4.297h-29.267c-.975 0-1.83-.657-2.077-1.6l-14.634-55.278c-.16-.602-.05-1.244.3-1.76.352-.514.91-.85 1.527-.924l55.783-6.507c.683-.077 1.358.17 1.824.672.465.5.664 1.196.534 1.867l-11.88 61.787c-.194 1.013-1.08 1.744-2.11 1.744"/><path d="m123.512 197.65 11.695 15.45-11.38 41.463-12.196 4.872 11.882-61.786z" fill="#1677bf"/><path d="m124.71 202.79-10.228 53.192 7.554-3.018 10.82-39.412-8.146-10.76zm-13.08 58.793c-.49 0-.976-.168-1.367-.49-.606-.502-.89-1.292-.742-2.064l11.882-61.787c.16-.833.796-1.493 1.623-1.687.825-.193 1.69.12 2.2.796l11.694 15.45c.403.533.535 1.222.36 1.866l-11.383 41.463c-.18.65-.65 1.178-1.275 1.427l-12.194 4.873c-.258.103-.528.153-.798.153"/><path d="m293.337 12.504 5.7 17.355-40.05 108.71-18.596-2.862 52.947-123.204z" fill="#1677bf"/><path d="m243.46 134.007 14.118 2.172 39.185-106.36-3.695-11.25-49.607 115.437zm15.528 6.71c-.11 0-.218-.007-.328-.025l-18.596-2.86c-.656-.1-1.23-.5-1.552-1.082-.322-.58-.357-1.28-.094-1.89l52.945-123.204c.353-.822 1.172-1.34 2.068-1.298.894.04 1.67.627 1.948 1.475l5.7 17.355c.15.46.142.96-.025 1.414l-40.05 108.71c-.316.854-1.127 1.406-2.015 1.406"/><path d="m241.552 223.716c-18.22 8.384-25.015 15.18-33.4 15.18-8.383 0-18.85-22.21-18.85-30.593l47.96-79.67h38.525z" fill="#e73c60"/><path d="m191.465 208.874c.452 8.384 10.378 27.874 16.69 27.874 4.58 0 8.96-2.465 15.59-6.197 4.193-2.36 9.372-5.274 16.09-8.407l32.895-91.362h-34.253l-47.012 78.094zm16.69 32.17c-10.324 0-21.002-24.313-21.002-32.74 0-.39.107-.774.308-1.11l47.963-79.67c.388-.645 1.086-1.04 1.84-1.04h38.524c.7 0 1.355.34 1.757.914.402.57.5 1.304.265 1.962l-34.236 95.083c-.195.543-.6.984-1.124 1.224-6.96 3.203-12.303 6.21-16.597 8.627-7.222 4.065-11.992 6.75-17.7 6.75"/><path d="m235.85 247.748h-52.674l.983-43.454h64.318l-12.63 43.454z" fill="#c17b4a"/><path d="m185.373 245.6h48.863l11.38-39.158h-59.356l-.885 39.158zm50.476 4.296h-52.675c-.578 0-1.13-.233-1.536-.646-.404-.413-.625-.972-.612-1.55l.983-43.454c.027-1.168.98-2.1 2.148-2.1h64.32c.675 0 1.312.318 1.717.858.407.54.534 1.24.345 1.89l-12.63 43.454c-.264.918-1.105 1.548-2.06 1.548"/><path d="m276.892 129.422 5.7 17.356-42.328 111.29-9.922-10.415 46.55-118.23z" fill="#1677bf"/><path d="m232.843 247.164 6.624 6.953 40.847-107.392-3.605-10.975-43.867 111.414zm7.42 13.052c-.58 0-1.145-.237-1.554-.666l-9.923-10.416c-.577-.605-.75-1.49-.444-2.268l46.55-118.23c.332-.843 1.138-1.386 2.06-1.36.906.025 1.698.616 1.98 1.476l5.7 17.355c.154.468.142.974-.033 1.434l-42.328 111.29c-.263.69-.86 1.198-1.584 1.343-.14.03-.283.043-.425.043"/><path d="m239.837 258.367h-58.092l1.45-10.62 48-.094z" fill="#1677bf"/><path d="m184.206 256.22h51.138l-5.174-6.417-45.1.09-.864 6.326zm55.63 4.295h-58.09c-.62 0-1.212-.268-1.62-.736-.408-.467-.593-1.09-.51-1.704l1.45-10.618c.144-1.063 1.05-1.855 2.123-1.858l48-.095h.005c.65 0 1.265.293 1.673.8l8.64 10.713c.52.644.623 1.53.267 2.276-.358.747-1.11 1.22-1.938 1.22"/><path d="m178.988 172.35 19.496.35 9.493 5.393-26.128 128.832-11.388-10.013 8.526-124.56z" fill="#1677bf"/><path d="m172.676 296 7.805 6.86 25.082-123.668-7.665-4.354-16.905-.303zm9.173 13.073c-.515 0-1.02-.185-1.42-.535l-11.388-10.013c-.502-.44-.77-1.092-.724-1.76l8.527-124.56c.078-1.143 1.037-2.04 2.182-2.002l19.494.35c.36.005.712.102 1.024.28l9.494 5.39c.808.46 1.23 1.386 1.045 2.297l-26.13 128.832c-.15.75-.692 1.364-1.418 1.61-.225.075-.457.11-.686.11"/><path d="m177.747 232.727c-11.666 5.368-16.018 9.72-21.385 9.72-5.37 0-15.734-17.562-15.734-22.93l34.372-47.672h24.667z" fill="#1677bf"/><path d="m142.83 220.133c.352 2.213 2.337 6.858 5.457 11.7 3.976 6.168 7.062 8.466 8.074 8.466 2.733 0 5.32-1.457 9.608-3.87 2.635-1.483 5.875-3.307 10.062-5.273l20.58-57.164h-20.511l-33.27 46.14zm13.53 24.463c-7.017 0-17.88-19.228-17.88-25.078 0-.452.14-.892.405-1.257l34.373-47.67c.404-.562 1.052-.894 1.743-.894h24.667c.7 0 1.355.34 1.757.914.403.572.5 1.305.265 1.962l-21.922 60.882c-.195.543-.6.983-1.123 1.224-4.427 2.038-7.833 3.955-10.57 5.496-4.56 2.567-7.856 4.422-11.714 4.422"/><path d="m171.034 296.912h-32.097l2.06-76.62h41.184l-11.146 76.62z" fill="#3db47a"/><path d="m141.144 294.764h28.032l10.524-72.324h-36.612zm29.89 4.297h-32.097c-.58 0-1.135-.234-1.54-.65-.403-.414-.624-.976-.607-1.555l2.06-76.62c.03-1.165.984-2.092 2.148-2.092h41.184c.623 0 1.216.27 1.624.742s.59 1.098.5 1.716l-11.146 76.622c-.154 1.056-1.06 1.84-2.126 1.84"/><path d="m182.18 220.29 13.973 8.34" fill="#1677bf"/><path d="m195.052 230.474-13.97-8.338 2.2-3.69 13.97 8.34z"/><path d="m45.216 132.12 60.31-74.577 63.948-12.97-38.262 68.093z" fill="#1677bf"/><path d="m106.71 59.495-55.932 69.165 79.03-17.88 35.495-63.168-58.59 11.883zm-61.494 74.773c-.73 0-1.426-.373-1.824-1.013-.483-.776-.42-1.774.154-2.486l60.31-74.578c.314-.388.755-.655 1.244-.754l63.947-12.97c.825-.168 1.67.16 2.163.84.495.68.548 1.585.137 2.317l-38.262 68.093c-.298.53-.806.91-1.4 1.043l-85.995 19.456c-.157.036-.317.053-.474.053m219.08-13.212-16.033-11.596-93.32-11.524.527-4.263 93.868 11.592c.36.044.7.18.995.39l16.48 11.92-2.517 3.482z"/><path d="m150.912 142.898c0 11.94-9.68 21.62-21.62 21.62s-21.62-9.68-21.62-21.62 9.68-21.62 21.62-21.62 21.62 9.68 21.62 21.62" fill="#ffca34"/><path d="m129.292 123.426c-10.736 0-19.472 8.735-19.472 19.47 0 10.738 8.736 19.473 19.472 19.473s19.472-8.736 19.472-19.473c0-10.736-8.736-19.47-19.472-19.47m0 43.24c-13.106 0-23.77-10.663-23.77-23.77 0-13.105 10.664-23.768 23.77-23.768s23.77 10.662 23.77 23.767c0 13.107-10.664 23.77-23.77 23.77"/><path d="m111.052 307.85h-30.458l-8.992-10.938h28.058l11.392 10.94z" fill="#1677bf"/><path d="m81.61 305.704h24.103l-6.918-6.643h-22.647l5.46 6.644zm29.44 4.296h-30.46c-.64 0-1.25-.288-1.66-.784l-8.99-10.94c-.527-.64-.638-1.53-.284-2.282.356-.75 1.112-1.23 1.943-1.23h28.06c.554 0 1.086.215 1.486.6l11.395 10.936c.632.608.832 1.538.505 2.35-.327.815-1.116 1.348-1.993 1.348"/><path d="m122.54 123.586h-3.348c-10.544 0-19.092 8.548-19.092 19.092s8.548 19.092 19.092 19.092h3.35c10.543 0 19.09-8.548 19.09-19.092s-8.547-19.092-19.09-19.092" fill="#ffca34"/><path d="m120.934 159.563h1.607c9.312 0 16.887-7.574 16.887-16.886 0-9.31-7.575-16.885-16.886-16.885h-3.35c-9.31 0-16.884 7.575-16.884 16.885 0 9.312 7.575 16.886 16.885 16.886h1.744zm1.607 4.412h-3.35c-11.742 0-21.296-9.554-21.296-21.298 0-11.743 9.554-21.297 21.297-21.297h3.35c11.745 0 21.3 9.554 21.3 21.297 0 11.744-9.555 21.298-21.3 21.298"/><path d="m131.802 142.677c0 8.725-7.072 15.797-15.797 15.797s-15.797-7.072-15.797-15.797c0-8.724 7.072-15.797 15.797-15.797s15.797 7.073 15.797 15.797" fill="#ffca34"/><path d="m116.005 129.086c-7.494 0-13.59 6.098-13.59 13.59 0 7.496 6.096 13.593 13.59 13.593s13.59-6.098 13.59-13.593c0-7.493-6.096-13.59-13.59-13.59m0 31.594c-9.927 0-18.003-8.076-18.003-18.003s8.076-18.003 18.003-18.003 18.003 8.076 18.003 18.003-8.076 18.004-18.003 18.004"/></g></svg>