<svg clip-rule="evenodd" fill-rule="evenodd" stroke-linejoin="round" stroke-miterlimit="1.414" viewBox="0 0 320 320" xmlns="http://www.w3.org/2000/svg"><g fill-rule="nonzero"><path d="m254.813 145.323-59.95-34.952 49.69-67.626h50.5l-40.24 102.58z" fill="#3db47a"/><path d="m198.718 109.57 54.766 31.93 37.706-96.122h-45.304l-47.168 64.193zm56.095 38.387c-.462 0-.92-.122-1.326-.36l-59.95-34.95c-.646-.378-1.1-1.01-1.253-1.742-.15-.73.014-1.49.457-2.094l49.69-67.625c.496-.676 1.285-1.074 2.123-1.074h50.5c.87 0 1.685.43 2.175 1.15s.593 1.635.275 2.445l-40.24 102.58c-.28.715-.86 1.272-1.586 1.525-.28.098-.573.147-.864.147"/><path d="m96.11 145.323 59.95-34.952-49.69-67.626h-50.5l40.24 102.58z" fill="#3db47a"/><path d="m59.733 45.377 37.707 96.123 54.765-31.93-47.167-64.193zm36.378 102.58c-.29 0-.583-.05-.864-.147-.727-.252-1.306-.81-1.587-1.525l-40.24-102.58c-.318-.81-.216-1.725.276-2.445.49-.72 1.305-1.15 2.175-1.15h50.5c.84 0 1.628.4 2.124 1.075l49.688 67.627c.443.6.608 1.363.457 2.094-.153.73-.608 1.364-1.254 1.74l-59.95 34.952c-.406.238-.864.358-1.325.358m165.189 2.904h-175.136l-2.596 59.23 91.03 10.04 91.03-10.04z"/><path d="m86.305 207.745 88.292 9.734 88.218-9.727-3.963-54.26h-170.168l-2.38 54.252zm88.292 15.017c-.097 0-.192-.005-.29-.016l-91.03-10.036c-1.378-.152-2.402-1.347-2.34-2.733l2.595-59.232c.06-1.408 1.222-2.518 2.632-2.518h175.136c1.38 0 2.526 1.066 2.626 2.442l4.327 59.23c.104 1.413-.93 2.654-2.336 2.81l-91.03 10.036c-.098.01-.193.016-.29.016"/><path d="m229.476 213.21h-110.853l-1.643 60.46 57.617 10.244 57.618-10.245-2.74-60.46z" fill="#1677bf"/><path d="m119.674 271.473 54.923 9.766 54.883-9.76-2.522-55.635h-105.773l-1.51 55.628zm54.923 15.074c-.154 0-.31-.013-.46-.04l-57.618-10.245c-1.284-.228-2.207-1.36-2.172-2.664l1.643-60.46c.04-1.425 1.206-2.56 2.633-2.56h110.853c1.408 0 2.566 1.107 2.63 2.514l2.74 60.458c.06 1.32-.87 2.48-2.17 2.712l-57.62 10.245c-.15.027-.305.04-.46.04m91.658-134.239h-183.314l4.317-21.72h174.68z"/><path d="m86.15 149.674h176.895l-3.268-16.453h-170.36l-3.268 16.454zm180.104 5.267h-183.314c-.787 0-1.536-.353-2.035-.962-.5-.61-.7-1.41-.548-2.184l4.316-21.72c.246-1.232 1.328-2.12 2.584-2.12h174.683c1.256 0 2.336.888 2.582 2.12l4.315 21.72c.153.774-.048 1.575-.548 2.184-.5.61-1.25.963-2.036.963"/><path d="m141.324 174.348 25.836 31.315" fill="#1677bf"/><path d="m165.128 207.34-25.836-31.317 4.063-3.352 25.836 31.318-4.062 3.35z"/><path d="m207.87 174.348-25.835 31.315" fill="#1677bf"/><path d="m184.067 207.34-4.063-3.352 25.835-31.317 4.062 3.353-25.835 31.316z"/><path d="m142.46 191.828h64.275l-8.33 40.91h-47.615z" fill="#1677bf"/><path d="m152.94 230.105h43.315l7.256-35.644h-57.827l7.257 35.645zm45.465 5.267h-47.615c-1.253 0-2.33-.882-2.58-2.108l-8.33-40.91c-.16-.776.04-1.58.54-2.193.5-.61 1.248-.966 2.04-.966h64.274c.79 0 1.54.356 2.04.967.5.613.7 1.418.54 2.193l-8.328 40.91c-.25 1.227-1.328 2.11-2.58 2.11m-12.456-152.168h-22.705l3.89-23.626h14.925l3.89 23.627z"/><path d="m166.348 80.573h16.498l-3.022-18.36h-10.454zm19.6 5.267h-22.702c-.774 0-1.507-.34-2.008-.93-.5-.59-.716-1.367-.59-2.13l3.888-23.627c.21-1.272 1.31-2.206 2.598-2.206h14.926c1.288 0 2.39.934 2.598 2.206l3.89 23.626c.126.763-.09 1.54-.59 2.13s-1.235.93-2.01.93"/><path d="m146.263 67.52-23.337 58.41 7.78 24.986h87.783l7.78-24.987-23.338-58.41h-56.67z"/><path d="m132.643 148.282h83.908l6.926-22.243-22.328-55.887h-53.102l-22.33 55.886 6.927 22.242zm85.846 5.267h-87.786c-1.153 0-2.17-.75-2.514-1.85l-7.778-24.988c-.18-.577-.155-1.198.07-1.76l23.335-58.41c.4-1 1.368-1.656 2.446-1.656h56.67c1.075 0 2.044.657 2.444 1.656l23.337 58.41c.224.562.248 1.183.068 1.76l-7.78 24.987c-.342 1.1-1.36 1.85-2.513 1.85"/><path d="m280.884 201.46c-14.093 6.485-19.35 11.743-25.837 11.743-6.484 0-11.742-5.258-11.742-11.743l34.262-73.553h29.8z" fill="#e73c60"/><path d="m245.955 202.008c.283 4.77 4.254 8.562 9.093 8.562 3.29 0 6.412-1.758 11.585-4.67 3.18-1.79 7.094-3.993 12.146-6.365l24.84-68.995h-24.374zm9.093 13.828c-7.927 0-14.376-6.45-14.376-14.377 0-.385.084-.764.245-1.113l34.263-73.553c.432-.928 1.364-1.52 2.387-1.52h29.8c.857 0 1.66.417 2.153 1.118.494.702.615 1.6.325 2.407l-26.483 73.552c-.24.664-.735 1.205-1.377 1.5-5.348 2.46-9.463 4.777-12.77 6.638-5.512 3.104-9.497 5.346-14.167 5.346"/><path d="m276.472 220.05h-55.838l15.852-33.614h49.755l-9.768 33.614z" fill="#c17b4a"/><path d="m224.787 217.417h49.708l8.24-28.348h-44.58l-13.368 28.347zm51.686 5.267h-55.84c-.902 0-1.742-.462-2.224-1.224-.485-.76-.543-1.718-.158-2.533l15.853-33.615c.434-.92 1.362-1.51 2.38-1.51h49.757c.828 0 1.608.39 2.106 1.053.497.662.653 1.52.422 2.316l-9.769 33.615c-.325 1.125-1.356 1.9-2.527 1.9"/><path d="m67.703 201.46c19.15 6.485 24.407 11.743 30.893 11.743 6.485 0 11.742-5.258 6.686-11.743l-34.26-73.553h-29.8l26.478 73.553z" fill="#e73c60"/><path d="m69.753 199.378c8.6 2.978 14.364 5.693 18.624 7.7 4.624 2.177 7.414 3.492 10.22 3.492 2.608 0 4.984-1.136 5.78-2.763.8-1.64-.195-3.477-1.17-4.728-.123-.158-.227-.328-.31-.51l-33.554-72.03h-24.375l24.785 68.838zm28.843 16.458c-3.983 0-7.356-1.59-12.463-3.993-4.342-2.045-10.288-4.846-19.274-7.89-.76-.257-1.362-.846-1.634-1.6l-26.483-73.554c-.29-.808-.17-1.706.324-2.408.493-.7 1.296-1.118 2.153-1.118h29.802c1.023 0 1.953.592 2.387 1.52l34.14 73.295c3.396 4.53 2.443 8.216 1.558 10.027-1.696 3.475-5.823 5.72-10.512 5.72"/><path d="m72.116 220.05h55.838l-15.854-33.614h-49.753l9.77 33.614z" fill="#c17b4a"/><path d="m74.093 217.417h49.707l-13.37-28.348h-44.575l8.24 28.347zm53.862 5.267h-55.84c-1.17 0-2.202-.774-2.527-1.9l-9.77-33.613c-.23-.795-.075-1.653.422-2.315.498-.662 1.28-1.053 2.106-1.053h49.754c1.02 0 1.948.59 2.382 1.51l15.854 33.615c.385.815.327 1.772-.157 2.533-.483.762-1.323 1.224-2.225 1.224"/><path d="m49.22 261.298 125.45 45.618v-45.618z" fill="#ffca34"/><path d="m64.17 263.932 107.866 39.224v-39.224zm110.5 45.617c-.304 0-.608-.053-.9-.16l-125.448-45.614c-1.202-.437-1.916-1.674-1.694-2.933.222-1.258 1.317-2.175 2.594-2.175h125.448c1.453 0 2.632 1.18 2.632 2.634v45.616c0 .86-.418 1.664-1.12 2.157-.45.314-.98.476-1.512.476"/><path d="m300.118 261.298h-125.448v45.618l1.24.45 124.208-46.066z" fill="#ffca34"/><path d="m177.302 263.932v40.11l108.142-40.11zm-1.392 46.068c-.305 0-.61-.053-.9-.158l-1.24-.45c-1.042-.38-1.734-1.37-1.734-2.476v-45.616c0-1.456 1.18-2.635 2.634-2.635h125.447c1.275 0 2.368.914 2.593 2.17.225 1.252-.482 2.49-1.677 2.932l-124.208 46.07c-.295.108-.604.163-.916.163"/><path d="m132.634 197.084h-33.74l4.305-43.465h25.13l4.304 43.464z" fill="#1677bf"/><path d="m101.802 194.45h27.925l-3.784-38.198h-20.358zm30.83 5.267h-33.735c-.745 0-1.453-.315-1.952-.865-.5-.552-.743-1.288-.67-2.03l4.304-43.462c.134-1.348 1.267-2.375 2.62-2.375h25.13c1.355 0 2.488 1.027 2.62 2.375l4.306 43.463c.074.74-.17 1.477-.67 2.03-.498.55-1.206.864-1.95.864"/><path d="m98.895 197.083h33.74l-4.306 46.612h-25.129z" fill="#3db47a"/><path d="m105.6 241.062h20.328l3.818-41.345h-27.963l3.818 41.345zm22.728 5.267h-25.128c-1.362 0-2.498-1.038-2.623-2.393l-4.304-46.612c-.068-.737.177-1.468.676-2.016.498-.548 1.204-.86 1.945-.86h33.738c.74 0 1.448.312 1.946.86.5.547.743 1.278.675 2.015l-4.305 46.612c-.124 1.355-1.26 2.392-2.622 2.392"/><path d="m250.3 197.084h-33.74l4.305-43.465h25.13l4.305 43.464z" fill="#1677bf"/><path d="m219.468 194.45h27.925l-3.784-38.198h-20.36l-3.782 38.198zm30.832 5.267h-33.74c-.743 0-1.452-.315-1.95-.865-.5-.552-.744-1.288-.67-2.03l4.304-43.462c.134-1.348 1.268-2.375 2.62-2.375h25.13c1.355 0 2.49 1.027 2.622 2.375l4.305 43.463c.074.74-.17 1.477-.67 2.03-.497.55-1.207.864-1.95.864"/><path d="m216.56 197.083h33.74l-4.304 46.612h-25.13l-4.305-46.612z" fill="#3db47a"/><path d="m223.266 241.062h20.328l3.82-41.345h-27.966zm22.73 5.267h-25.13c-1.362 0-2.5-1.038-2.623-2.393l-4.304-46.612c-.07-.737.175-1.468.674-2.016.5-.548 1.206-.86 1.947-.86h33.74c.74 0 1.447.312 1.946.86.498.547.744 1.278.676 2.015l-4.305 46.612c-.125 1.355-1.262 2.392-2.622 2.392"/><path d="m204.877 178.262 17.502-23.897h-95.565l17.502 23.897h60.56z" fill="#ffca34"/><path d="m145.653 175.628h57.89l13.643-18.63h-85.176zm59.224 5.267h-60.557c-.84 0-1.63-.4-2.126-1.077l-17.504-23.898c-.586-.8-.67-1.86-.223-2.745.45-.885 1.356-1.443 2.348-1.443h95.564c.99 0 1.898.558 2.347 1.443.45.885.363 1.946-.224 2.746l-17.502 23.899c-.494.677-1.284 1.077-2.123 1.077"/><path d="m185.533 179.045h-21.873l3.89-10.123h14.093z"/><path d="m215.055 142.714h-80.915l15.718-72.685h50.002l15.195 72.684z" fill="#1677bf"/><path d="m137.403 140.08h74.41l-14.093-67.42h-45.736l-14.58 67.42zm77.652 5.268h-80.915c-.796 0-1.55-.36-2.05-.98s-.693-1.433-.525-2.21l15.72-72.687c.262-1.21 1.334-2.074 2.573-2.074h50c1.248 0 2.323.874 2.58 2.094l15.195 72.685c.162.777-.035 1.585-.535 2.2s-1.25.973-2.043.973"/><path d="m151.294 169.678c0 6.087-4.934 11.022-11.022 11.022s-11.023-4.935-11.023-11.022c0-6.088 4.934-11.023 11.022-11.023s11.022 4.935 11.022 11.023" fill="#e73c60"/><path d="m140.27 162.868c-3.753 0-6.808 3.055-6.808 6.81 0 3.754 3.055 6.81 6.81 6.81 3.754 0 6.81-3.056 6.81-6.81 0-3.755-3.056-6.81-6.81-6.81m0 22.045c-8.4 0-15.238-6.834-15.238-15.236 0-8.4 6.837-15.236 15.237-15.236 8.402 0 15.24 6.836 15.24 15.237 0 8.402-6.838 15.236-15.24 15.236"/><path d="m17.374 298.593c-1.898 0-3.797-.73-5.24-2.185-2.865-2.893-2.843-7.562.05-10.428l119.922-118.77c2.892-2.866 7.56-2.844 10.428.05 2.865 2.893 2.842 7.562-.05 10.427l-119.92 118.77c-1.44 1.425-3.314 2.136-5.19 2.136" fill="#e73c60"/></g></svg>