<svg clip-rule="evenodd" fill-rule="evenodd" stroke-linejoin="round" stroke-miterlimit="1.414" viewBox="0 0 320 320" xmlns="http://www.w3.org/2000/svg"><g fill-rule="nonzero"><path d="m252.003 136.938-63.003-36.73 52.22-71.07h53.07z" fill="#3db47a"/><path d="m193.052 99.366 57.554 33.555 39.627-101.015h-47.613zm58.95 40.34c-.484 0-.966-.127-1.392-.377l-63.003-36.732c-.68-.396-1.156-1.06-1.316-1.83-.158-.767.016-1.567.48-2.2l52.22-71.07c.52-.71 1.35-1.128 2.23-1.128h53.07c.915 0 1.772.452 2.287 1.207.516.757.624 1.72.29 2.57l-42.288 107.804c-.296.75-.904 1.337-1.668 1.603-.296.102-.603.153-.91.153"/><path d="m85.22 136.938 63.002-36.73-52.22-71.07h-53.07l42.287 107.8z" fill="#3db47a"/><path d="m46.99 31.905 39.625 101.015 57.554-33.555-49.568-67.46zm38.23 107.8c-.307 0-.614-.05-.91-.153-.763-.264-1.372-.85-1.667-1.602l-42.288-107.802c-.334-.852-.226-1.814.29-2.57.515-.756 1.372-1.21 2.286-1.21h53.072c.88 0 1.71.42 2.23 1.13l52.22 71.07c.465.633.64 1.433.48 2.2-.16.77-.638 1.435-1.317 1.83l-63.003 36.732c-.427.25-.91.376-1.393.376m173.6 3.052h-184.053l-2.73 62.247 95.666 10.548 95.664-10.548z"/><path d="m74.915 202.538 92.788 10.23 92.71-10.22-4.166-57.022h-178.832zm92.788 15.783c-.102 0-.202-.005-.304-.016l-95.667-10.548c-1.448-.16-2.525-1.415-2.46-2.87l2.728-62.252c.065-1.48 1.285-2.645 2.766-2.645h184.054c1.45 0 2.654 1.12 2.76 2.566l4.548 62.248c.11 1.485-.978 2.79-2.457 2.952l-95.663 10.548c-.102.01-.202.017-.304.017"/><path d="m225.375 208.283h-116.495l-1.728 63.536 60.55 10.766 60.552-10.767-2.88-63.537z" fill="#1677bf"/><path d="m109.983 269.512 57.72 10.263 57.676-10.255-2.65-58.47h-111.159zm57.72 15.84c-.162 0-.324-.013-.485-.04l-60.55-10.768c-1.35-.24-2.32-1.43-2.283-2.8l1.727-63.536c.04-1.5 1.267-2.692 2.766-2.692h116.498c1.48 0 2.697 1.164 2.763 2.642l2.878 63.536c.063 1.387-.913 2.607-2.28 2.85l-60.55 10.767c-.16.03-.323.043-.485.043m96.324-141.074h-192.646l4.535-22.827h183.575l4.536 22.826z"/><path d="m74.75 141.512h185.904l-3.435-17.29h-179.034zm189.276 5.535h-192.646c-.83 0-1.614-.372-2.14-1.012s-.737-1.483-.576-2.295l4.536-22.826c.258-1.295 1.395-2.227 2.715-2.227h183.575c1.32 0 2.457.932 2.715 2.227l4.536 22.826c.162.812-.05 1.655-.574 2.295-.526.64-1.312 1.012-2.14 1.012"/><path d="m132.735 167.44 27.152 32.91" fill="#1677bf"/><path d="m157.75 202.112-27.15-32.91 4.27-3.523 27.15 32.91-4.27 3.522z"/><path d="m202.67 167.44-27.15 32.91" fill="#1677bf"/><path d="m177.654 202.112-4.27-3.52 27.15-32.913 4.27 3.522-27.15 32.91z"/><path d="m133.93 185.81h67.546l-8.753 42.995h-50.04l-8.754-42.994z" fill="#1677bf"/><path d="m144.943 226.037h45.52l7.625-37.458h-60.77l7.625 37.457zm47.78 5.535h-50.04c-1.317 0-2.45-.926-2.713-2.215l-8.753-42.994c-.166-.814.043-1.66.57-2.303.525-.642 1.31-1.016 2.143-1.016h67.546c.83 0 1.617.374 2.144 1.016.525.643.734 1.49.568 2.303l-8.753 42.994c-.263 1.29-1.396 2.215-2.713 2.215m-13.089-159.912h-23.86l4.087-24.83h15.685z"/><path d="m159.033 68.892h17.34l-3.179-19.292h-10.984zm20.6 5.535h-23.86c-.813 0-1.584-.357-2.11-.976-.525-.62-.753-1.437-.62-2.24l4.086-24.828c.22-1.337 1.376-2.318 2.73-2.318h15.685c1.354 0 2.51.98 2.73 2.318l4.09 24.828c.13.803-.097 1.62-.622 2.24-.526.62-1.297.977-2.11.977"/><path d="m137.925 55.174-24.525 61.384 8.176 26.26h92.253l8.175-26.26-24.525-61.384h-59.555z"/><path d="m123.612 140.05h88.18l7.28-23.377-23.467-58.732h-55.805l-23.466 58.733zm90.218 5.534h-92.256c-1.21 0-2.28-.788-2.64-1.945l-8.176-26.26c-.19-.606-.163-1.258.073-1.85l24.526-61.383c.42-1.05 1.438-1.74 2.57-1.74h59.554c1.13 0 2.15.69 2.57 1.74l24.524 61.383c.236.592.263 1.244.073 1.85l-8.175 26.26c-.36 1.156-1.43 1.944-2.642 1.944"/><path d="m279.4 195.934c-14.81 6.815-20.335 12.34-27.15 12.34-6.816 0-12.34-5.525-12.34-12.34l36.004-77.298h31.318l-27.83 77.298z" fill="#e73c60"/><path d="m242.693 196.51c.298 5.012 4.47 8.997 9.556 8.997 3.457 0 6.74-1.847 12.176-4.907 3.342-1.883 7.454-4.196 12.762-6.69l26.106-72.506h-25.613l-34.987 75.105zm9.556 14.532c-8.332 0-15.11-6.777-15.11-15.11 0-.402.09-.8.26-1.168l36.006-77.297c.455-.976 1.433-1.6 2.51-1.6h31.316c.902 0 1.746.44 2.264 1.177.52.738.645 1.68.34 2.53l-27.83 77.297c-.253.7-.774 1.267-1.45 1.578-5.618 2.586-9.94 5.02-13.415 6.974-5.794 3.263-9.982 5.62-14.89 5.62"/><path d="m274.764 215.47h-59.23l17.21-35.325h52.287l-10.266 35.326z" fill="#c17b4a"/><path d="m219.96 212.703h52.727l8.657-29.79h-46.87zm54.805 5.535h-59.232c-.955 0-1.842-.49-2.348-1.3-.505-.81-.558-1.822-.14-2.68l17.21-35.325c.463-.952 1.43-1.556 2.488-1.556h52.288c.87 0 1.69.41 2.213 1.106.524.696.688 1.597.445 2.434l-10.267 35.326c-.342 1.182-1.424 1.995-2.655 1.995"/><path d="m55.366 195.934c20.125 6.815 25.65 12.34 32.466 12.34 6.815 0 12.34-5.525 7.027-12.34l-36.007-77.298h-31.317l27.83 77.298z" fill="#e73c60"/><path d="m57.52 193.746c9.035 3.128 15.094 5.983 19.572 8.092 4.86 2.287 7.792 3.67 10.74 3.67 2.74 0 5.238-1.194 6.073-2.904.843-1.725-.203-3.654-1.228-4.97-.13-.164-.238-.342-.327-.532l-35.26-75.698h-25.615zm30.313 17.296c-4.187 0-7.732-1.67-13.1-4.197-4.563-2.15-10.812-5.093-20.254-8.29-.8-.27-1.43-.89-1.718-1.684l-27.83-77.297c-.305-.848-.178-1.79.34-2.53.52-.736 1.362-1.175 2.264-1.175h31.317c1.077 0 2.055.623 2.51 1.6l35.878 77.025c3.57 4.76 2.57 8.635 1.64 10.54-1.785 3.65-6.12 6.01-11.047 6.01"/><path d="m60.003 215.47h58.682l-16.66-35.325h-52.288l10.266 35.326z" fill="#c17b4a"/><path d="m62.08 212.703h52.24l-14.05-29.79h-46.847l8.658 29.79zm56.605 5.535h-58.682c-1.23 0-2.315-.813-2.657-1.995l-10.266-35.326c-.244-.837-.08-1.738.443-2.434s1.343-1.106 2.213-1.106h52.29c1.07 0 2.046.618 2.502 1.587l16.66 35.326c.404.857.343 1.862-.165 2.662-.507.8-1.39 1.286-2.338 1.286"/><path d="m35.943 258.82 131.836 47.94v-47.94h-131.837z" fill="#ffca34"/><path d="m51.652 261.586 113.36 41.22v-41.22h-113.362zm116.127 47.94c-.32 0-.64-.055-.948-.166l-131.833-47.94c-1.263-.46-2.013-1.76-1.78-3.082.233-1.323 1.383-2.287 2.726-2.287h131.836c1.527 0 2.766 1.24 2.766 2.77v47.94c0 .902-.44 1.747-1.18 2.266-.472.33-1.027.5-1.587.5"/><path d="m299.613 258.82h-131.835v47.94l1.304.473 130.53-48.414z" fill="#ffca34"/><path d="m170.546 261.586v42.15l113.647-42.15zm-1.466 48.414c-.32 0-.64-.056-.945-.167l-1.303-.474c-1.093-.4-1.82-1.438-1.82-2.6v-47.94c0-1.53 1.238-2.77 2.767-2.77h131.831c1.34 0 2.49.962 2.725 2.28.237 1.318-.505 2.617-1.762 3.083l-130.53 48.414c-.312.115-.637.173-.964.173"/><path d="m123.603 191.335h-35.457l4.523-45.678h26.408l4.525 45.678z" fill="#1677bf"/><path d="m91.2 188.567h29.348l-3.976-40.142h-21.395zm32.403 5.535h-35.457c-.782 0-1.526-.33-2.05-.91-.527-.58-.78-1.352-.704-2.13l4.523-45.677c.14-1.417 1.332-2.496 2.755-2.496h26.41c1.422 0 2.613 1.078 2.753 2.495l4.524 45.676c.078.78-.178 1.553-.703 2.133-.524.578-1.27.91-2.05.91"/><path d="m88.146 191.334h35.456l-4.523 48.985h-26.409l-4.524-48.986z" fill="#3db47a"/><path d="m95.193 237.552h21.363l4.013-43.45h-29.389zm23.885 5.535h-26.41c-1.43 0-2.622-1.09-2.754-2.514l-4.524-48.983c-.07-.776.186-1.545.71-2.12.525-.575 1.267-.903 2.046-.903h35.457c.78 0 1.52.328 2.045.903s.782 1.344.71 2.12l-4.524 48.983c-.13 1.425-1.325 2.514-2.756 2.514"/><path d="m247.26 191.335h-35.457l4.523-45.678h26.41z" fill="#1677bf"/><path d="m214.857 188.567h29.348l-3.977-40.142h-21.394zm32.402 5.535h-35.457c-.783 0-1.527-.33-2.05-.91-.526-.58-.782-1.352-.705-2.13l4.523-45.677c.142-1.417 1.334-2.496 2.756-2.496h26.41c1.422 0 2.613 1.078 2.753 2.495l4.524 45.676c.077.78-.18 1.553-.704 2.133-.524.578-1.27.91-2.05.91"/><path d="m211.802 191.334h35.457l-4.524 48.985h-26.41l-4.524-48.986z" fill="#3db47a"/><path d="m218.85 237.552h21.362l4.013-43.45h-29.39l4.014 43.45zm23.885 5.535h-26.408c-1.43 0-2.625-1.09-2.756-2.514l-4.523-48.984c-.072-.776.185-1.545.71-2.12.524-.575 1.267-.903 2.045-.903h35.457c.778 0 1.52.328 2.044.903.525.575.782 1.344.71 2.12l-4.524 48.983c-.13 1.425-1.324 2.514-2.755 2.514"/><path d="m199.524 171.554 18.393-25.113h-100.43l18.394 25.114h63.644z" fill="#ffca34"/><path d="m137.285 168.787h60.835l14.34-19.578h-89.515l14.34 19.577zm62.238 5.535h-63.64c-.883 0-1.713-.42-2.234-1.132l-18.395-25.113c-.616-.842-.706-1.957-.236-2.887s1.425-1.516 2.467-1.516h100.43c1.043 0 1.997.586 2.47 1.516.47.93.38 2.045-.237 2.887l-18.394 25.113c-.52.71-1.35 1.132-2.233 1.132"/><path d="m179.195 172.378h-22.985l4.088-10.64h14.81z"/><path d="m210.22 134.197h-85.035l16.52-76.386h52.546l15.97 76.387z" fill="#1677bf"/><path d="m128.616 131.43h78.197l-14.813-70.852h-48.06l-15.322 70.852zm81.604 5.535h-85.034c-.837 0-1.63-.38-2.154-1.03-.525-.652-.73-1.505-.55-2.323l16.517-76.387c.274-1.273 1.4-2.18 2.704-2.18h52.546c1.31 0 2.442.917 2.71 2.2l15.97 76.385c.17.817-.038 1.666-.563 2.313-.525.645-1.314 1.022-2.147 1.022"/><path d="m143.36 162.533c0 6.398-5.185 11.584-11.583 11.584s-11.584-5.186-11.584-11.584 5.186-11.584 11.584-11.584 11.584 5.185 11.584 11.583" fill="#e73c60"/><path d="m131.777 155.377c-3.946 0-7.155 3.21-7.155 7.156s3.21 7.156 7.155 7.156c3.946 0 7.156-3.21 7.156-7.157 0-3.946-3.21-7.156-7.156-7.156m0 23.168c-8.83 0-16.012-7.182-16.012-16.012s7.183-16.012 16.012-16.012c8.828 0 16.013 7.184 16.013 16.013 0 8.83-7.185 16.012-16.013 16.012"/><path d="m126.288 176.914c-1.995 0-3.99-.766-5.506-2.296-3.012-3.04-2.988-7.948.054-10.96l2.36-2.336c3.04-3.01 7.946-2.988 10.96.054 3.01 3.04 2.985 7.948-.056 10.96l-2.36 2.335c-1.51 1.497-3.48 2.244-5.452 2.244m-18.09 17.917c-1.996 0-3.99-.766-5.506-2.296-3.012-3.04-2.988-7.948.054-10.96l2.36-2.335c3.04-3.01 7.947-2.99 10.96.053 3.01 3.04 2.984 7.947-.057 10.958l-2.36 2.338c-1.51 1.496-3.48 2.243-5.452 2.243m-18.09 17.917c-1.993 0-3.988-.765-5.504-2.295-3.01-3.04-2.988-7.946.05-10.958l2.36-2.337c3.04-3.01 7.945-2.99 10.96.05 3.01 3.04 2.988 7.946-.052 10.96l-2.36 2.336c-1.51 1.497-3.482 2.244-5.453 2.244m-18.09 17.916c-1.996 0-3.99-.765-5.506-2.295-3.012-3.04-2.99-7.946.052-10.96l2.358-2.335c3.04-3.01 7.95-2.99 10.958.05 3.013 3.042 2.99 7.948-.05 10.96l-2.36 2.337c-1.51 1.496-3.482 2.243-5.453 2.243m-18.087 17.914c-1.997 0-3.99-.766-5.507-2.296-3.012-3.04-2.988-7.948.053-10.96l2.36-2.335c3.04-3.013 7.947-2.99 10.958.05 3.012 3.042 2.988 7.948-.053 10.96l-2.36 2.337c-1.51 1.496-3.48 2.243-5.45 2.243m-18.09 17.917c-1.997 0-3.99-.766-5.508-2.296-3.01-3.04-2.987-7.947.054-10.958l2.36-2.337c3.04-3.012 7.946-2.99 10.96.053 3.01 3.04 2.986 7.948-.055 10.96l-2.36 2.336c-1.51 1.496-3.48 2.243-5.45 2.243m-18.092 17.916c-1.995 0-3.99-.766-5.507-2.296-3.01-3.04-2.984-7.948.057-10.96l2.36-2.336c3.04-3.01 7.946-2.986 10.958.055 3.01 3.04 2.987 7.948-.055 10.96l-2.36 2.335c-1.51 1.496-3.48 2.243-5.452 2.243" fill="#e73c60"/></g></svg>