<svg clip-rule="evenodd" fill-rule="evenodd" stroke-linejoin="round" stroke-miterlimit="1.414" viewBox="0 0 320 320" xmlns="http://www.w3.org/2000/svg"><g fill-rule="nonzero"><path d="m181.374 89.432-6.884 4.734-6.883-4.734v-23.184l6.883-4.734 6.884 4.734z" fill="#e73c60"/><path d="m168.71 88.852 5.78 3.976 5.78-3.976v-22.024l-5.78-3.976-5.78 3.976zm5.78 6.418c-.218 0-.436-.065-.624-.194l-6.884-4.735c-.3-.205-.478-.544-.478-.908v-23.185c0-.363.178-.703.478-.908l6.884-4.735c.376-.26.873-.26 1.25 0l6.882 4.735c.3.205.48.545.48.908v23.184c0 .364-.18.703-.48.91l-6.883 4.734c-.188.13-.406.194-.625.194"/><path d="m181.88 73.1-8.865 6.098-8.866-6.098v-4.776l8.865-6.098 8.866 6.098z" fill="#e73c60"/><path d="m165.252 72.52 7.763 5.34 7.763-5.34v-3.616l-7.763-5.34-7.763 5.34zm7.763 7.78c-.218 0-.436-.064-.625-.193l-8.866-6.098c-.3-.207-.478-.547-.478-.91v-4.776c0-.364.18-.703.478-.91l8.866-6.096c.377-.26.874-.26 1.25 0l8.865 6.097c.3.206.48.545.48.91v4.776c0 .363-.18.703-.48.91l-8.865 6.097c-.188.13-.407.194-.625.194"/><path d="m181.374 66.582-6.884 4.734-6.883-4.734v-23.185l6.883-4.734 6.884 4.734z" fill="#e73c60"/><path d="m168.71 66.002 5.78 3.976 5.78-3.976v-22.025l-5.78-3.977-5.78 3.977zm5.78 6.417c-.218 0-.436-.066-.624-.195l-6.884-4.734c-.3-.206-.478-.545-.478-.91v-23.18c0-.364.178-.703.478-.91l6.884-4.734c.376-.26.873-.26 1.25 0l6.882 4.735c.3.205.48.544.48.908v23.181c0 .365-.18.704-.48.91l-6.883 4.735c-.188.13-.406.194-.625.194"/><path d="m191.52 54.893-12.976 8.924-12.975-8.924v-25.37l12.974-8.924 12.975 8.923v25.37z" fill="#e73c60"/><path d="m166.67 54.313 11.873 8.166 11.873-8.167v-24.21l-11.873-8.166-11.872 8.166v24.21zm11.873 10.607c-.218 0-.436-.065-.624-.194l-12.976-8.924c-.3-.206-.478-.546-.478-.91v-25.37c0-.362.178-.702.478-.908l12.975-8.924c.375-.26.872-.26 1.248 0l12.976 8.924c.3.206.478.546.478.91v25.37c0 .362-.178.702-.478.908l-12.976 8.924c-.188.13-.406.194-.625.194"/><path d="m177.83 111.91v25.14l12.976 8.924 12.975-8.925v-25.14l-12.974 8.924-12.976-8.924z" fill="#e73c60"/><path d="m178.933 136.47 11.872 8.165 11.873-8.165v-22.463l-11.248 7.736c-.376.258-.873.258-1.25 0l-11.247-7.736zm11.872 10.606c-.218 0-.436-.064-.624-.193l-12.974-8.925c-.3-.206-.478-.545-.478-.91v-25.138c0-.41.226-.786.59-.976.362-.192.8-.165 1.137.067l12.35 8.495 12.35-8.494c.336-.23.776-.258 1.14-.066.36.19.588.567.588.976v25.14c0 .363-.178.702-.478.908l-12.975 8.925c-.188.13-.406.193-.625.193"/><path d="m177.83 111.68v.23l12.976 8.924 12.975-8.924v-.23l-12.974-8.924-12.976 8.924z" fill="#e73c60"/><path d="m179.61 111.795 11.195 7.7 11.196-7.7-11.195-7.7-11.195 7.7zm11.195 10.14c-.218 0-.436-.063-.624-.193l-12.974-8.923c-.3-.207-.478-.547-.478-.91v-.23c0-.363.18-.703.478-.91l12.975-8.923c.377-.26.874-.26 1.25 0l12.975 8.924c.3.207.48.547.48.91v.23c0 .363-.18.703-.48.91l-12.975 8.922c-.188.13-.406.194-.625.194"/><path d="m163.15 139.332v4.518l14.34 9.863 14.34-9.863v-10.278l-14.34 9.862z" fill="#e73c60"/><path d="m164.254 143.27 13.236 9.104 13.237-9.104v-7.6l-12.612 8.673c-.27.186-.613.24-.927.15l-12.934-3.698zm13.236 11.545c-.218 0-.436-.064-.624-.193l-14.34-9.863c-.3-.207-.478-.546-.478-.91v-4.518c0-.346.163-.672.44-.88.275-.21.633-.276.966-.18l13.84 3.96 13.91-9.568c.34-.233.776-.26 1.138-.067.364.19.59.566.59.975v10.278c0 .364-.18.703-.478.91l-14.34 9.862c-.187.13-.405.193-.624.193"/><path d="m163.15 138.163v.66l14.34 9.863 14.34-15.113v-.255l-14.34-9.862z" fill="#e73c60"/><path d="m164.47 138.392 12.87 8.85 12.947-13.646-12.656-8.705-13.16 13.502zm13.02 11.396c-.217 0-.435-.063-.625-.193l-14.338-9.862c-.3-.207-.48-.546-.48-.91v-.66c0-.288.114-.563.314-.77l14.34-14.707c.376-.384.973-.442 1.415-.14l14.34 9.864c.3.206.477.545.477.91v.252c0 .283-.108.554-.303.76l-14.34 15.112c-.214.228-.506.344-.8.344"/><path d="m197.69 109.55-6.885 4.734-6.883-4.734v-23.184l6.883-4.734 6.884 4.734v23.184z" fill="#e73c60"/><path d="m185.025 108.97 5.78 3.976 5.78-3.976v-22.024l-5.78-3.976-5.78 3.976zm5.78 6.418c-.218 0-.436-.065-.624-.194l-6.883-4.735c-.3-.207-.478-.546-.478-.91v-23.183c0-.363.178-.703.477-.908l6.884-4.735c.377-.26.874-.26 1.25 0l6.883 4.735c.3.205.48.545.48.908v23.184c0 .364-.18.703-.48.91l-6.883 4.734c-.188.13-.406.194-.625.194"/><path d="m198 125.065v25.14l12.975 8.924 12.976-8.926v-25.14l-12.975 8.924z" fill="#e73c60"/><path d="m199.103 149.624 11.873 8.166 11.872-8.166v-22.462l-11.248 7.736c-.376.258-.873.258-1.25 0l-11.247-7.736zm11.873 10.607c-.22 0-.437-.064-.625-.193l-12.974-8.924c-.3-.206-.478-.545-.478-.91v-25.138c0-.41.227-.786.59-.976.362-.193.8-.166 1.138.066l12.35 8.494 12.35-8.494c.336-.232.775-.26 1.138-.067.363.19.59.566.59.975v25.14c0 .363-.18.702-.48.908l-12.974 8.924c-.188.13-.406.194-.624.194"/><path d="m198 124.834v.23l12.975 8.924 12.976-8.923v-.23l-12.975-8.924-12.976 8.924z" fill="#e73c60"/><path d="m199.78 124.95 11.195 7.7 11.197-7.7-11.197-7.7-11.196 7.7zm11.195 10.142c-.218 0-.436-.065-.624-.194l-12.974-8.924c-.3-.206-.478-.546-.478-.91v-.23c0-.363.18-.702.478-.91l12.975-8.922c.377-.26.874-.26 1.25 0l12.975 8.923c.3.207.48.546.48.91v.23c0 .363-.18.703-.48.91l-12.975 8.923c-.188.13-.406.194-.625.194"/><path d="m217.86 122.705-6.885 4.734-6.883-4.735v-23.184l6.883-4.733 6.884 4.734v23.185z" fill="#e73c60"/><path d="m205.194 122.125 5.78 3.976 5.782-3.975v-22.026l-5.78-3.976-5.782 3.976zm5.78 6.417c-.217 0-.435-.065-.623-.194l-6.883-4.734c-.3-.206-.478-.545-.478-.91v-23.182c0-.363.177-.702.477-.908l6.884-4.735c.377-.258.874-.258 1.25 0l6.883 4.735c.3.206.48.545.48.91v23.183c0 .364-.18.703-.48.91l-6.883 4.733c-.188.13-.406.194-.625.194"/><path d="m183.98 25.008-11.212 7.71v47.425l39.228 26.43 11.214-7.712v-47.423z" fill="#e73c60"/><path d="m173.87 79.556 38.12 25.683 10.117-6.96v-46.255l-38.12-25.682-10.117 6.958zm38.127 28.12c-.215 0-.43-.063-.616-.188l-39.23-26.43c-.303-.205-.485-.548-.485-.915v-47.423c0-.363.178-.703.478-.91l11.213-7.71c.374-.258.866-.26 1.24-.007l39.23 26.43c.304.205.486.548.486.915v47.422c0 .364-.178.704-.478.91l-11.213 7.712c-.187.13-.405.194-.623.194"/><path d="m203.21 11.986-3.864-.882-9.55 11.692v11.254l3.865.885 9.55-16.976v-5.974z" fill="#e73c60"/><path d="m190.9 33.172 2.204.504 9.004-16.006v-4.804l-2.34-.536-8.87 10.86v9.982zm2.76 2.866c-.08 0-.162-.01-.245-.028l-3.865-.883c-.502-.115-.857-.56-.857-1.076v-11.253c0-.255.088-.502.25-.698l9.548-11.694c.267-.326.694-.47 1.102-.378l3.864.883c.503.116.858.562.858 1.076v5.973c0 .19-.05.374-.142.54l-9.55 16.975c-.198.353-.57.563-.96.563"/><path d="m193.66 24.493-3.864-1.697" fill="#e73c60"/><path d="m193.218 25.503-3.865-1.697.886-2.02 3.864 1.697-.886 2.02z"/><path d="m193.66 34.934v-10.44l9.55-11.458" fill="#e73c60"/><path d="m194.764 34.935h-2.206v-10.442c0-.258.09-.508.256-.706l9.55-11.457 1.694 1.413-9.294 11.15z"/><path d="m208.152 32.64-9.55-6.57-9.55 6.57v11.254l9.55 6.57 9.55-6.57z" fill="#e73c60"/><path d="m190.154 43.314 8.448 5.81 8.447-5.81v-10.094l-8.448-5.81-8.448 5.81v10.094zm8.448 8.25c-.22 0-.437-.063-.625-.193l-9.55-6.567c-.3-.206-.48-.546-.48-.91v-11.254c0-.364.18-.704.48-.91l9.55-6.568c.376-.26.873-.26 1.25 0l9.55 6.57c.298.204.477.544.477.907v11.254c0 .363-.18.703-.478.91l-9.55 6.567c-.188.13-.406.195-.624.195"/><path d="m202.924 25.925-6.88-4.732-6.88 12.84 6.88 4.73 6.88-4.73z" fill="#e73c60"/><path d="m190.603 33.683 5.442 3.742 5.776-3.973v-6.947l-5.385-3.705-5.832 10.883zm5.442 6.183c-.22 0-.437-.064-.625-.194l-6.88-4.73c-.463-.32-.613-.935-.347-1.43l6.88-12.84c.148-.276.407-.476.712-.55.302-.075.626-.015.885.163l6.88 4.73c.298.207.477.547.477.91v8.107c0 .363-.18.703-.478.91l-6.88 4.73c-.19.13-.407.194-.625.194"/><path d="m189.417 33.17 9.856 6.57v11.104l-9.856-6.568z" fill="#e73c60"/><path d="m190.52 43.686 7.65 5.098v-8.454l-7.65-5.1zm8.753 8.26c-.213 0-.427-.06-.61-.184l-9.858-6.568c-.307-.204-.49-.55-.49-.918v-11.106c0-.406.223-.78.58-.97.36-.193.796-.172 1.134.053l9.855 6.568c.307.206.492.55.492.92v11.104c0 .407-.225.78-.583.973-.163.087-.342.13-.52.13"/><path d="m190.27 38.206 6.086 4.055-1.802 2.86-2.98-1.86-1.305-5.054z" fill="#e73c60"/><path d="m192.532 42.56 1.675 1.044.643-1.02-2.793-1.86.475 1.835zm2.022 3.664c-.2 0-.402-.054-.583-.167l-2.98-1.86c-.24-.15-.413-.387-.484-.66l-1.307-5.057c-.113-.443.058-.91.43-1.175.373-.264.87-.273 1.25-.02l6.087 4.057c.498.33.64 1 .322 1.506l-1.802 2.86c-.21.332-.568.514-.934.514"/><path d="m220.568 21.43-3.587-1.69-11.83 9.38-2.407 10.993 3.586 1.69 12.96-14.54 1.278-5.834z" fill="#e73c60"/><path d="m204.008 39.49 2.046.963 12.22-13.708 1.03-4.693-2.174-1.023-10.987 8.71-2.135 9.75zm2.32 3.415c-.158 0-.318-.034-.468-.105l-3.587-1.69c-.466-.218-.717-.73-.607-1.233l2.408-10.994c.053-.25.192-.47.392-.63l11.83-9.378c.328-.26.777-.312 1.155-.133l3.588 1.69c.466.218.718.73.607 1.232l-1.278 5.835c-.04.184-.128.356-.253.497l-12.96 14.54c-.216.24-.518.368-.826.368"/><path d="m208.563 31.603-3.413-2.484" fill="#e73c60"/><path d="m207.914 32.494-3.414-2.484 1.3-1.783 3.412 2.484-1.298 1.784z"/><path d="m206.33 41.802 2.232-10.2 11.78-9.147" fill="#e73c60"/><path d="m207.406 42.038-2.154-.472 2.234-10.2c.055-.25.197-.476.4-.635l11.78-9.146 1.354 1.74-11.466 8.905z"/><path d="m182.475 155.006v4.518l14.338 9.862 14.34-9.862v-10.278l-14.34 9.862z" fill="#e73c60"/><path d="m183.577 158.944 13.237 9.103 13.236-9.103v-7.6l-12.612 8.673c-.27.186-.613.24-.927.15l-12.933-3.7v2.477zm13.237 11.544c-.218 0-.437-.064-.625-.193l-14.34-9.862c-.3-.207-.478-.546-.478-.91v-4.518c0-.345.162-.672.44-.88.275-.21.63-.276.966-.18l13.84 3.96 13.91-9.568c.338-.233.776-.26 1.138-.067.363.19.59.566.59.975v10.28c0 .362-.18.7-.478.908l-14.34 9.862c-.188.13-.406.193-.624.193"/><path d="m182.475 153.836v.66l14.338 9.863 14.34-15.114v-.255l-14.34-9.86z" fill="#e73c60"/><path d="m183.792 154.065 12.87 8.85 12.948-13.645-12.656-8.706-13.162 13.5zm13.02 11.397c-.215 0-.434-.064-.623-.194l-14.34-9.862c-.3-.206-.48-.545-.48-.91v-.66c0-.288.115-.563.315-.77l14.34-14.707c.375-.386.97-.444 1.413-.14l14.34 9.863c.3.206.478.545.478.91v.252c0 .283-.11.555-.304.76l-14.338 15.113c-.215.227-.507.344-.8.344"/><path d="m172.768 32.72 47.617 31.534-36.217-4.147z" fill="#e73c60"/><path d="m184.937 59.085 31.006 3.55-40.766-26.997zm35.45 6.272c-.043 0-.086-.002-.128-.007l-36.217-4.147c-.398-.045-.74-.303-.893-.672l-11.4-27.386c-.187-.448-.06-.966.315-1.275.375-.31.907-.337 1.31-.07l47.62 31.534c.424.282.6.818.426 1.298-.16.44-.576.725-1.034.725"/><path d="m229.077 111.138-6.884 4.735-6.884-4.735v-42.924l6.883-4.734 6.884 4.734v42.924z" fill="#e73c60"/><path d="m216.412 110.558 5.78 3.976 5.782-3.976v-41.764l-5.78-3.976-5.782 3.976zm5.78 6.418c-.218 0-.436-.065-.624-.194l-6.883-4.735c-.3-.206-.478-.545-.478-.91v-42.922c0-.363.178-.703.478-.908l6.883-4.735c.376-.258.873-.258 1.25 0l6.883 4.736c.3.205.48.545.48.908v42.924c0 .364-.18.703-.48.91l-6.883 4.734c-.188.13-.406.194-.624.194"/><path d="m235.168 75.54-12.975 8.925-12.975-8.924v-25.371l12.975-8.923 12.975 8.924v25.37z" fill="#e73c60"/><path d="m210.32 74.96 11.873 8.166 11.872-8.165v-24.211l-11.872-8.165-11.872 8.166v24.21zm11.873 10.607c-.218 0-.437-.064-.625-.194l-12.975-8.923c-.3-.206-.478-.546-.478-.91v-25.37c0-.362.178-.702.478-.908l12.975-8.924c.376-.26.873-.26 1.25 0l12.974 8.924c.3.206.478.546.478.91v25.37c0 .362-.178.702-.478.908l-12.975 8.923c-.188.13-.406.194-.624.194"/><path d="m235.168 50.16-12.975 8.922-12.975-8.923" fill="#e73c60"/><path d="m222.193 60.185c-.218 0-.437-.065-.625-.194l-12.975-8.923 1.25-1.817 12.35 8.494 12.35-8.494 1.25 1.817-12.976 8.924c-.188.13-.406.195-.624.195m-12.32 73.803h2.205v24.67h-2.205zm-19.475-14.023h2.205v24.67h-2.205z"/><path d="m221.063 59.95h2.205v24.67h-2.205z"/><path d="m184.168 60.107 5.25-15.83" fill="#e73c60"/><path d="m185.215 60.454-2.094-.694 5.25-15.83 2.093.694-5.248 15.83z"/><path d="m228.333 145.472c0 5.076-2.67 9.19-5.96 9.19-3.293 0-5.962-4.114-5.962-9.19 0-5.075 2.67-9.19 5.962-9.19s5.96 4.115 5.96 9.19" fill="#e73c60"/><path d="m222.372 137.385c-2.633 0-4.858 3.703-4.858 8.088 0 4.383 2.225 8.086 4.858 8.086 2.634 0 4.858-3.704 4.858-8.087 0-4.385-2.224-8.088-4.858-8.088m0 18.38c-3.96 0-7.064-4.52-7.064-10.292s3.103-10.293 7.064-10.293c3.96 0 7.064 4.52 7.064 10.293 0 5.77-3.103 10.292-7.064 10.292"/><path d="m138.626 89.432 6.884 4.734 6.883-4.734v-23.184l-6.883-4.734-6.884 4.734z" fill="#3db47a"/><path d="m139.73 88.852 5.78 3.976 5.78-3.976v-22.024l-5.78-3.976-5.78 3.976zm5.78 6.418c-.218 0-.437-.065-.625-.194l-6.883-4.735c-.3-.205-.478-.544-.478-.908v-23.185c0-.363.178-.703.478-.908l6.883-4.735c.376-.26.873-.26 1.25 0l6.883 4.735c.3.205.478.545.478.908v23.184c0 .364-.178.703-.478.91l-6.884 4.734c-.188.13-.406.194-.624.194"/><path d="m138.12 73.1 8.865 6.098 8.866-6.098v-4.776l-8.865-6.098-8.866 6.098z" fill="#3db47a"/><path d="m139.222 72.52 7.763 5.34 7.762-5.34v-3.616l-7.762-5.34-7.763 5.34zm7.763 7.78c-.218 0-.437-.064-.625-.193l-8.866-6.098c-.3-.207-.478-.547-.478-.91v-4.776c0-.364.178-.703.478-.91l8.866-6.096c.376-.26.873-.26 1.25 0l8.865 6.097c.3.206.48.545.48.91v4.776c0 .363-.18.703-.48.91l-8.866 6.097c-.19.13-.407.194-.625.194"/><path d="m138.626 66.582 6.884 4.734 6.883-4.734v-23.185l-6.883-4.734-6.884 4.734z" fill="#3db47a"/><path d="m139.73 66.002 5.78 3.976 5.78-3.976v-22.025l-5.78-3.977-5.78 3.977zm5.78 6.417c-.218 0-.437-.066-.625-.195l-6.883-4.734c-.3-.206-.478-.545-.478-.91v-23.18c0-.364.178-.703.478-.91l6.883-4.734c.376-.26.873-.26 1.25 0l6.883 4.735c.3.205.478.544.478.908v23.181c0 .365-.178.704-.478.91l-6.884 4.735c-.188.13-.406.194-.624.194"/><path d="m128.48 54.893 12.976 8.924 12.975-8.924v-25.37l-12.974-8.923-12.975 8.923v25.37z" fill="#3db47a"/><path d="m129.584 54.313 11.872 8.166 11.872-8.167v-24.21l-11.872-8.166-11.872 8.166v24.21zm11.872 10.607c-.218 0-.436-.065-.624-.194l-12.976-8.924c-.3-.206-.478-.546-.478-.91v-25.37c0-.362.18-.702.478-.908l12.976-8.924c.376-.26.872-.26 1.248 0l12.976 8.924c.3.206.477.546.477.91v25.37c0 .362-.178.702-.477.908l-12.976 8.924c-.188.13-.406.194-.624.194"/><path d="m142.17 111.91v25.14l-12.976 8.924-12.975-8.925v-25.14l12.974 8.924 12.975-8.924z" fill="#3db47a"/><path d="m117.322 136.47 11.872 8.165 11.873-8.165v-22.463l-11.25 7.736c-.375.258-.87.258-1.247 0l-11.248-7.736zm11.872 10.606c-.218 0-.436-.064-.624-.193l-12.976-8.925c-.3-.206-.477-.545-.477-.91v-25.138c0-.41.226-.786.588-.976.364-.192.8-.165 1.14.067l12.35 8.495 12.35-8.494c.337-.23.775-.258 1.138-.066.363.19.59.567.59.976v25.14c0 .363-.18.702-.48.908l-12.975 8.925c-.188.13-.406.193-.624.193"/><path d="m142.17 111.68v.23l-12.976 8.924-12.975-8.924v-.23l12.974-8.924 12.975 8.924z" fill="#3db47a"/><path d="m117.998 111.795 11.196 7.7 11.196-7.7-11.196-7.7zm11.196 10.14c-.218 0-.437-.063-.625-.193l-12.976-8.923c-.3-.207-.478-.547-.478-.91v-.23c0-.363.18-.703.478-.91l12.975-8.923c.375-.26.872-.26 1.25 0l12.974 8.924c.3.207.48.547.48.91v.23c0 .363-.18.703-.48.91l-12.975 8.922c-.19.13-.408.194-.626.194"/><path d="m156.85 139.332v4.518l-14.34 9.863-14.34-9.863v-10.278l14.34 9.862z" fill="#3db47a"/><path d="m129.274 143.27 13.236 9.104 13.236-9.104v-2.475l-12.933 3.7c-.316.088-.658.034-.928-.152l-12.61-8.673v7.6zm13.236 11.545c-.218 0-.436-.064-.625-.193l-14.34-9.863c-.298-.207-.477-.546-.477-.91v-10.278c0-.41.227-.785.59-.975.363-.192.8-.166 1.138.067l13.91 9.567 13.84-3.96c.33-.094.69-.027.967.182.276.208.438.534.438.88v4.518c0 .364-.178.703-.477.91l-14.338 9.862c-.188.13-.407.193-.625.193"/><path d="m156.85 138.163v.66l-14.34 9.863-14.34-15.113v-.255l14.34-9.862z" fill="#3db47a"/><path d="m129.713 133.596 12.95 13.647 12.868-8.852-13.16-13.5-12.657 8.706zm12.798 16.192c-.294 0-.585-.117-.8-.344l-14.34-15.112c-.194-.205-.302-.478-.302-.76v-.254c0-.363.178-.703.478-.91l14.34-9.86c.442-.304 1.04-.246 1.414.138l14.338 14.708c.2.206.313.482.313.77v.66c0 .363-.178.703-.477.91l-14.338 9.86c-.19.13-.408.194-.624.194"/><path d="m122.31 109.55 6.884 4.734 6.884-4.734v-23.184l-6.884-4.734-6.883 4.734v23.184z" fill="#3db47a"/><path d="m123.414 108.97 5.78 3.976 5.78-3.976v-22.024l-5.78-3.976-5.78 3.976zm5.78 6.418c-.218 0-.436-.065-.624-.194l-6.884-4.735c-.3-.207-.478-.546-.478-.91v-23.183c0-.363.178-.703.478-.908l6.884-4.735c.376-.26.872-.26 1.248 0l6.885 4.735c.3.205.478.545.478.908v23.184c0 .364-.177.703-.477.91l-6.885 4.734c-.188.13-.406.194-.624.194"/><path d="m122 125.065v25.14l-12.976 8.924-12.975-8.926v-25.14l12.974 8.924z" fill="#3db47a"/><path d="m97.153 149.624 11.872 8.166 11.872-8.166v-22.462l-11.248 7.736c-.377.258-.874.258-1.25 0l-11.247-7.736v22.462zm11.872 10.607c-.218 0-.437-.064-.625-.193l-12.975-8.924c-.3-.206-.478-.545-.478-.91v-25.138c0-.41.227-.786.59-.976.362-.193.8-.166 1.138.066l12.35 8.494 12.35-8.494c.337-.232.775-.26 1.138-.067.363.19.59.566.59.975v25.14c0 .363-.18.702-.48.908l-12.974 8.924c-.19.13-.407.194-.625.194"/><path d="m122 124.834v.23l-12.976 8.924-12.975-8.923v-.23l12.974-8.924 12.977 8.924z" fill="#3db47a"/><path d="m97.828 124.95 11.197 7.7 11.196-7.7-11.195-7.7-11.197 7.7zm11.197 10.142c-.22 0-.437-.065-.625-.194l-12.975-8.924c-.3-.206-.478-.546-.478-.91v-.23c0-.363.18-.702.478-.91l12.975-8.922c.376-.26.873-.26 1.25 0l12.974 8.923c.3.207.48.546.48.91v.23c0 .363-.18.703-.48.91l-12.974 8.923c-.19.13-.407.194-.625.194"/><path d="m102.14 122.705 6.885 4.734 6.883-4.735v-23.184l-6.883-4.733-6.884 4.734v23.185z" fill="#3db47a"/><path d="m103.243 122.125 5.782 3.976 5.78-3.975v-22.026l-5.78-3.976-5.782 3.976zm5.782 6.417c-.218 0-.437-.065-.625-.194l-6.884-4.734c-.3-.206-.478-.545-.478-.91v-23.182c0-.363.178-.702.478-.908l6.884-4.735c.376-.258.873-.258 1.25 0l6.883 4.735c.3.206.478.545.478.91v23.183c0 .364-.178.703-.477.91l-6.884 4.733c-.19.13-.407.194-.625.194"/><path d="m136.02 25.008 11.212 7.71v51.078l-39.228 26.43-11.214-7.713v-51.076l39.23-26.43z" fill="#3db47a"/><path d="m97.893 101.933 10.117 6.958 38.12-25.68v-49.911l-10.117-6.958-38.12 25.682v49.91zm10.11 9.395c-.218 0-.436-.064-.624-.194l-11.215-7.712c-.3-.206-.477-.545-.477-.91v-51.072c0-.367.18-.71.486-.916l39.23-26.43c.375-.25.867-.25 1.24.007l11.213 7.71c.3.207.478.547.478.91v51.075c0 .367-.182.71-.486.915l-39.23 26.43c-.186.125-.4.188-.616.188"/><path d="m116.79 11.986 3.864-.882 9.55 11.692v11.254l-3.865.885-9.55-16.976v-5.974z" fill="#3db47a"/><path d="m117.89 17.67 9.007 16.006 2.204-.504v-9.982l-8.868-10.86-2.34.536v4.804zm8.45 18.368c-.392 0-.763-.21-.962-.563l-9.55-16.975c-.094-.166-.142-.35-.142-.54v-5.974c0-.514.355-.96.857-1.075l3.865-.882c.407-.093.833.052 1.1.378l9.55 11.693c.16.196.25.442.25.697v11.253c0 .516-.357.962-.86 1.077l-3.863.883c-.082.018-.165.028-.246.028"/><path d="m126.34 24.493 3.864-1.697" fill="#3db47a"/><path d="m126.782 25.503-.885-2.02 3.864-1.696.887 2.02-3.865 1.696z"/><path d="m126.34 34.934v-10.44l-9.55-11.458" fill="#3db47a"/><path d="m127.442 34.935h-2.205v-10.042l-9.295-11.15 1.694-1.413 9.55 11.457c.166.198.256.448.256.706z"/><path d="m111.848 32.64 9.55-6.57 9.55 6.57v11.254l-9.55 6.57-9.55-6.57z" fill="#3db47a"/><path d="m112.95 43.314 8.45 5.81 8.446-5.81v-10.094l-8.447-5.81-8.45 5.81v10.094zm8.45 8.25c-.22 0-.438-.063-.626-.193l-9.55-6.567c-.3-.206-.48-.546-.48-.91v-11.254c0-.364.18-.704.48-.91l9.55-6.568c.376-.26.873-.26 1.25 0l9.55 6.57c.3.204.478.544.478.907v11.254c0 .363-.18.703-.478.91l-9.55 6.567c-.19.13-.407.195-.625.195"/><path d="m117.076 25.925 6.88-4.732 6.88 12.84-6.88 4.73-6.88-4.73z" fill="#3db47a"/><path d="m118.18 33.452 5.775 3.974 5.442-3.743-5.83-10.883-5.388 3.705v6.947zm5.775 6.415c-.218 0-.436-.065-.624-.194l-6.88-4.732c-.3-.205-.477-.545-.477-.908v-8.107c0-.363.178-.703.478-.91l6.88-4.73c.258-.178.58-.238.886-.163.305.074.564.274.712.55l6.88 12.84c.265.495.114 1.11-.35 1.43l-6.878 4.73c-.188.13-.407.195-.625.195"/><path d="m130.583 33.17-9.856 6.57v11.104l9.856-6.568z" fill="#3db47a"/><path d="m121.83 40.33v8.454l7.65-5.098v-8.456zm-1.104 11.617c-.178 0-.357-.043-.52-.13-.358-.193-.582-.566-.582-.973v-11.104c0-.37.184-.714.49-.92l9.857-6.567c.34-.225.776-.246 1.134-.054.357.19.582.565.582.97v11.106c0 .37-.185.714-.492.918l-9.855 6.568c-.186.123-.4.185-.614.185"/><path d="m129.73 38.206-6.086 4.055 1.802 2.86 2.98-1.86 1.305-5.054z" fill="#3db47a"/><path d="m125.15 42.583.643 1.02 1.675-1.045.474-1.834-2.792 1.86zm.296 3.64c-.366 0-.725-.182-.934-.514l-1.8-2.86c-.32-.507-.176-1.175.32-1.506l6.087-4.056c.38-.253.877-.245 1.25.02.372.264.542.73.428 1.174l-1.305 5.054c-.07.274-.243.51-.484.66l-2.98 1.86c-.183.114-.384.168-.584.168"/><path d="m99.432 21.43 3.587-1.69 11.83 9.38 2.407 10.993-3.586 1.69-12.96-14.54-1.278-5.834z" fill="#3db47a"/><path d="m101.725 26.745 12.22 13.708 2.047-.963-2.136-9.75-10.987-8.712-2.173 1.024 1.028 4.693zm11.947 16.16c-.308 0-.61-.128-.825-.37l-12.96-14.538c-.127-.14-.214-.313-.254-.498l-1.278-5.835c-.11-.503.142-1.014.607-1.234l3.587-1.688c.378-.18.826-.127 1.154.133l11.83 9.38c.2.157.34.38.392.628l2.408 10.994c.11.503-.14 1.015-.607 1.234l-3.586 1.69c-.15.07-.31.105-.468.105"/><path d="m111.437 31.603 3.413-2.484" fill="#3db47a"/><path d="m112.086 32.494-1.298-1.783 3.412-2.483 1.298 1.783-3.412 2.484z"/><path d="m113.67 41.802-2.233-10.2-11.78-9.147" fill="#3db47a"/><path d="m112.594 42.038-2.148-9.81-11.465-8.903 1.353-1.74 11.78 9.146c.205.16.347.385.4.636l2.235 10.2-2.154.472z"/><path d="m137.525 155.006v4.518l-14.34 9.862-14.338-9.862v-10.278l14.34 9.862z" fill="#3db47a"/><path d="m109.95 158.944 13.236 9.103 13.236-9.103v-2.476l-12.933 3.7c-.316.09-.66.034-.928-.15l-12.612-8.675v7.6zm13.236 11.544c-.218 0-.436-.064-.624-.193l-14.34-9.862c-.3-.207-.478-.546-.478-.91v-10.278c0-.41.227-.785.59-.975.362-.192.8-.166 1.138.067l13.91 9.567 13.84-3.96c.33-.095.69-.028.967.18.275.21.438.536.438.88v4.52c0 .363-.18.702-.478.91l-14.34 9.86c-.188.13-.406.194-.624.194"/><path d="m137.525 153.836v.66l-14.34 9.863-14.338-15.114v-.255l14.34-9.86z" fill="#3db47a"/><path d="m110.39 149.27 12.947 13.646 12.87-8.852-13.162-13.5-12.656 8.705zm12.797 16.192c-.295 0-.586-.117-.8-.345l-14.34-15.112c-.195-.205-.303-.477-.303-.76v-.254c0-.362.178-.7.478-.908l14.34-9.862c.44-.303 1.04-.245 1.414.14l14.34 14.707c.2.205.312.482.312.77v.66c0 .363-.18.703-.478.91l-14.34 9.86c-.19.13-.407.195-.623.195"/><path d="m99.395 88.974-.018 8.354 7.796 3.006 34.487-23.344.017-8.355-7.795-3.006-34.487 23.344z" fill="#3db47a"/><path d="m100.482 96.573 6.55 2.525 33.525-22.695.016-7.012-6.55-2.524-33.526 22.694-.015 7.013zm6.69 4.864c-.134 0-.268-.025-.397-.074l-7.794-3.006c-.425-.164-.706-.574-.705-1.03l.018-8.355c0-.366.182-.707.484-.912l34.487-23.344c.3-.202.678-.245 1.015-.116l7.794 3.006c.426.164.707.574.706 1.03l-.018 8.356c0 .365-.183.706-.485.91l-34.487 23.348c-.185.124-.4.19-.618.19"/><path d="m124.578 74.355 7.794 3.117-.016 8.243 3.715-3.137.02-8.355-7.797-3.005-3.715 3.137z" fill="#3db47a"/><path d="m126.693 74.013 6.09 2.436c.42.167.694.573.693 1.025l-.013 5.862 1.507-1.273.015-7.085-6.48-2.5-1.812 1.533zm5.662 12.805c-.157 0-.316-.034-.465-.103-.39-.182-.638-.573-.638-1.002l.016-7.494-7.1-2.84c-.36-.145-.616-.467-.678-.85-.062-.38.08-.768.377-1.018l3.715-3.137c.308-.26.73-.332 1.108-.187l7.796 3.006c.426.165.707.575.706 1.032l-.018 8.354c0 .324-.144.63-.39.84l-3.717 3.137c-.204.172-.456.26-.712.26"/><path d="m119.506 75.178 7.18 2.488 6.407-4.215v-3.115l-7.41-2.52-6.177 4.248v3.115z" fill="#3db47a"/><path d="m120.61 74.393 5.925 2.053 5.455-3.59v-1.73l-6.14-2.09-5.24 3.607zm6.078 4.376c-.122 0-.244-.02-.362-.062l-7.18-2.488c-.445-.154-.742-.572-.742-1.042v-3.115c0-.363.178-.703.477-.91l6.178-4.247c.286-.197.65-.248.98-.135l7.41 2.52c.446.153.748.573.748 1.046v3.115c0 .372-.187.718-.497.922l-6.407 4.215c-.18.12-.393.182-.605.182"/><path d="m86.695 100.162 12.975 8.924 12.975-8.924v-6.99l-12.975-8.924-12.975 8.924z" fill="#3db47a"/><path d="m87.797 99.582 11.872 8.165 11.872-8.165v-5.83l-11.871-8.165-11.873 8.165zm11.872 10.606c-.22 0-.437-.064-.625-.193l-12.974-8.925c-.3-.205-.478-.544-.478-.908v-6.99c0-.363.178-.703.478-.91l12.975-8.922c.376-.26.873-.26 1.25 0l12.975 8.923c.3.206.477.546.477.91v6.99c0 .363-.178.702-.477.908l-12.976 8.925c-.188.13-.407.193-.625.193"/><path d="m147.232 32.72-47.617 31.534 36.217-4.147z" fill="#3db47a"/><path d="m144.823 35.638-40.767 26.997 31.007-3.55zm-45.21 29.72c-.458 0-.874-.287-1.034-.726-.176-.48 0-1.016.426-1.297l47.618-31.535c.404-.267.937-.24 1.31.07.376.31.504.826.318 1.274l-11.4 27.387c-.154.37-.496.627-.892.673l-36.219 4.146c-.042.005-.085.007-.126.007"/><path d="m90.923 91.4 6.884 4.733 6.883-4.734v-23.186l-6.883-4.734-6.884 4.734z" fill="#3db47a"/><path d="m92.026 90.818 5.78 3.976 5.78-3.976v-22.024l-5.78-3.976-5.78 3.976zm5.78 6.418c-.217 0-.436-.065-.624-.194l-6.882-4.735c-.3-.206-.48-.545-.48-.91v-23.182c0-.363.18-.702.48-.91l6.882-4.733c.376-.258.873-.258 1.25 0l6.883 4.735c.3.207.478.546.478.91v23.183c0 .364-.18.703-.478.91l-6.885 4.73c-.187.13-.405.194-.623.194"/><path d="m84.832 75.54 12.975 8.925 12.975-8.924v-25.371l-12.975-8.923-12.975 8.924v25.37z" fill="#3db47a"/><path d="m85.935 74.96 11.872 8.166 11.872-8.165v-24.211l-11.873-8.165-11.872 8.166v24.21zm11.872 10.607c-.218 0-.437-.064-.625-.194l-12.975-8.923c-.3-.206-.478-.546-.478-.91v-25.37c0-.362.177-.702.477-.908l12.975-8.924c.376-.26.873-.26 1.25 0l12.974 8.924c.3.206.478.546.478.91v25.37c0 .362-.178.702-.478.908l-12.975 8.923c-.187.13-.405.194-.623.194"/><path d="m84.832 50.16 12.975 8.922 12.975-8.923" fill="#3db47a"/><path d="m97.807 60.185c-.218 0-.437-.065-.625-.194l-12.975-8.923 1.25-1.817 12.35 8.494 12.35-8.494 1.25 1.817-12.977 8.922c-.187.13-.405.195-.623.195m10.115 73.805h2.205v24.67h-2.205zm19.474-14.023h2.205v24.67h-2.204z"/><path d="m96.73 59.95h2.206v24.67h-2.206z"/><path d="m135.832 60.107-5.25-15.83" fill="#3db47a"/><path d="m134.785 60.454-5.25-15.83 2.095-.695 5.25 15.83-2.095.694z"/><path d="m91.667 145.472c0 5.076 2.67 9.19 5.96 9.19 3.293 0 5.962-4.114 5.962-9.19 0-5.075-2.67-9.19-5.962-9.19s-5.96 4.115-5.96 9.19" fill="#3db47a"/><path d="m97.628 137.385c-2.634 0-4.86 3.703-4.86 8.088 0 4.383 2.226 8.086 4.86 8.086s4.858-3.704 4.858-8.087c0-4.385-2.224-8.088-4.858-8.088m0 18.38c-3.96 0-7.064-4.52-7.064-10.292s3.103-10.293 7.064-10.293c3.96 0 7.064 4.52 7.064 10.293 0 5.77-3.103 10.292-7.064 10.292"/><path d="m217.943 227.39 6.884 4.735 6.883-4.734v-23.184l-6.883-4.734-6.884 4.734v23.185z" fill="#1677bf"/><path d="m219.046 226.81 5.78 3.977 5.782-3.976v-22.024l-5.78-3.975-5.782 3.976v22.025zm5.78 6.42c-.217 0-.435-.066-.623-.195l-6.885-4.735c-.3-.206-.478-.545-.478-.91v-23.184c0-.363.18-.703.478-.91l6.885-4.732c.376-.26.872-.26 1.248 0l6.885 4.733c.3.206.48.546.48.91v23.184c0 .365-.18.704-.48.91l-6.884 4.735c-.187.13-.405.194-.623.194"/><path d="m217.436 211.06 8.866 6.096 8.866-6.097v-4.778l-8.866-6.097-8.866 6.097v4.777z" fill="#1677bf"/><path d="m218.54 210.48 7.762 5.338 7.763-5.34v-3.615l-7.763-5.34-7.763 5.34v3.616zm7.762 7.78c-.218 0-.436-.065-.625-.194l-8.866-6.098c-.298-.207-.476-.546-.476-.91v-4.775c0-.364.178-.703.477-.91l8.867-6.097c.377-.26.874-.26 1.25 0l8.865 6.098c.3.206.48.545.48.91v4.775c0 .362-.18.7-.48.908l-8.865 6.098c-.188.13-.407.193-.625.193"/><path d="m217.943 204.54 6.884 4.735 6.883-4.735v-23.184l-6.883-4.734-6.884 4.734z" fill="#1677bf"/><path d="m219.046 203.96 5.78 3.976 5.782-3.975v-22.024l-5.78-3.976-5.782 3.976v22.025zm5.78 6.418c-.217 0-.435-.065-.623-.194l-6.885-4.734c-.3-.207-.478-.546-.478-.91v-23.184c0-.363.18-.703.478-.91l6.885-4.733c.376-.26.872-.26 1.248 0l6.885 4.734c.3.206.48.546.48.91v23.183c0 .364-.18.703-.48.91l-6.884 4.734c-.187.13-.405.194-.623.194"/><path d="m207.798 192.852 12.975 8.923 12.976-8.923v-25.37l-12.977-8.925-12.975 8.925v25.37z" fill="#1677bf"/><path d="m208.9 192.272 11.873 8.165 11.872-8.165v-24.21l-11.872-8.166-11.872 8.166v24.21zm11.873 10.606c-.218 0-.436-.064-.624-.193l-12.976-8.924c-.3-.206-.478-.545-.478-.908v-25.37c0-.364.178-.704.478-.91l12.975-8.923c.375-.26.872-.26 1.248 0l12.975 8.922c.3.206.478.546.478.91v25.37c0 .363-.177.702-.477.91l-12.975 8.923c-.188.13-.407.193-.625.193"/><path d="m221.487 261.68v25.138l-12.976 8.925-12.974-8.925v-25.14l12.975 8.925 12.977-8.924z" fill="#1677bf"/><path d="m196.64 286.238 11.87 8.166 11.873-8.166v-22.462l-11.247 7.735c-.376.26-.873.26-1.25 0l-11.247-7.734v22.462zm11.87 10.607c-.217 0-.435-.064-.623-.193l-12.975-8.925c-.3-.206-.478-.545-.478-.91v-25.137c0-.41.226-.787.59-.977.362-.192.8-.165 1.137.067l12.35 8.494 12.35-8.494c.34-.232.777-.26 1.14-.067.362.19.59.567.59.976v25.138c0 .364-.18.703-.48.91l-12.974 8.924c-.188.13-.406.193-.625.193"/><path d="m221.487 261.45v.23l-12.976 8.923-12.974-8.924v-.23l12.975-20.735 12.977 20.734z" fill="#1677bf"/><path d="m196.93 261.3 11.58 7.964 11.582-7.965-11.58-18.507-11.58 18.506zm11.58 10.405c-.217 0-.435-.064-.623-.194l-12.975-8.922c-.3-.206-.478-.546-.478-.91v-.23c0-.206.058-.41.167-.584l12.977-20.735c.2-.323.555-.52.934-.52.38 0 .734.197.936.52l12.975 20.734c.11.175.17.378.17.585v.23c0 .362-.18.702-.48.908l-12.974 8.923c-.188.13-.406.195-.625.195"/><path d="m166.226 289.1v4.52l14.34 9.862 14.338-9.863v-10.28l-14.34 9.863z" fill="#1677bf"/><path d="m167.328 293.04 13.237 9.103 13.236-9.104v-7.602l-12.61 8.675c-.27.186-.613.24-.928.15l-12.934-3.7v2.476zm13.237 11.544c-.218 0-.437-.064-.625-.193l-14.34-9.862c-.3-.206-.477-.545-.477-.91v-4.516c0-.346.162-.672.44-.88.275-.21.63-.276.966-.18l13.838 3.957 13.91-9.568c.338-.23.776-.258 1.14-.067.362.19.59.567.59.976v10.28c0 .363-.18.702-.48.908l-14.34 9.863c-.187.13-.405.194-.623.194"/><path d="m166.226 287.932v.66l14.34 9.863 14.338-15.113v-.255l-14.34-9.862z" fill="#1677bf"/><path d="m167.543 288.16 12.87 8.852 12.948-13.647-12.655-8.705-13.162 13.5zm13.02 11.398c-.215 0-.434-.064-.623-.194l-14.34-9.864c-.3-.205-.478-.544-.478-.908v-.66c0-.288.114-.564.314-.77l14.34-14.706c.375-.385.97-.443 1.413-.14l14.338 9.862c.3.206.48.545.48.91v.253c0 .283-.11.555-.305.76l-14.338 15.114c-.215.226-.507.344-.8.344"/><path d="m201.628 259.32 6.884 4.733 6.883-4.734v-34.995l-6.883-4.734-6.884 4.735v34.994z" fill="#1677bf"/><path d="m202.73 258.74 5.78 3.975 5.783-3.976v-33.835l-5.782-3.976-5.78 3.975v33.834zm5.78 6.417c-.217 0-.435-.065-.623-.194l-6.884-4.735c-.3-.206-.478-.545-.478-.91v-34.993c0-.363.18-.703.478-.91l6.884-4.734c.376-.257.873-.257 1.25 0l6.883 4.736c.3.206.48.546.48.91v34.993c0 .363-.18.702-.48.908l-6.884 4.735c-.188.13-.407.194-.625.194"/><path d="m201.317 274.834v25.14l-12.975 8.924-12.976-8.925v-25.14l12.976 8.924z" fill="#1677bf"/><path d="m176.47 299.393 11.872 8.166 11.872-8.167v-22.462l-11.248 7.737c-.376.258-.872.258-1.248 0l-11.248-7.736v22.463zm11.872 10.607c-.218 0-.436-.064-.624-.193l-12.976-8.925c-.3-.206-.477-.545-.477-.91v-25.138c0-.41.226-.786.588-.976.364-.193.8-.165 1.14.067l12.35 8.494 12.35-8.495c.336-.232.774-.26 1.138-.067.363.19.59.567.59.976v25.14c0 .363-.18.702-.478.908l-12.976 8.925c-.188.13-.406.193-.624.193"/><path d="m201.317 274.603v.23l-12.975 8.924-12.976-8.923v-.23l12.976-8.924z" fill="#1677bf"/><path d="m177.146 274.72 11.196 7.7 11.196-7.7-11.196-7.702-11.196 7.7zm11.196 10.14c-.218 0-.437-.064-.625-.194l-12.975-8.924c-.3-.206-.478-.545-.478-.91v-.23c0-.362.18-.702.478-.908l12.975-8.923c.376-.258.873-.258 1.25 0l12.974 8.924c.3.206.48.546.48.91v.23c0 .363-.18.702-.48.908l-12.973 8.924c-.19.13-.407.194-.625.194"/><path d="m181.458 272.474 6.884 4.734 6.883-4.734v-34.994l-6.883-4.735-6.884 4.734v34.994z" fill="#1677bf"/><path d="m182.56 271.894 5.782 3.976 5.78-3.976v-33.834l-5.78-3.976-5.78 3.976v33.834zm5.782 6.418c-.218 0-.436-.065-.624-.194l-6.885-4.735c-.3-.206-.478-.545-.478-.91v-34.993c0-.363.178-.703.478-.91l6.885-4.734c.376-.258.872-.258 1.248 0l6.884 4.735c.3.207.48.547.48.91v34.994c0 .364-.18.703-.48.91l-6.884 4.734c-.188.13-.406.194-.624.194"/><path d="m215.336 162.966 11.213 7.712v47.422l-39.23 26.43-11.213-7.71v-47.424z" fill="#1677bf"/><path d="m177.21 236.24 10.118 6.957 38.12-25.682v-46.255l-10.12-6.96-38.118 25.683v46.256zm10.11 9.394c-.217 0-.436-.064-.624-.193l-11.213-7.712c-.3-.206-.478-.545-.478-.91v-47.422c0-.367.182-.71.486-.915l39.23-26.428c.375-.254.868-.25 1.24.005l11.214 7.712c.3.205.478.545.478.908v47.424c0 .367-.182.71-.486.914l-39.23 26.43c-.185.126-.4.188-.615.188"/><path d="m189.463 164.598 9.55-6.57 9.55 6.57v11.255l-9.55 6.57-9.55-6.57z" fill="#1677bf"/><path d="m190.566 175.273 8.447 5.81 8.448-5.81v-10.095l-8.447-5.81-8.447 5.81v10.095zm8.447 8.25c-.218 0-.436-.063-.624-.192l-9.552-6.568c-.3-.206-.478-.545-.478-.91v-11.253c0-.363.178-.703.478-.91l9.55-6.567c.377-.258.873-.258 1.25 0l9.55 6.57c.3.205.478.545.478.908v11.255c0 .364-.178.703-.477.91l-9.553 6.568c-.188.13-.406.194-.624.194"/><path d="m208.198 165.13-9.857 6.568v11.105l9.858-6.568v-11.105z" fill="#1677bf"/><path d="m199.444 172.288v8.454l7.65-5.097v-8.455zm-1.103 11.617c-.178 0-.356-.043-.52-.13-.358-.192-.582-.566-.582-.972v-11.106c0-.368.185-.713.49-.917l9.858-6.567c.34-.225.775-.247 1.132-.056.358.192.583.567.583.973v11.105c0 .37-.184.713-.49.918l-9.857 6.567c-.185.123-.398.185-.612.185"/><path d="m226.55 170.678-47.618 31.535" fill="#1677bf"/><path d="m179.54 203.132-1.217-1.84 47.618-31.533 1.218 1.838-47.617 31.534z"/><path d="m170.24 247.744 6.884 4.734 6.884-4.734v-41.57l-6.884-4.736-6.884 4.735v41.57z" fill="#1677bf"/><path d="m171.343 247.164 5.78 3.976 5.78-3.976v-40.41l-5.78-3.977-5.78 3.976v40.41zm5.78 6.418c-.217 0-.435-.065-.623-.194l-6.884-4.735c-.3-.206-.478-.545-.478-.91v-41.57c0-.363.178-.703.478-.91l6.884-4.734c.376-.26.872-.26 1.248 0l6.884 4.734c.3.206.48.546.48.91v41.57c0 .364-.18.703-.48.91l-6.884 4.734c-.188.13-.406.194-.624.194"/><path d="m164.15 213.5 12.974 8.923 12.976-8.923v-25.37l-12.976-8.925-12.975 8.925v25.37z" fill="#1677bf"/><path d="m165.252 212.92 11.872 8.165 11.872-8.166v-24.21l-11.872-8.167-11.872 8.167v24.21zm11.872 10.606c-.218 0-.436-.064-.624-.194l-12.976-8.924c-.3-.206-.478-.545-.478-.91v-25.37c0-.362.18-.702.478-.908l12.976-8.923c.376-.26.872-.26 1.248 0l12.976 8.923c.3.206.477.546.477.91v25.37c0 .363-.177.702-.476.908l-12.976 8.924c-.188.13-.406.194-.624.194"/><path d="m164.15 188.117 12.974 8.924 12.975-8.923" fill="#1677bf"/><path d="m177.124 198.144c-.218 0-.436-.065-.624-.194l-12.976-8.924 1.25-1.818 12.35 8.495 12.35-8.495 1.25 1.818-12.976 8.924c-.188.13-.406.194-.624.194m10.116 85.613h2.205v24.67h-2.205zm19.473-14.021h2.205v24.67h-2.205z"/><path d="m176.048 197.907h2.205v24.672h-2.205z"/><path d="m170.984 295.24c0 5.077 2.67 9.19 5.96 9.19 3.293 0 5.962-4.113 5.962-9.19 0-5.074-2.67-9.19-5.96-9.19-3.293 0-5.962 4.116-5.962 9.19" fill="#1677bf"/><path d="m176.945 287.154c-2.633 0-4.858 3.704-4.858 8.087 0 4.384 2.225 8.088 4.858 8.088 2.634 0 4.858-3.704 4.858-8.087 0-4.382-2.224-8.086-4.858-8.086m0 18.38c-3.96 0-7.064-4.522-7.064-10.293 0-5.77 3.104-10.29 7.065-10.29 3.96 0 7.064 4.52 7.064 10.29 0 5.772-3.104 10.294-7.065 10.294"/><path d="m198.34 171.698-8.877-7.1" fill="#1677bf"/><path d="m197.652 172.56-8.878-7.1 1.377-1.724 8.88 7.1-1.378 1.723z"/><path d="m102.057 227.39-6.884 4.735-6.884-4.734v-23.184l6.883-4.734 6.884 4.734v23.185z" fill="#ffca34"/><path d="m89.392 226.81 5.78 3.977 5.782-3.976v-22.024l-5.78-3.975-5.782 3.976v22.025zm5.78 6.42c-.217 0-.435-.066-.623-.195l-6.886-4.735c-.3-.206-.478-.545-.478-.91v-23.184c0-.363.18-.703.478-.91l6.885-4.732c.375-.26.872-.26 1.248 0l6.883 4.733c.3.206.48.546.48.91v23.184c0 .365-.18.704-.48.91l-6.882 4.735c-.188.13-.407.194-.625.194"/><path d="m102.564 211.06-8.867 6.096-8.865-6.097v-4.778l8.865-6.097 8.867 6.097v4.777z" fill="#ffca34"/><path d="m85.935 210.48 7.763 5.338 7.762-5.34v-3.615l-7.762-5.34-7.763 5.34v3.616zm7.763 7.78c-.218 0-.437-.065-.625-.194l-8.866-6.098c-.3-.207-.478-.546-.478-.91v-4.775c0-.364.177-.703.477-.91l8.866-6.097c.376-.26.873-.26 1.25 0l8.865 6.098c.3.206.478.545.478.91v4.775c0 .362-.178.7-.478.908l-8.866 6.098c-.188.13-.406.193-.624.193"/><path d="m102.057 204.54-6.884 4.735-6.884-4.735v-23.184l6.883-4.734 6.884 4.734v23.184z" fill="#ffca34"/><path d="m89.392 203.96 5.78 3.976 5.782-3.975v-22.024l-5.78-3.976-5.782 3.976v22.025zm5.78 6.418c-.217 0-.435-.065-.623-.194l-6.886-4.734c-.3-.207-.478-.546-.478-.91v-23.184c0-.363.18-.703.478-.91l6.885-4.733c.375-.26.872-.26 1.248 0l6.883 4.734c.3.206.48.546.48.91v23.183c0 .364-.18.703-.48.91l-6.882 4.734c-.188.13-.407.194-.625.194"/><path d="m112.202 192.852-12.976 8.923-12.975-8.923v-25.37l12.976-8.925 12.976 8.925v25.37z" fill="#ffca34"/><path d="m87.354 192.272 11.873 8.165 11.872-8.165v-24.21l-11.873-8.166-11.873 8.166v24.21zm11.873 10.606c-.218 0-.436-.064-.624-.193l-12.976-8.924c-.3-.206-.478-.545-.478-.908v-25.37c0-.364.177-.704.477-.91l12.976-8.923c.376-.26.872-.26 1.248 0l12.977 8.922c.3.206.478.546.478.91v25.37c0 .363-.18.702-.478.91l-12.976 8.923c-.187.13-.405.193-.623.193"/><path d="m98.513 261.68v25.138l12.975 8.925 12.976-8.925v-25.14l-12.976 8.925-12.975-8.924z" fill="#ffca34"/><path d="m99.616 286.238 11.872 8.166 11.872-8.166v-22.462l-11.247 7.735c-.376.26-.873.26-1.25 0l-11.247-7.734v22.462zm11.872 10.607c-.218 0-.436-.064-.624-.193l-12.975-8.925c-.3-.206-.48-.545-.48-.91v-25.137c0-.41.227-.787.59-.977.363-.192.8-.165 1.138.067l12.35 8.494 12.35-8.494c.338-.232.776-.26 1.14-.067.36.19.588.567.588.976v25.138c0 .364-.178.703-.478.91l-12.975 8.924c-.188.13-.407.193-.625.193"/><path d="m98.513 261.45v.23l12.975 8.923 12.976-8.924v-.23l-12.976-8.925-12.975 8.924z" fill="#ffca34"/><path d="m100.292 261.563 11.196 7.7 11.196-7.7-11.196-7.7zm11.196 10.142c-.218 0-.436-.064-.624-.194l-12.974-8.921c-.3-.206-.48-.546-.48-.91v-.23c0-.362.18-.702.48-.908l12.974-8.924c.376-.26.873-.26 1.25 0l12.974 8.924c.3.206.478.546.478.91v.23c0 .362-.18.702-.478.908l-12.975 8.923c-.188.13-.407.195-.625.195"/><path d="m153.774 289.1v4.52l-14.34 9.862-14.338-9.863v-10.28l14.34 9.863z" fill="#ffca34"/><path d="m126.2 293.04 13.235 9.103 13.236-9.104v-2.476l-12.932 3.7c-.316.088-.658.035-.928-.15l-12.61-8.676v7.6zm13.235 11.544c-.218 0-.436-.064-.625-.193l-14.34-9.862c-.3-.206-.477-.545-.477-.91v-10.277c0-.408.227-.784.59-.975.362-.19.8-.164 1.138.067l13.909 9.566 13.84-3.96c.332-.094.692-.028.968.18.276.21.44.536.44.882v4.517c0 .363-.18.702-.48.908l-14.34 9.863c-.187.13-.405.194-.623.194"/><path d="m153.774 287.932v.66l-14.34 9.863-14.338-15.113v-.255l14.34-9.862z" fill="#ffca34"/><path d="m126.638 283.365 12.95 13.648 12.868-8.853-13.162-13.5zm12.798 16.193c-.295 0-.586-.117-.8-.344l-14.34-15.114c-.195-.204-.303-.477-.303-.76v-.253c0-.363.178-.703.478-.91l14.34-9.86c.442-.305 1.04-.247 1.415.138l14.338 14.708c.2.205.314.48.314.77v.66c0 .363-.18.703-.478.91l-14.34 9.86c-.19.13-.408.195-.624.195"/><path d="m118.372 259.32-6.884 4.733-6.883-4.734v-34.995l6.883-4.734 6.884 4.735v34.994z" fill="#ffca34"/><path d="m105.708 258.74 5.78 3.975 5.78-3.976v-33.835l-5.78-3.976-5.78 3.975v33.834zm5.78 6.417c-.218 0-.436-.065-.624-.194l-6.884-4.735c-.3-.206-.478-.545-.478-.91v-34.993c0-.363.178-.703.478-.91l6.884-4.734c.376-.257.873-.257 1.25 0l6.882 4.736c.3.206.48.546.48.91v34.993c0 .363-.18.702-.48.908l-6.883 4.735c-.188.13-.407.194-.625.194"/><path d="m118.683 274.834v25.14l12.975 8.924 12.975-8.925v-25.14l-12.975 8.924z" fill="#ffca34"/><path d="m119.786 299.393 11.872 8.166 11.872-8.167v-22.462l-11.247 7.737c-.376.258-.873.258-1.25 0l-11.247-7.736v22.463zm11.872 10.607c-.218 0-.436-.064-.624-.193l-12.975-8.925c-.3-.206-.48-.545-.48-.91v-25.138c0-.41.227-.786.59-.976.363-.193.8-.165 1.138.067l12.35 8.494 12.35-8.495c.337-.232.775-.26 1.14-.067.36.19.588.567.588.976v25.14c0 .363-.178.702-.478.908l-12.975 8.925c-.188.13-.407.193-.625.193"/><path d="m118.683 274.603v.23l12.975 8.924 12.975-8.923v-.23l-12.975-8.924z" fill="#ffca34"/><path d="m120.462 274.72 11.196 7.7 11.196-7.7-11.196-7.702-11.196 7.7zm11.196 10.14c-.218 0-.436-.064-.624-.194l-12.975-8.924c-.3-.206-.48-.545-.48-.91v-.23c0-.362.18-.702.48-.908l12.974-8.923c.376-.258.873-.258 1.25 0l12.974 8.924c.3.206.478.546.478.91v.23c0 .363-.18.702-.478.908l-12.975 8.924c-.188.13-.407.194-.625.194"/><path d="m138.542 272.474-6.884 4.734-6.883-4.734v-34.994l6.883-4.735 6.884 4.734v34.994z" fill="#ffca34"/><path d="m125.878 271.894 5.78 3.976 5.78-3.976v-33.834l-5.78-3.976-5.78 3.976zm5.78 6.418c-.218 0-.436-.065-.624-.194l-6.884-4.735c-.3-.206-.478-.545-.478-.91v-34.993c0-.363.178-.703.478-.91l6.884-4.734c.376-.258.873-.258 1.25 0l6.882 4.735c.3.207.48.547.48.91v34.994c0 .364-.18.703-.48.91l-6.883 4.734c-.188.13-.407.194-.625.194"/><path d="m104.664 162.966-11.213 7.712v47.422l39.23 26.43 11.213-7.71v-47.424z" fill="#ffca34"/><path d="m94.554 217.515 38.12 25.682 10.115-6.958v-46.257l-38.119-25.682-10.116 6.96zm38.125 28.12c-.216 0-.43-.063-.617-.19l-39.23-26.43c-.303-.204-.485-.546-.485-.913v-47.424c0-.363.178-.703.478-.91l11.213-7.71c.373-.257.865-.26 1.24-.006l39.228 26.43c.305.205.487.547.487.914v47.423c0 .363-.178.702-.478.908l-11.213 7.713c-.188.13-.406.194-.625.194"/><path d="m130.537 164.598-9.55-6.57-9.55 6.57v11.255l9.55 6.57 9.55-6.57z" fill="#ffca34"/><path d="m112.54 175.273 8.447 5.81 8.447-5.81v-10.095l-8.447-5.81-8.448 5.81v10.095zm8.447 8.25c-.22 0-.437-.063-.625-.192l-9.55-6.568c-.3-.206-.478-.545-.478-.91v-11.253c0-.363.178-.703.478-.91l9.55-6.567c.376-.258.873-.258 1.25 0l9.55 6.57c.3.205.477.545.477.908v11.255c0 .364-.18.703-.48.91l-9.55 6.568c-.187.13-.405.194-.623.194"/><path d="m111.802 165.13 9.856 6.568v11.105l-9.856-6.568z" fill="#ffca34"/><path d="m112.905 175.645 7.65 5.098v-8.456l-7.65-5.097zm8.754 8.26c-.215 0-.43-.062-.613-.185l-9.857-6.567c-.306-.205-.49-.548-.49-.918v-11.105c0-.407.223-.78.582-.972.358-.192.794-.17 1.13.054l9.858 6.568c.307.204.492.548.492.918v11.105c0 .406-.224.78-.583.972-.163.088-.342.13-.52.13"/><path d="m93.45 170.678 47.618 31.535" fill="#ffca34"/><path d="m140.46 203.132-47.62-31.534 1.217-1.84 47.617 31.535-1.218 1.84z"/><path d="m149.76 247.744-6.884 4.734-6.884-4.734v-41.57l6.884-4.736 6.883 4.735v41.57z" fill="#ffca34"/><path d="m137.095 247.164 5.78 3.976 5.782-3.976v-40.41l-5.782-3.977-5.78 3.976v40.41zm5.78 6.418c-.218 0-.436-.065-.624-.194l-6.883-4.735c-.3-.206-.478-.545-.478-.91v-41.57c0-.363.178-.703.477-.91l6.884-4.734c.377-.26.874-.26 1.25 0l6.884 4.734c.3.206.48.546.48.91v41.57c0 .364-.18.703-.48.91l-6.883 4.734c-.188.13-.406.194-.625.194"/><path d="m155.85 213.5-12.974 8.923-12.976-8.923v-25.37l12.976-8.925 12.975 8.925v25.37z" fill="#ffca34"/><path d="m131.003 212.92 11.873 8.165 11.872-8.166v-24.21l-11.872-8.167-11.873 8.167v24.21zm11.873 10.606c-.22 0-.437-.064-.625-.194l-12.974-8.924c-.3-.206-.478-.545-.478-.91v-25.37c0-.362.178-.702.478-.908l12.975-8.923c.377-.26.874-.26 1.25 0l12.975 8.923c.3.206.478.546.478.91v25.37c0 .363-.178.702-.478.908l-12.975 8.924c-.188.13-.406.194-.624.194"/><path d="m155.85 188.117-12.974 8.924-12.976-8.923" fill="#ffca34"/><path d="m142.876 198.144c-.22 0-.437-.065-.625-.194l-12.974-8.924 1.25-1.818 12.35 8.495 12.35-8.495 1.25 1.818-12.976 8.924c-.188.13-.406.194-.624.194m-12.321 85.613h2.205v24.67h-2.204zm-19.476-14.021h2.206v24.67h-2.205z"/><path d="m141.746 197.907h2.205v24.672h-2.204z"/><path d="m149.016 295.24c0 5.077-2.67 9.19-5.96 9.19-3.293 0-5.962-4.113-5.962-9.19 0-5.074 2.67-9.19 5.96-9.19 3.293 0 5.962 4.116 5.962 9.19" fill="#ffca34"/><path d="m143.055 287.154c-2.633 0-4.858 3.704-4.858 8.087 0 4.384 2.225 8.088 4.858 8.088 2.634 0 4.858-3.704 4.858-8.087 0-4.382-2.224-8.086-4.858-8.086m0 18.38c-3.96 0-7.064-4.522-7.064-10.293 0-5.77 3.104-10.29 7.065-10.29 3.96 0 7.063 4.52 7.063 10.29 0 5.772-3.102 10.294-7.063 10.294"/><path d="m121.66 171.698 8.877-7.1" fill="#ffca34"/><path d="m122.347 172.56-1.377-1.724 8.878-7.1 1.378 1.723-8.88 7.1z"/></g></svg>