<svg clip-rule="evenodd" fill-rule="evenodd" stroke-linejoin="round" stroke-miterlimit="1.414" viewBox="0 0 320 320" xmlns="http://www.w3.org/2000/svg"><g fill-rule="nonzero"><path d="m52.796 211.607h251.044v-195.927h-251.043v195.927zm254.124 6.16h-257.203c-1.7 0-3.08-1.38-3.08-3.08v-202.089c0-1.7 1.38-3.08 3.08-3.08h257.203c1.7 0 3.08 1.38 3.08 3.08v202.086c0 1.7-1.38 3.08-3.08 3.08"/><path d="m78.62 35.31h199.396v156.668h-199.396z"/><path d="m81.702 188.897h193.235v-150.507h-193.235zm196.315 6.16h-199.397c-1.7 0-3.077-1.38-3.077-3.08v-156.669c0-1.7 1.378-3.08 3.078-3.08h199.397c1.7 0 3.08 1.38 3.08 3.08v156.666c0 1.702-1.38 3.08-3.08 3.08"/><path d="m231.63 85.323h-38.64l32.026-43.588h32.55l-25.937 43.588z" fill="#3db47a"/><path d="m197.856 82.86h32.372l23.004-38.66h-26.968zm33.774 4.926h-38.64c-.93 0-1.78-.522-2.198-1.35-.42-.83-.338-1.823.212-2.57l32.028-43.59c.463-.63 1.2-1.004 1.984-1.004h32.55c.886 0 1.703.475 2.14 1.245.438.77.43 1.717-.024 2.48l-25.935 43.586c-.444.747-1.248 1.203-2.117 1.203"/><path d="m129.34 85.323h38.64l-32.027-43.588h-32.55z" fill="#3db47a"/><path d="m130.74 82.86h32.372l-28.407-38.66h-26.968l23.004 38.66zm37.24 4.926h-38.64c-.87 0-1.674-.456-2.118-1.204l-25.935-43.588c-.454-.76-.46-1.706-.024-2.477.438-.77 1.257-1.245 2.142-1.245h32.547c.785 0 1.522.373 1.986 1.005l32.027 43.588c.55.748.632 1.742.212 2.57-.42.83-1.27 1.35-2.197 1.35m66.418 25.613h-112.884l-1.672 38.177 58.672 6.47 58.673-6.47-2.79-38.177z"/><path d="m122.405 149.38 56.11 6.187 56.042-6.18-2.45-33.525h-108.234zm56.11 11.13c-.09 0-.18-.006-.27-.016l-58.673-6.47c-1.29-.142-2.248-1.26-2.19-2.556l1.673-38.178c.057-1.316 1.142-2.355 2.46-2.355h112.883c1.29 0 2.363.997 2.457 2.283l2.79 38.178c.096 1.322-.87 2.483-2.19 2.63l-58.67 6.468c-.09.01-.18.015-.27.015"/><path d="m213.886 160.332h-71.45l-1.058 24.164h74.273l-1.764-24.164z" fill="#1677bf"/><path d="m143.952 182.032h69.05l-1.407-19.237h-66.8zm71.7 4.927h-74.274c-.673 0-1.314-.275-1.78-.76-.465-.487-.71-1.14-.68-1.812l1.057-24.164c.06-1.318 1.144-2.356 2.462-2.356h71.45c1.29 0 2.36.996 2.455 2.284l1.766 24.165c.05.68-.187 1.356-.653 1.855-.465.503-1.12.787-1.804.787"/><path d="m237.59 114.33h-118.152l2.782-13.998h112.59l2.78 14z" fill="#c17b4a"/><path d="m122.44 111.868h112.148l-1.8-9.072h-108.548l-1.803 9.072zm115.15 4.927h-118.152c-.738 0-1.436-.33-1.904-.9s-.655-1.32-.512-2.044l2.78-13.998c.23-1.154 1.243-1.983 2.42-1.983h112.587c1.175 0 2.185.828 2.415 1.982l2.782 14c.143.723-.045 1.473-.513 2.042-.467.57-1.167.9-1.904.9"/><path d="m157.07 128.537 16.65 20.183" fill="#1677bf"/><path d="m171.82 150.29-16.652-20.186 3.802-3.136 16.65 20.185-3.8 3.136z"/><path d="m199.96 128.537-16.652 20.183" fill="#1677bf"/><path d="m185.21 150.29-3.802-3.137 16.652-20.185 3.8 3.136-16.65 20.185z"/><path d="m157.8 139.803h41.428l-5.37 26.368h-30.69l-5.368-26.367z" fill="#1677bf"/><path d="m165.182 163.708h26.665l4.365-21.44h-35.396zm28.677 4.927h-30.69c-1.172 0-2.182-.825-2.416-1.972l-5.368-26.368c-.147-.725.04-1.477.507-2.05.468-.574 1.167-.905 1.907-.905h41.428c.74 0 1.44.33 1.907.904.468.574.653 1.326.506 2.05l-5.367 26.37c-.233 1.146-1.242 1.97-2.414 1.97m-8.029-107.944h-14.63l2.506-15.226h9.62l2.507 15.227z"/><path d="m174.1 58.228h8.828l-1.695-10.3h-5.438zm11.73 4.927h-14.633c-.722 0-1.41-.318-1.877-.87-.468-.55-.67-1.28-.554-1.994l2.507-15.227c.196-1.19 1.224-2.063 2.43-2.063h9.62c1.208 0 2.236.873 2.432 2.063l2.507 15.228c.117.714-.086 1.444-.554 1.996-.468.55-1.155.87-1.877.87"/><path d="m160.252 59.682-15.042 37.648 5.014 16.104h56.58l5.015-16.104-15.043-37.648h-36.525z"/><path d="m152.037 110.97h52.955l4.215-13.538-14.098-35.286h-33.19l-14.098 35.286 4.215 13.538zm54.768 4.927h-56.58c-1.08 0-2.032-.7-2.352-1.73l-5.014-16.105c-.17-.54-.147-1.12.063-1.647l15.04-37.647c.375-.936 1.28-1.55 2.29-1.55h36.524c1.01 0 1.914.614 2.29 1.55l15.04 37.647c.21.526.232 1.106.064 1.647l-5.014 16.105c-.32 1.03-1.272 1.73-2.35 1.73"/><path d="m169.027 103.306h-8.327l2.507-39.36h5.82zm27.301 0h-8.328v-39.36h5.82zm-22.575-15.012h9.524v15.013h-9.524z" fill="#1677bf"/><path d="m127.644 84.13h18.987v16.148h-18.986zm82.754 0h18.987v16.148h-18.987z"/><path d="m247.02 146.01c-9.083 4.182-12.472 7.57-16.653 7.57-4.18 0-7.568-3.388-7.568-7.57l22.08-47.407h19.21l-17.07 47.408z" fill="#e73c60"/><path d="m225.287 146.506c.25 2.584 2.433 4.61 5.08 4.61 1.92 0 3.867-1.095 7.092-2.91 2-1.127 4.447-2.505 7.59-3.992l15.534-43.147h-14.132l-21.165 45.44zm5.08 9.538c-5.532 0-10.03-4.5-10.03-10.033 0-.358.077-.713.23-1.04l22.082-47.407c.404-.867 1.275-1.423 2.232-1.423h19.207c.8 0 1.554.39 2.016 1.048.46.656.573 1.495.3 2.25l-17.067 47.408c-.225.62-.69 1.127-1.29 1.403-3.418 1.573-6.055 3.056-8.175 4.25-3.655 2.057-6.297 3.544-9.507 3.544"/><path d="m244.177 157.994h-39.363l13.59-21.666h32.07z" fill="#c17b4a"/><path d="m209.266 155.53h33.06l4.866-16.74h-27.424zm34.91 4.927h-39.363c-.897 0-1.72-.487-2.155-1.27-.435-.785-.41-1.743.068-2.503l13.592-21.665c.45-.72 1.238-1.156 2.086-1.156h32.07c.773 0 1.505.364 1.97.985.466.618.61 1.42.396 2.165l-6.298 21.666c-.306 1.054-1.27 1.777-2.366 1.777"/><path d="m109.617 146.01c12.344 4.182 15.73 7.57 19.912 7.57 4.178 0 7.567-3.388 4.31-7.57l-22.084-47.407h-19.207l17.07 47.408z" fill="#e73c60"/><path d="m111.535 144.066c5.39 1.885 9.03 3.6 11.732 4.873 2.884 1.356 4.624 2.177 6.26 2.177 1.562 0 2.71-.68 3.038-1.35.343-.703-.175-1.606-.67-2.24-.113-.148-.21-.307-.29-.475l-21.42-45.984h-14.131l15.482 42.998zm17.993 11.978c-2.74 0-4.975-1.053-8.36-2.647-2.78-1.31-6.59-3.105-12.34-5.05-.712-.243-1.275-.794-1.528-1.5l-17.07-47.407c-.27-.757-.16-1.597.302-2.253.46-.655 1.214-1.047 2.016-1.047h19.208c.958 0 1.828.555 2.233 1.424l21.97 47.17c1.74 2.364 2.118 4.973 1.032 7.194-1.22 2.5-4.15 4.116-7.464 4.116"/><path d="m112.46 157.994h39.364l-13.59-21.666h-32.07l6.297 21.666z" fill="#c17b4a"/><path d="m114.31 155.53h33.06l-10.5-16.74h-27.425zm37.515 4.927h-39.365c-1.095 0-2.06-.723-2.365-1.776l-6.297-21.665c-.216-.744-.07-1.547.396-2.166.464-.622 1.196-.986 1.97-.986h32.07c.848 0 1.636.436 2.086 1.155l13.59 21.664c.478.76.504 1.718.07 2.502-.435.784-1.26 1.27-2.155 1.27"/><path d="m151.467 143.19h-21.747l2.776-28.014h16.196l2.775 28.015z" fill="#1677bf"/><path d="m132.44 140.727h16.307l-2.286-23.087h-11.731l-2.288 23.087zm19.027 4.927h-21.747c-.695 0-1.36-.293-1.826-.81-.467-.514-.693-1.204-.625-1.897l2.775-28.014c.125-1.26 1.184-2.22 2.45-2.22h16.198c1.267 0 2.327.96 2.45 2.22l2.775 28.014c.07.693-.158 1.383-.625 1.898-.466.516-1.13.81-1.826.81"/><path d="m129.72 143.19h21.747l-2.774 30.044h-16.198l-2.774-30.043z" fill="#3db47a"/><path d="m134.743 170.77h11.703l2.32-25.115h-16.343zm13.95 4.927h-16.197c-1.274 0-2.336-.968-2.452-2.237l-2.776-30.043c-.064-.69.166-1.375.633-1.886.467-.51 1.128-.804 1.82-.804h21.747c.693 0 1.353.293 1.82.805s.697 1.198.633 1.887l-2.774 30.043c-.117 1.27-1.18 2.237-2.453 2.237"/><path d="m227.307 143.19h-21.745l2.774-28.014h16.197l2.774 28.015z" fill="#1677bf"/><path d="m208.28 140.727h16.307l-2.287-23.087h-11.732l-2.287 23.087zm19.027 4.927h-21.747c-.695 0-1.36-.293-1.825-.81-.467-.514-.694-1.204-.625-1.897l2.775-28.014c.125-1.26 1.184-2.22 2.45-2.22h16.197c1.267 0 2.327.96 2.452 2.22l2.775 28.014c.068.693-.16 1.383-.626 1.898-.467.516-1.13.81-1.827.81"/><path d="m205.56 143.19h21.747l-2.774 30.044h-16.198l-2.774-30.043z" fill="#3db47a"/><path d="m210.583 170.77h11.702l2.32-25.115h-16.342zm13.95 4.927h-16.196c-1.274 0-2.337-.968-2.453-2.237l-2.775-30.043c-.066-.69.164-1.375.63-1.886.468-.51 1.128-.804 1.82-.804h21.747c.693 0 1.354.293 1.82.805.467.512.696 1.198.633 1.887l-2.775 30.043c-.117 1.27-1.18 2.237-2.453 2.237"/><path d="m198.03 131.06 11.28-15.403h-61.593l11.28 15.402h39.034z" fill="#ffca34"/><path d="m185.563 131.564h-14.097l2.507-6.524h9.083zm-169.403 172.276h252.155l35.4-76.527v-9.78h-252.157l-35.4 76.53v9.778zm254.122 6.16h-257.202c-1.7 0-3.08-1.38-3.08-3.08v-13.536c0-.446.097-.887.286-1.293l36.51-78.93c.503-1.087 1.594-1.785 2.795-1.785h257.203c1.702 0 3.08 1.38 3.08 3.08v13.536c0 .447-.097.888-.285 1.294l-36.51 78.93c-.503 1.088-1.595 1.786-2.795 1.786"/><path d="m67.34 255.04h-15.238l2.842-6.142h15.236l-2.84 6.143z" fill="#ffca34"/><path d="m55.957 252.577h9.808l.562-1.215h-9.81zm11.383 4.927h-15.238c-.84 0-1.623-.427-2.076-1.137-.452-.708-.512-1.597-.16-2.36l2.84-6.144c.404-.87 1.277-1.43 2.237-1.43h15.237c.842 0 1.624.43 2.077 1.138.453.71.513 1.6.16 2.362l-2.84 6.143c-.404.872-1.277 1.43-2.237 1.43"/><path d="m61.09 268.55h-15.238l2.843-6.142h15.235z" fill="#ffca34"/><path d="m49.707 266.087h9.81l.56-1.215h-9.807zm11.384 4.927h-15.237c-.84 0-1.623-.427-2.076-1.137-.453-.708-.512-1.597-.16-2.36l2.84-6.144c.404-.87 1.277-1.43 2.237-1.43h15.238c.84 0 1.623.43 2.076 1.138.452.71.513 1.6.16 2.362l-2.84 6.143c-.404.872-1.277 1.43-2.237 1.43"/><path d="m54.84 282.06h-15.236l2.843-6.142h15.236l-2.84 6.142z" fill="#ffca34"/><path d="m43.457 279.596h9.81l.56-1.214h-9.807zm11.385 4.927h-15.24c-.84 0-1.622-.427-2.075-1.137-.453-.708-.512-1.598-.16-2.36l2.842-6.143c.403-.87 1.275-1.43 2.235-1.43h15.238c.84 0 1.623.43 2.076 1.138.45.71.51 1.6.16 2.362l-2.842 6.142c-.403.87-1.276 1.43-2.236 1.43"/><path d="m95.824 255.04h-15.237l2.842-6.142h15.236l-2.842 6.143z" fill="#ffca34"/><path d="m84.442 252.577h9.808l.562-1.215h-9.81zm11.383 4.927h-15.238c-.84 0-1.623-.427-2.075-1.137-.453-.708-.513-1.597-.16-2.36l2.84-6.144c.403-.87 1.276-1.43 2.236-1.43h15.238c.84 0 1.623.43 2.076 1.138.453.71.513 1.6.16 2.362l-2.84 6.143c-.404.872-1.277 1.43-2.237 1.43"/><path d="m89.575 268.55h-15.237l2.842-6.142h15.236l-2.84 6.142z" fill="#ffca34"/><path d="m78.19 266.087h9.81l.563-1.215h-9.81l-.562 1.215zm11.386 4.927h-15.24c-.84 0-1.622-.427-2.075-1.137-.452-.708-.51-1.597-.16-2.36l2.843-6.144c.403-.87 1.276-1.43 2.236-1.43h15.237c.84 0 1.623.43 2.076 1.138.453.71.512 1.6.16 2.362l-2.84 6.143c-.404.872-1.277 1.43-2.237 1.43"/><path d="m225.75 282.06h-157.66l2.84-6.142h157.662l-2.84 6.142z" fill="#ffca34"/><path d="m71.942 279.596h152.234l.562-1.214h-152.233zm153.81 4.927h-157.665c-.84 0-1.623-.427-2.076-1.137-.453-.708-.512-1.598-.16-2.36l2.842-6.143c.404-.87 1.276-1.43 2.236-1.43h157.662c.84 0 1.623.43 2.076 1.138.453.71.513 1.6.16 2.362l-2.84 6.142c-.404.87-1.277 1.43-2.237 1.43"/><path d="m124.31 255.04h-15.24l2.842-6.142h15.237l-2.84 6.143z" fill="#ffca34"/><path d="m112.925 252.577h9.81l.562-1.215h-9.81zm11.385 4.927h-15.24c-.84 0-1.622-.427-2.075-1.137-.453-.708-.512-1.597-.16-2.36l2.842-6.144c.404-.87 1.276-1.43 2.237-1.43h15.237c.842 0 1.624.43 2.077 1.138.453.71.512 1.6.16 2.362l-2.84 6.143c-.404.872-1.277 1.43-2.237 1.43"/><path d="m118.06 268.55h-15.237l2.842-6.142h15.235z" fill="#ffca34"/><path d="m106.676 266.087h9.81l.562-1.215h-9.81zm11.384 4.927h-15.238c-.84 0-1.623-.427-2.076-1.137-.453-.708-.512-1.597-.16-2.36l2.842-6.144c.403-.87 1.276-1.43 2.236-1.43h15.238c.84 0 1.623.43 2.076 1.138.453.71.512 1.6.16 2.362l-2.842 6.143c-.403.872-1.276 1.43-2.236 1.43"/><path d="m152.795 255.04h-15.238l2.842-6.142h15.236l-2.84 6.143z" fill="#ffca34"/><path d="m141.41 252.577h9.81l.562-1.215h-9.81l-.56 1.215zm11.385 4.927h-15.24c-.84 0-1.622-.427-2.075-1.137-.452-.708-.512-1.597-.16-2.36l2.842-6.144c.404-.87 1.276-1.43 2.237-1.43h15.236c.84 0 1.623.43 2.076 1.138.453.71.512 1.6.16 2.362l-2.84 6.143c-.404.872-1.277 1.43-2.237 1.43"/><path d="m146.545 268.55h-15.238l2.843-6.142h15.236l-2.84 6.142z" fill="#ffca34"/><path d="m135.162 266.087h9.808l.563-1.215h-9.81l-.56 1.215zm11.383 4.927h-15.238c-.84 0-1.623-.427-2.076-1.137-.45-.708-.51-1.597-.16-2.36l2.843-6.144c.404-.87 1.276-1.43 2.237-1.43h15.237c.84 0 1.623.43 2.076 1.138.453.71.512 1.6.16 2.362l-2.842 6.143c-.402.872-1.275 1.43-2.235 1.43"/><path d="m181.28 255.04h-15.238l2.84-6.142h15.24l-2.842 6.143z" fill="#ffca34"/><path d="m169.896 252.577h9.808l.563-1.215h-9.808l-.564 1.215zm11.383 4.927h-15.24c-.84 0-1.622-.427-2.074-1.137-.453-.708-.513-1.597-.16-2.36l2.84-6.144c.405-.87 1.278-1.43 2.238-1.43h15.237c.843 0 1.624.43 2.077 1.138.453.71.513 1.6.16 2.362l-2.84 6.143c-.405.872-1.278 1.43-2.238 1.43"/><path d="m175.03 268.55h-15.238l2.843-6.142h15.236l-2.84 6.142z" fill="#ffca34"/><path d="m163.647 266.087h9.808l.563-1.215h-9.81l-.56 1.215zm11.383 4.927h-15.238c-.84 0-1.623-.427-2.076-1.137-.452-.708-.512-1.597-.16-2.36l2.84-6.144c.404-.87 1.277-1.43 2.237-1.43h15.24c.84 0 1.622.43 2.075 1.138.453.71.512 1.6.16 2.362l-2.842 6.143c-.403.872-1.276 1.43-2.236 1.43"/><path d="m209.764 255.04h-15.237l2.842-6.142h15.236l-2.842 6.143z" fill="#ffca34"/><path d="m198.38 252.577h9.81l.562-1.215h-9.81l-.56 1.215zm11.384 4.927h-15.237c-.842 0-1.623-.427-2.076-1.137-.452-.708-.512-1.597-.16-2.36l2.84-6.144c.405-.87 1.278-1.43 2.238-1.43h15.24c.84 0 1.622.43 2.074 1.138.453.71.513 1.6.16 2.362l-2.84 6.143c-.405.872-1.278 1.43-2.238 1.43"/><path d="m203.515 268.55h-15.237l2.84-6.142h15.238l-2.84 6.142z" fill="#ffca34"/><path d="m192.132 266.087h9.808l.562-1.215h-9.81zm11.383 4.927h-15.238c-.84 0-1.623-.427-2.076-1.137-.45-.708-.51-1.597-.16-2.36l2.843-6.144c.402-.87 1.275-1.43 2.235-1.43h15.238c.84 0 1.623.43 2.076 1.138.453.71.513 1.6.16 2.362l-2.84 6.143c-.404.872-1.277 1.43-2.237 1.43"/><path d="m238.25 255.04h-15.24l2.842-6.142h15.237l-2.84 6.143z" fill="#ffca34"/><path d="m226.866 252.577h9.808l.563-1.215h-9.81l-.56 1.215zm11.383 4.927h-15.239c-.842 0-1.623-.427-2.076-1.137-.453-.708-.512-1.597-.16-2.36l2.842-6.144c.402-.87 1.275-1.43 2.235-1.43h15.24c.84 0 1.622.43 2.074 1.138.453.71.513 1.6.16 2.362l-2.84 6.143c-.405.872-1.278 1.43-2.238 1.43"/><path d="m232 268.55h-15.238l2.843-6.142h15.236z" fill="#ffca34"/><path d="m220.617 266.087h9.808l.562-1.215h-9.81zm11.383 4.927h-15.238c-.84 0-1.622-.427-2.075-1.137-.453-.708-.513-1.597-.16-2.36l2.84-6.144c.404-.87 1.276-1.43 2.237-1.43h15.237c.842 0 1.624.43 2.077 1.138.453.71.514 1.6.16 2.362l-2.84 6.143c-.404.872-1.277 1.43-2.237 1.43"/><path d="m266.735 255.04h-15.238l2.84-6.142h15.24l-2.842 6.143z" fill="#ffca34"/><path d="m255.35 252.577h9.81l.56-1.215h-9.807l-.562 1.215zm11.385 4.927h-15.238c-.84 0-1.623-.427-2.076-1.137-.452-.708-.51-1.597-.16-2.36l2.84-6.144c.405-.87 1.278-1.43 2.238-1.43h15.238c.84 0 1.623.43 2.075 1.138.454.71.515 1.6.162 2.362l-2.84 6.143c-.405.872-1.277 1.43-2.237 1.43"/><path d="m260.485 268.55h-15.238l2.843-6.142h15.236l-2.84 6.142z" fill="#ffca34"/><path d="m249.102 266.087h9.808l.562-1.215h-9.808zm11.383 4.927h-15.237c-.842 0-1.623-.427-2.076-1.137-.453-.708-.513-1.597-.16-2.36l2.84-6.144c.404-.87 1.277-1.43 2.237-1.43h15.236c.842 0 1.623.43 2.076 1.138.453.71.514 1.6.16 2.362l-2.84 6.143c-.404.872-1.277 1.43-2.237 1.43"/><path d="m254.236 282.06h-15.238l2.84-6.142h15.24z" fill="#ffca34"/><path d="m242.853 279.596h9.808l.563-1.214h-9.81l-.56 1.214zm11.383 4.927h-15.238c-.84 0-1.623-.427-2.075-1.137-.453-.708-.513-1.598-.16-2.36l2.84-6.143c.404-.87 1.276-1.43 2.237-1.43h15.237c.84 0 1.623.43 2.076 1.138.453.71.514 1.6.16 2.362l-2.84 6.142c-.404.87-1.277 1.43-2.237 1.43"/><path d="m81.655 228.863c-1.332 2.88-6.843 5.216-12.31 5.216-5.466 0-8.817-2.336-7.485-5.217 1.332-2.88 6.845-5.215 12.31-5.215 5.467 0 8.817 2.335 7.485 5.215" fill="#c17b4a"/><path d="m74.17 226.11c-5.08 0-9.358 2.244-10.073 3.788-.067.142-.066.205-.066.206.088.315 1.64 1.512 5.315 1.512 5.082 0 9.36-2.243 10.074-3.787.065-.143.064-.208.064-.208-.086-.316-1.638-1.51-5.313-1.51m-4.825 10.43c-4.48 0-7.92-1.36-9.438-3.737-.967-1.512-1.067-3.28-.283-4.976 2-4.317 8.986-6.646 14.547-6.646 4.48 0 7.92 1.362 9.44 3.738.967 1.513 1.067 3.28.282 4.976-1.997 4.316-8.986 6.645-14.547 6.645"/><path d="m109.15 228.863c-1.333 2.88-6.846 5.216-12.312 5.216s-8.817-2.336-7.485-5.217c1.332-2.88 6.845-5.215 12.31-5.215 5.467 0 8.818 2.335 7.486 5.215" fill="#e73c60"/><path d="m101.664 226.11c-5.08 0-9.36 2.244-10.074 3.788-.067.142-.066.205-.066.205.087.316 1.637 1.513 5.315 1.513 5.08 0 9.36-2.243 10.072-3.786.066-.143.065-.208.065-.208-.086-.316-1.638-1.51-5.313-1.51m-4.825 10.43c-4.48 0-7.92-1.36-9.44-3.736-.966-1.513-1.067-3.28-.283-4.976 1.998-4.317 8.986-6.646 14.547-6.646 4.48 0 7.92 1.362 9.438 3.738.967 1.513 1.067 3.28.283 4.976-1.996 4.316-8.984 6.645-14.546 6.645m34.856-7.68c-.666 1.44-3.42 2.61-6.155 2.61-2.733 0-4.408-1.17-3.742-2.61s3.422-2.608 6.154-2.608c2.734 0 4.41 1.168 3.743 2.608m45.867-2.463h58.058v4.927h-58.058z"/></g></svg>