<svg clip-rule="evenodd" fill-rule="evenodd" stroke-linejoin="round" stroke-miterlimit="1.414" viewBox="0 0 320 320" xmlns="http://www.w3.org/2000/svg"><g fill-rule="nonzero"><path d="m54.05 274.853h15.23v33.636h-15.23z" fill="#1677bf"/><path d="m55.56 306.977h12.21v-30.613h-12.21zm13.72 3.023h-15.23c-.836 0-1.513-.677-1.513-1.51v-33.637c0-.836.677-1.512 1.512-1.512h15.23c.835 0 1.512.677 1.512 1.513v33.636c0 .833-.677 1.51-1.512 1.51"/><path d="m64.203 274.853h19.015v33.636h-19.015z" fill="#1677bf"/><path d="m65.715 306.977h15.99v-30.613h-15.99zm17.503 3.023h-19.015c-.835 0-1.512-.677-1.512-1.51v-33.637c0-.836.678-1.512 1.513-1.512h19.015c.835 0 1.512.677 1.512 1.513v33.636c0 .833-.677 1.51-1.512 1.51"/><path d="m63.568 294.285h19.016v3.023h-19.016z"/><path d="m72.195 295.133h3.023v12.08h-3.023z"/><path d="m112.44 236.94-7.19-15.064-16.685.562-27.703 45.604 7.233 14.997 16.643-.494 27.703-45.605z" fill="#1677bf"/><path d="m62.58 268.125 6.45 13.373 14.842-.438 26.853-44.205-6.415-13.435-14.878.5zm5.516 16.425c-.58 0-1.11-.33-1.363-.855l-7.233-14.995c-.223-.463-.197-1.004.07-1.442l27.702-45.605c.265-.436.732-.71 1.24-.727l16.686-.56c.588-.03 1.156.317 1.415.86l7.192 15.064c.22.46.193 1-.072 1.436l-27.703 45.604c-.265.44-.735.712-1.246.727l-16.643.493h-.044"/><path d="m105.25 221.876-37.155 61.164" fill="#1677bf"/><path d="m69.387 283.823-2.583-1.57 37.153-61.16 2.583 1.568-37.153 61.163z"/><path d="m149.623 189.808-11.25-23.563-26.095.878-43.33 71.33 11.312 23.457 26.03-.77 43.33-71.332z" fill="#e73c60"/><path d="m70.666 238.536 10.53 21.833 24.23-.72 42.48-69.928-10.47-21.933-24.29.817-42.48 69.93zm9.596 24.885c-.58 0-1.11-.33-1.362-.855l-11.314-23.456c-.223-.46-.196-1.003.07-1.44l43.33-71.33c.264-.438.73-.71 1.24-.728l26.097-.878c.607-.03 1.155.318 1.415.86l11.25 23.563c.22.46.19 1-.073 1.435l-43.33 71.33c-.266.44-.736.713-1.247.727l-26.03.77h-.046"/><path d="m138.373 166.245-58.11 95.663" fill="#e73c60"/><path d="m81.554 262.693-2.583-1.57 58.112-95.663 2.583 1.57-58.11 95.663z"/><path d="m130.85 153.057 23.01 23.007h-14.462l-23.008-23.007z" fill="#e73c60"/><path d="m140.024 174.552h10.186l-19.984-19.984h-10.186zm13.835 3.023h-14.462c-.4 0-.785-.16-1.07-.442l-23.007-23.008c-.43-.433-.56-1.082-.326-1.647.233-.565.785-.933 1.396-.933h14.46c.403 0 .787.16 1.07.442l23.008 23.008c.433.433.56 1.082.328 1.647-.235.565-.786.933-1.397.933"/><path d="m116.39 153.057 23.008 23.007h-21.692l-23.006-23.007z" fill="#e73c60"/><path d="m118.332 174.552h17.417l-19.985-19.984h-17.414zm21.066 3.023h-21.692c-.4 0-.785-.16-1.07-.442l-23.006-23.008c-.432-.433-.56-1.082-.328-1.647.234-.565.786-.933 1.397-.933h21.69c.4 0 .786.16 1.07.442l23.007 23.008c.433.433.562 1.082.328 1.647s-.786.933-1.397.933"/><path d="m140.036 235.61h81.75v64.993h-81.75z" fill="#1677bf"/><path d="m141.55 299.09h78.723v-61.97h-78.723zm80.234 3.024h-81.747c-.836 0-1.513-.677-1.513-1.51v-64.995c0-.835.677-1.513 1.513-1.513h81.747c.836 0 1.513.678 1.513 1.512v64.993c0 .834-.677 1.51-1.513 1.51"/><path d="m152.813 229.38h56.195v44.014h-56.195z" fill="#1677bf"/><path d="m154.325 271.883h53.172v-40.99h-53.172zm54.683 3.023h-56.195c-.834 0-1.51-.677-1.51-1.512v-44.014c0-.835.676-1.512 1.51-1.512h56.195c.835 0 1.512.677 1.512 1.512v44.014c0 .835-.677 1.512-1.512 1.512"/><path d="m122.176 186.563h117.47v101.49h-117.47z" fill="#c17b4a"/><path d="m123.687 286.54h114.447v-98.465h-114.447zm115.96 3.024h-117.47c-.837 0-1.513-.677-1.513-1.512v-101.49c0-.834.676-1.51 1.512-1.51h117.47c.835 0 1.51.676 1.51 1.51v101.49c0 .835-.675 1.512-1.51 1.512"/><path d="m156.942 262.006h47.938l25.806-72.857h-40.55l-9.225 26.042-9.224-26.043h-40.55l25.806 72.856z" fill="#c17b4a"/><path d="m158.01 260.494h45.802l24.735-69.832h-37.344l-8.867 25.035c-.214.602-.785 1.007-1.425 1.007s-1.21-.404-1.424-1.007l-8.868-25.035h-37.344l24.736 69.832zm46.87 3.024h-47.938c-.64 0-1.212-.404-1.425-1.007l-25.807-72.855c-.164-.463-.093-.977.19-1.378.284-.4.744-.64 1.235-.64h40.55c.64 0 1.213.404 1.426 1.008l7.8 22.02 7.8-22.02c.214-.603.785-1.007 1.425-1.007h40.55c.492 0 .953.238 1.236.64.284.4.356.914.19 1.377l-25.806 72.856c-.213.604-.785 1.008-1.424 1.008"/><path d="m116.404 184.26 129.013-.732-64.285 39.346z" fill="#ffca34"/><path d="m121.837 185.74 59.284 35.368 58.882-36.038-118.165.67zm59.294 38.646c-.266 0-.534-.07-.772-.213l-64.73-38.615c-.582-.348-.86-1.042-.683-1.696.18-.655.772-1.11 1.45-1.114l129.013-.733h.01c.675 0 1.27.45 1.453 1.098.187.652-.085 1.35-.663 1.703l-64.286 39.348c-.24.148-.514.222-.79.222"/><path d="m180.917 184.934.218 77.282" fill="#ffca34"/><path d="m179.624 262.22-.218-77.28 3.023-.01.217 77.282-3.023.01z"/><path d="m180.246 161.403h18.958v22.98h-18.958z" fill="#1677bf"/><path d="m181.757 182.872h15.935v-19.957h-15.935zm17.447 3.023h-18.96c-.834 0-1.51-.677-1.51-1.51v-22.982c0-.835.676-1.51 1.51-1.51h18.96c.835 0 1.51.675 1.51 1.51v22.98c0 .835-.675 1.512-1.51 1.512"/><path d="m159.998 161.133h17.57l-14.563-19.82h-14.8z" fill="#3db47a"/><path d="m160.858 159.62h13.724l-12.342-16.795h-11.376l9.994 16.796zm16.71 3.025h-17.568c-.532 0-1.027-.28-1.3-.74l-11.792-19.82c-.278-.467-.284-1.046-.015-1.52.27-.472.772-.764 1.315-.764h14.8c.482 0 .934.23 1.218.618l14.564 19.82c.337.46.388 1.07.13 1.578-.257.508-.778.83-1.348.83"/><path d="m162.142 161.403h24.71v22.98h-24.71z"/><path d="m163.653 182.872h21.687v-19.957h-21.687zm23.198 3.023h-24.71c-.833 0-1.51-.677-1.51-1.51v-22.982c0-.835.677-1.51 1.51-1.51h24.71c.837 0 1.513.675 1.513 1.51v22.98c0 .835-.676 1.512-1.512 1.512"/><path d="m186.852 161.02h-24.71l17.964-16.087h13.01z" fill="#1677bf"/><path d="m166.096 159.508h19.723l5.084-13.063h-10.22l-14.588 13.063zm20.756 3.024h-24.71c-.628 0-1.19-.387-1.413-.972-.225-.585-.064-1.247.403-1.667l17.964-16.086c.277-.248.637-.385 1.01-.385h13.007c.5 0 .967.246 1.248.658.28.412.342.937.16 1.402l-6.262 16.087c-.226.58-.785.962-1.408.962"/><path d="m194.674 144.547 6.157 17.24h-13.978l7.822-17.24z"/><path d="m181.603 170.428 3.922-5.355h-21.415l3.922 5.355h13.57z" fill="#ffca34"/><path d="m177.268 170.604h-4.9l.87-2.27h3.158z"/><path d="m208.863 161.133h-17.57l14.563-19.82h14.8z" fill="#3db47a"/><path d="m194.28 159.62h13.723l9.995-16.795h-11.376zm14.583 3.025h-17.57c-.57 0-1.092-.32-1.348-.83-.258-.508-.208-1.117.13-1.577l14.563-19.82c.285-.388.737-.617 1.218-.617h14.8c.544 0 1.046.293 1.315.766.27.473.265 1.052-.014 1.52l-11.793 19.82c-.273.46-.766.74-1.3.74"/><path d="m164.273 175.933h20.02l-2.595 12.742h-14.83z" fill="#1677bf"/><path d="m168.102 187.163h12.36l1.98-9.718h-16.32zm13.596 3.024h-14.83c-.72 0-1.34-.506-1.483-1.21l-2.593-12.742c-.09-.445.023-.908.31-1.258.287-.352.717-.555 1.17-.555h20.02c.454 0 .884.203 1.17.555.287.35.4.813.31 1.258l-2.593 12.742c-.144.704-.763 1.21-1.482 1.21"/><g fill="#e73c60"><path d="m182.932 167.352-61.822-73.295-36.988-3.78 93.95 77.075zm-10.242 0-95.704-70.866-15.658 13.23 106.502 57.634h4.86z"/><path d="m147.446 77.032c-2.324-4.978-6.447-8.754-11.605-10.628-.176-.065-.354-.12-.532-.18-.17-.068-.34-.138-.513-.2l-12.258-4.458 8.003-5.433c.198-.135.39-.275.582-.417.11-.072.225-.132.335-.206l.003-.002c9.38-6.372 11.83-19.188 5.46-28.57-3.087-4.546-7.758-7.618-13.155-8.65-5.405-1.032-10.876.1-15.415 3.185-.153.104-.3.214-.45.322-.157.1-.316.197-.47.303l-29.389 19.952c-1.006.683-1.928 1.445-2.772 2.264l-12.846 6.286-32.444 3.828c-.125.015-.246.044-.37.062-.244.02-.486.038-.73.067-5.457.643-10.336 3.374-13.74 7.688-3.404 4.315-4.924 9.696-4.28 15.15.643 5.457 3.374 10.337 7.69 13.74 1.513 1.195 3.158 2.155 4.892 2.873-2.198 5.915-1.666 12.762 2.043 18.44 3.493 5.344 9.066 8.528 14.965 9.184 4.58.51 9.354-.505 13.503-3.215.197-.13.387-.265.578-.4.117-.07.238-.133.352-.208l29.544-19.304c.03-.02.06-.034.09-.054 1.54-.727 5.045-2.194 8.83-3.726l27.39 9.96c.153.055.307.1.46.15.193.078.386.158.583.23 1.567.57 3.174.943 4.79 1.123 3.71.41 7.47-.2 10.938-1.818 4.978-2.323 8.754-6.447 10.63-11.61 1.878-5.164 1.632-10.75-.692-15.73"/><path d="m83.463 48.34-37.295-34.18 14.097 41.487 23.198-7.304z"/><path d="m55.328 28.193 7.565 22.266 12.45-3.92-20.013-18.347zm4.936 31.61c-1.735 0-3.348-1.094-3.935-2.82l-14.099-41.488c-.61-1.8.074-3.782 1.665-4.82 1.59-1.038 3.68-.867 5.08.417l37.295 34.184c1.095 1.004 1.57 2.516 1.25 3.966-.323 1.45-1.393 2.618-2.81 3.064l-23.2 7.304c-.413.13-.834.193-1.248.193"/><path d="m62.39 63.017-24.585-19.897 10.39 25.347z"/><path d="m47.81 56.565 2.69 6.563 3.675-1.41-6.366-5.153zm.385 16.06c-1.64 0-3.19-.977-3.847-2.582l-10.39-25.346c-.72-1.757-.158-3.78 1.366-4.912 1.522-1.134 3.62-1.09 5.096.103l24.586 19.898c1.154.935 1.722 2.415 1.49 3.88-.232 1.47-1.23 2.7-2.617 3.233l-14.196 5.447c-.49.19-.994.277-1.49.277"/></g><path d="m93.633 77.115c-2.073-.754-3.143-3.046-2.39-5.12.755-2.073 3.047-3.142 5.12-2.388l34.818 12.66-2.73 7.507-34.817-12.66z" fill="#1677bf"/><path d="m94.15 75.694 33.397 12.143 1.696-4.666-33.396-12.141c-.624-.228-1.298-.198-1.9.083-.6.28-1.055.78-1.28 1.402-.47 1.287.197 2.715 1.483 3.182m34.3 15.592c-.173 0-.348-.03-.516-.09l-34.817-12.66c-2.854-1.038-4.33-4.203-3.294-7.057.503-1.383 1.514-2.487 2.847-3.11 1.333-.62 2.83-.685 4.21-.184l34.817 12.66c.785.285 1.19 1.153.905 1.937l-2.73 7.508c-.137.377-.42.685-.782.854-.202.095-.42.142-.64.142"/><path d="m129.537 90.17c-2.073-.754-3.142-3.046-2.39-5.12.755-2.073 3.047-3.142 5.12-2.388 2.074.754 3.143 3.045 2.39 5.118-.755 2.074-3.046 3.143-5.12 2.39" fill="#1677bf"/><path d="m130.9 83.932c-.357 0-.714.078-1.048.233-.6.28-1.056.78-1.283 1.402-.227.624-.198 1.297.082 1.898.28.6.78 1.057 1.402 1.283.623.226 1.296.198 1.898-.082.6-.28 1.057-.78 1.283-1.402.228-.624.198-1.298-.083-1.9-.28-.6-.778-1.055-1.4-1.282-.278-.1-.565-.15-.85-.15m.004 7.993c-.634 0-1.27-.112-1.885-.336-1.38-.502-2.485-1.513-3.108-2.846-.62-1.332-.687-2.828-.184-4.21.502-1.382 1.512-2.486 2.846-3.108 1.333-.622 2.83-.687 4.21-.185 1.382.503 2.486 1.513 3.108 2.847.622 1.333.688 2.83.185 4.21-.502 1.382-1.513 2.487-2.846 3.108-.74.346-1.53.52-2.324.52"/><path d="m66.666 66.763c2.19-.258 4.176 1.308 4.434 3.5.26 2.19-1.307 4.176-3.498 4.434l-36.792 4.34-.936-7.933 36.792-4.34z" fill="#1677bf"/><path d="m31.552 72.428.582 4.93 35.29-4.162c1.36-.16 2.336-1.397 2.176-2.756-.078-.66-.408-1.248-.928-1.66-.52-.41-1.173-.594-1.828-.515l-35.294 4.163zm-.745 8.12c-.754 0-1.408-.564-1.5-1.333l-.935-7.934c-.047-.396.067-.798.314-1.113.25-.314.613-.517 1.01-.564l36.793-4.34c1.46-.172 2.9.234 4.054 1.145 1.155.91 1.886 2.217 2.06 3.677.354 3.015-1.81 5.757-4.824 6.114l-36.793 4.34c-.06.007-.12.01-.18.01"/><path d="m28.725 71.24c2.19-.26 4.176 1.308 4.435 3.5.258 2.19-1.308 4.175-3.5 4.433-2.19.26-4.175-1.308-4.434-3.5-.258-2.19 1.31-4.175 3.5-4.433" fill="#1677bf"/><path d="m28.902 72.74c-1.36.16-2.335 1.4-2.175 2.758.16 1.36 1.4 2.34 2.757 2.174 1.36-.16 2.335-1.397 2.175-2.756-.08-.66-.41-1.248-.93-1.658-.52-.412-1.166-.594-1.828-.517m.28 7.973c-1.23 0-2.418-.41-3.4-1.184-1.154-.912-1.885-2.217-2.057-3.678-.356-3.014 1.808-5.758 4.823-6.114 1.463-.172 2.902.235 4.055 1.146 1.155.91 1.887 2.217 2.058 3.678.357 3.014-1.807 5.757-4.82 6.113-.22.026-.44.038-.658.038"/><path d="m70.896 78.302c1.847-1.207 4.322-.688 5.53 1.16 1.205 1.846.687 4.32-1.16 5.528l-31.016 20.264-4.368-6.688z" fill="#1677bf"/><path d="m41.974 99.005 2.716 4.157 29.75-19.438c.554-.363.935-.92 1.07-1.57.137-.648.012-1.31-.35-1.865-.75-1.148-2.29-1.47-3.438-.723zm2.28 7.76c-.494 0-.978-.24-1.268-.684l-4.37-6.687c-.22-.335-.296-.744-.214-1.136.082-.393.317-.736.653-.956l31.015-20.264c2.54-1.66 5.96-.944 7.62 1.597.805 1.232 1.082 2.702.78 4.142s-1.147 2.675-2.378 3.48l-31.014 20.263c-.254.166-.54.246-.825.246"/><path d="m38.914 99.2c1.847-1.208 4.322-.69 5.53 1.158 1.205 1.846.687 4.322-1.16 5.53-1.847 1.205-4.323.687-5.53-1.16-1.206-1.848-.687-4.322 1.16-5.53" fill="#1677bf"/><path d="m41.094 100.06c-.477 0-.944.138-1.353.404-.554.363-.935.92-1.07 1.57-.137.65-.012 1.312.35 1.867.364.556.92.937 1.57 1.073.648.138 1.312.01 1.867-.35.555-.365.936-.922 1.072-1.57.134-.65.01-1.313-.352-1.868-.363-.555-.92-.937-1.57-1.072-.17-.036-.343-.054-.514-.054m.016 7.99c-.38 0-.762-.038-1.14-.118-1.44-.302-2.676-1.146-3.48-2.377-.805-1.23-1.082-2.702-.78-4.14.302-1.44 1.146-2.676 2.377-3.48 1.23-.806 2.702-1.083 4.14-.78 1.44.3 2.676 1.145 3.48 2.376.805 1.232 1.083 2.703.78 4.142-.3 1.44-1.145 2.675-2.376 3.48-.906.592-1.942.9-3 .9"/><path d="m56.487 67.2 34.916-12.54 2.23 22.455s-23.573 11.095-24.533 12.157z" fill="#1677bf"/><path d="m58.693 68.013 10.955 19.17c3.897-2.185 13.714-6.898 22.375-10.98l-1.933-19.465-31.397 11.274zm10.407 22.77c-.053 0-.107-.002-.162-.007-.482-.052-.91-.333-1.15-.753l-12.613-22.075c-.22-.387-.26-.854-.106-1.273.154-.42.486-.748.907-.9l34.917-12.535c.44-.155.925-.103 1.318.145.394.25.652.665.698 1.13l2.23 22.453c.063.636-.282 1.244-.86 1.516-8.623 4.06-22.737 10.844-24.134 11.884-.282.27-.655.418-1.043.418"/><path d="m92.25 61.91c-1.823 1.24-4.308.765-5.547-1.06-1.24-1.826-.765-4.31 1.06-5.55l30.65-20.81 4.488 6.61-30.65 20.81z" fill="#1677bf"/><path d="m118.012 36.59-29.4 19.962c-1.13.77-1.428 2.316-.66 3.448.77 1.132 2.316 1.427 3.45.66l29.4-19.963zm-27.996 27.52c-1.765 0-3.5-.845-4.564-2.412-1.705-2.51-1.05-5.942 1.463-7.647l30.65-20.81c.69-.47 1.63-.29 2.1.4l4.487 6.61c.225.332.31.74.235 1.133-.076.393-.304.74-.636.966l-30.651 20.81c-.945.642-2.02.95-3.084.95"/><path d="m123.858 40.45c-1.825 1.24-4.31.764-5.548-1.06-1.24-1.826-.765-4.31 1.06-5.55 1.826-1.24 4.31-.764 5.55 1.06 1.238 1.826.763 4.31-1.062 5.55" fill="#1677bf"/><path d="m121.61 34.662c-.493 0-.973.146-1.39.43-.55.372-.92.936-1.044 1.587-.124.65.012 1.31.384 1.86.373.548.937.92 1.588 1.044.65.125 1.312-.012 1.86-.385.55-.374.92-.938 1.045-1.59.124-.65-.013-1.31-.384-1.86-.374-.548-.938-.918-1.59-1.043-.156-.03-.314-.045-.47-.045m.015 7.99c-.346 0-.697-.033-1.045-.1-1.445-.275-2.695-1.097-3.52-2.315-.828-1.215-1.13-2.68-.854-4.125.277-1.446 1.098-2.696 2.315-3.52 2.512-1.708 5.944-1.052 7.65 1.46.825 1.217 1.128 2.682.852 4.127-.276 1.443-1.1 2.694-2.315 3.52-.923.628-1.99.953-3.082.953"/><path d="m97.04 72.254c-3.033 1.415-6.637.104-8.052-2.927-1.415-3.032-.104-6.637 2.927-8.05 3.032-1.417 6.637-.106 8.05 2.926 1.416 3.03.106 6.636-2.926 8.05" fill="#1677bf"/><path d="m94.474 62.216c-.655 0-1.31.144-1.92.428-1.1.514-1.935 1.426-2.35 2.567-.415 1.142-.36 2.376.154 3.477.513 1.1 1.425 1.935 2.566 2.35 1.14.414 2.373.36 3.476-.154 2.27-1.06 3.256-3.77 2.196-6.04-.513-1.1-1.425-1.936-2.566-2.35-.507-.185-1.033-.277-1.556-.277m.008 12.122c-.873 0-1.747-.153-2.59-.46-1.902-.69-3.42-2.08-4.274-3.913-.855-1.832-.946-3.887-.255-5.787.69-1.9 2.08-3.417 3.913-4.273 3.782-1.763 8.295-.123 10.06 3.66 1.765 3.78.125 8.292-3.658 10.058-1.017.475-2.105.715-3.196.715"/><path d="m292.54 274.853h15.232v33.636h-15.23z" fill="#1677bf"/><path d="m294.053 306.977h12.208v-30.613h-12.207v30.613zm13.72 3.023h-15.233c-.833 0-1.51-.677-1.51-1.51v-33.637c0-.836.677-1.512 1.51-1.512h15.232c.835 0 1.512.677 1.512 1.513v33.636c0 .833-.677 1.51-1.512 1.51"/><path d="m278.603 274.853h19.015v33.636h-19.015z" fill="#1677bf"/><path d="m280.115 306.977h15.992v-30.613h-15.992zm17.503 3.023h-19.015c-.834 0-1.51-.677-1.51-1.51v-33.637c0-.836.676-1.512 1.51-1.512h19.015c.835 0 1.512.677 1.512 1.513v33.636c0 .833-.677 1.51-1.512 1.51"/><path d="m279.237 294.285h19.016v3.023h-19.016z"/><path d="m286.603 295.133h3.023v12.08h-3.023z"/><path d="m249.38 236.94 7.193-15.064 16.684.562 27.702 45.604-7.234 14.997-16.643-.494-27.703-45.605z" fill="#1677bf"/><path d="m277.95 281.06 14.84.44 6.45-13.376-26.85-44.203-14.88-.5-6.414 13.435 26.853 44.204zm15.776 3.49h-.045l-16.642-.493c-.512-.015-.98-.29-1.247-.726l-27.702-45.604c-.265-.435-.292-.976-.072-1.435l7.192-15.064c.26-.543.81-.89 1.416-.86l16.684.56c.51.017.976.29 1.24.727l27.703 45.604c.27.438.294.98.072 1.442l-7.234 14.995c-.253.524-.783.855-1.362.855"/><path d="m256.572 221.876 37.154 61.163" fill="#1677bf"/><path d="m292.434 283.823-37.154-61.163 2.584-1.568 37.153 61.162-2.583 1.57z"/><path d="m212.2 189.808 11.248-23.563 26.095.878 43.33 71.33-11.314 23.456-26.032-.77-43.33-71.332z" fill="#e73c60"/><path d="m256.395 259.65 24.23.72 10.53-21.834-42.48-69.93-24.29-.817-10.47 21.932 42.48 69.93zm25.164 3.77h-.046l-26.03-.77c-.51-.015-.98-.29-1.247-.727l-43.33-71.33c-.265-.436-.293-.976-.073-1.436l11.25-23.564c.26-.542.814-.888 1.415-.86l26.095.88c.51.016.976.29 1.24.726l43.33 71.33c.267.436.293.978.07 1.44l-11.314 23.455c-.253.524-.78.856-1.36.856"/><path d="m223.448 166.245 58.11 95.663" fill="#e73c60"/><path d="m280.267 262.693-58.11-95.664 2.582-1.57 58.11 95.664-2.583 1.57z"/><path d="m231.432 153.057-23.007 23.007h14.46l23.008-23.007h-14.46z" fill="#e73c60"/><path d="m212.074 174.552h10.186l19.984-19.984h-10.186zm10.812 3.023h-14.46c-.612 0-1.163-.368-1.398-.933-.233-.565-.105-1.214.33-1.647l23.006-23.008c.283-.283.667-.442 1.07-.442h14.46c.61 0 1.162.368 1.396.933.235.565.105 1.214-.327 1.647l-23.008 23.008c-.284.283-.668.442-1.07.442"/><path d="m245.893 153.057-23.007 23.007h21.692l23.007-23.007z" fill="#e73c60"/><path d="m226.536 174.552h17.416l19.984-19.984h-17.416zm18.04 3.023h-21.69c-.61 0-1.162-.368-1.397-.933-.234-.565-.105-1.214.328-1.647l23.007-23.008c.283-.283.667-.442 1.07-.442h21.69c.61 0 1.162.368 1.397.933.233.565.105 1.214-.33 1.647l-23.006 23.008c-.283.283-.667.442-1.07.442"/><path d="m159.02 262.134h9.08l4.578 27.42h-18.238z" fill="#1677bf"/><path d="m156.185 288.078h14.75l-4.085-24.468h-6.58zm16.493 2.955h-18.238c-.433 0-.845-.192-1.126-.523-.28-.332-.4-.77-.33-1.197l4.58-27.423c.118-.712.733-1.233 1.455-1.233h9.08c.722 0 1.338.52 1.457 1.233l4.578 27.423c.072.428-.05.865-.33 1.197-.28.33-.693.523-1.127.523"/><path d="m194.175 262.134h9.08l4.58 27.42h-18.238z" fill="#1677bf"/><path d="m191.34 288.078h14.75l-4.084-24.468h-6.58l-4.085 24.468zm16.494 2.955h-18.237c-.434 0-.846-.192-1.127-.523-.28-.332-.4-.77-.33-1.197l4.58-27.423c.118-.712.733-1.233 1.455-1.233h9.08c.723 0 1.34.52 1.458 1.233l4.578 27.423c.073.428-.048.865-.33 1.197-.28.33-.692.523-1.126.523"/></g></svg>