<svg clip-rule="evenodd" fill-rule="evenodd" stroke-linejoin="round" stroke-miterlimit="1.414" viewBox="0 0 320 320" xmlns="http://www.w3.org/2000/svg"><g fill-rule="nonzero"><path d="m57.56 120.27h11.823v26.11h-11.823z" fill="#1677bf"/><path d="m58.545 145.394h9.853v-24.138h-9.853zm10.837 1.97h-11.822c-.544 0-.985-.44-.985-.985v-26.11c0-.543.44-.985.985-.985h11.822c.544 0 .985.442.985.986v26.11c0 .544-.44.985-.985.985"/><path d="m80.2 146.38v-32.32l-14.758 6.21v26.11h14.76z" fill="#1677bf"/><path d="m66.427 145.394h12.79v-29.85l-12.79 5.38zm13.774 1.97h-14.761c-.543 0-.984-.44-.984-.984v-26.11c0-.395.238-.753.603-.907l14.76-6.21c.303-.128.65-.096.926.087.275.182.44.49.44.82v32.32c0 .544-.44.985-.985.985"/><path d="m64.95 135.542h14.76v1.97h-14.76z"/><path d="m71.833 136.012h1.97v9.375h-1.97z"/><path d="m123.378 82.86h73.734v57.08h-73.734z" fill="#1677bf"/><path d="m124.364 138.955h71.763v-55.11h-71.763zm72.748 1.97h-73.734c-.544 0-.985-.44-.985-.985v-57.082c0-.544.44-.985.985-.985h73.734c.544 0 .985.44.985.985v57.082c0 .544-.44.985-.985.985"/><path d="m150.986 130.84-12.767 55.454-29.073-.776 26.685-54.678h15.154z" fill="#1677bf"/><path d="m110.704 184.574 26.735.713 12.308-53.46h-13.3l-25.744 52.747zm27.515 2.705c-.01 0-.02 0-.028-.002l-29.072-.776c-.334-.008-.642-.187-.815-.473-.174-.288-.19-.643-.044-.944l26.686-54.678c.166-.338.51-.552.885-.552h15.156c.3 0 .584.136.77.37.188.236.258.543.19.836l-12.767 55.453c-.104.448-.503.764-.96.764"/><path d="m146.322 130.84-14.778 53.94h-27.338l27.338-53.94z" fill="#1677bf"/><path d="m105.81 183.794h24.983l14.237-51.968h-12.88zm25.735 1.97h-27.34c-.342 0-.66-.178-.84-.47-.18-.29-.193-.655-.038-.96l27.34-53.94c.167-.33.506-.54.878-.54h14.777c.307 0 .597.144.783.39.187.244.25.56.167.857l-14.777 53.94c-.118.427-.506.724-.95.724"/><path d="m137.25 199.594-21.123-9.15-17.078 2.298-33.964 115.99h83.454l-11.29-109.138z" fill="#3db47a"/><path d="m66.73 307.5h80.445l-11.075-107.062-20.148-8.73-15.945 2.147zm81.81 2.463h-83.454c-.388 0-.753-.182-.986-.493-.232-.31-.305-.712-.196-1.084l33.964-115.99c.136-.467.535-.81 1.018-.875l17.077-2.298c.22-.03.448.002.654.09l21.122 9.152c.407.177.688.56.734 1.004l11.29 109.137c.037.347-.076.693-.31.952-.233.26-.565.406-.914.406"/><path d="m130.067 197.34-1.478 111.392" fill="#3db47a"/><path d="m129.82 308.748-2.463-.033 1.478-111.39 2.463.03-1.477 111.393z"/><path d="m53.938 287.994h52.77l-6.16 20.775h-54l7.39-20.776z" fill="#3db47a"/><path d="m48.293 307.537h51.337l5.428-18.31h-50.25zm52.257 2.463h-54.003c-.4 0-.776-.194-1.007-.522-.23-.327-.287-.745-.153-1.122l7.39-20.775c.175-.49.64-.818 1.16-.818h52.77c.39 0 .755.184.987.495.232.312.304.714.194 1.087l-6.16 20.775c-.154.52-.634.88-1.18.88"/><path d="m128.878 276.53-22.17 11.464h-52.77l29.56-12.42z" fill="#3db47a"/><path d="m60.05 286.762h46.358l17.604-9.102-40.278-.85-23.685 9.952zm46.657 2.463h-52.77c-.586 0-1.09-.413-1.207-.988-.115-.575.19-1.15.73-1.38l29.56-12.418c.16-.068.33-.107.505-.097l45.38.956c.562.01 1.045.403 1.173.952.127.55-.134 1.113-.635 1.372l-22.17 11.464c-.175.09-.37.137-.566.137"/><path d="m102.19 181.348 30.094-.263 7.422 2.992v18.472l-9.413-6.458-34.984-.023 6.88-14.722z" fill="#e73c60"/><path d="m96.857 195.085 33.436.022c.2 0 .393.06.556.172l7.87 5.4v-15.939l-6.624-2.67-29.275.256-5.963 12.757zm42.85 8.45c-.196 0-.39-.06-.558-.173l-9.164-6.285-34.677-.023c-.338 0-.652-.172-.832-.456s-.204-.64-.06-.946l6.88-14.72c.16-.345.505-.566.884-.57l30.092-.262c.135-.01.258.022.378.07l7.423 2.993c.372.15.616.512.616.914v18.472c0 .365-.2.7-.525.87-.144.077-.302.115-.46.115"/><path d="m132.71 180.708-2.417 18.11" fill="#1677bf"/><path d="m131.27 198.948-1.954-.26 2.42-18.11 1.952.26-2.42 18.11z"/><path d="m106.443 251.28 7.47 15.33h-20.276l2.668-15.33" fill="#3db47a"/><path d="m113.914 267.842h-20.278c-.364 0-.708-.16-.943-.438-.234-.28-.333-.646-.27-1.004l2.668-15.333 2.427.423-2.417 13.89h16.844l-6.608-13.562 2.214-1.078 7.47 15.332c.187.38.164.832-.06 1.192-.227.36-.62.578-1.046.578"/><path d="m96.304 251.28h10.14l7.47-45.997h-10.14l-7.47 45.996z" fill="#3db47a"/><path d="m97.752 250.047h7.643l7.072-43.532h-7.644l-7.07 43.532zm8.69 2.463h-10.137c-.36 0-.704-.158-.938-.433s-.336-.64-.277-.995l7.47-45.996c.096-.596.61-1.035 1.215-1.035h10.14c.36 0 .703.16.937.435s.335.64.278.996l-7.47 45.996c-.098.597-.613 1.034-1.217 1.034"/><path d="m115.138 266.75-2.448-.278 6.783-59.957h-5.56v-2.463h6.938c.352 0 .687.15.92.41.234.262.345.61.306.96l-6.938 61.327z"/><path d="m130.293 144.88h6.668l2.938-6.65h-6.67l-2.935 6.65z" fill="#1677bf"/><path d="m131.805 143.894h4.515l2.066-4.68h-4.515l-2.065 4.68zm5.156 1.97h-6.668c-.332 0-.643-.168-.825-.447-.182-.28-.21-.63-.076-.936l2.94-6.65c.156-.356.51-.586.9-.586h6.668c.333 0 .644.168.826.447.18.28.21.633.075.937l-2.938 6.65c-.157.357-.51.587-.9.587"/><path d="m124.52 157.856h7.502l3.304-7.48h-7.502z" fill="#1677bf"/><path d="m126.032 156.87h5.35l2.433-5.51h-5.35zm5.99 1.97h-7.502c-.333 0-.643-.167-.825-.446-.182-.28-.21-.63-.076-.936l3.303-7.48c.157-.358.51-.588.9-.588h7.503c.334 0 .644.168.826.447.182.28.21.63.076.936l-3.305 7.48c-.157.358-.51.588-.9.588"/><path d="m115.584 173.51h10.533l4.638-10.504h-10.533z" fill="#1677bf"/><path d="m117.096 172.525h8.38l3.768-8.533h-8.38zm9.02 1.97h-10.532c-.333 0-.644-.168-.826-.447-.18-.28-.21-.63-.075-.936l4.638-10.504c.16-.357.512-.587.902-.587h10.533c.333 0 .644.17.826.448.183.28.21.632.077.936l-4.64 10.504c-.157.357-.51.587-.9.587"/><path d="m140.178 262.85h5.88c3.124 0 5.656 5.57 5.656 12.443 0 6.87-2.532 12.44-5.655 12.44h-5.882c-3.124 0-5.656-5.57-5.656-12.44 0-6.872 2.532-12.442 5.656-12.442" fill="#3db47a"/><path d="m140.178 264.083c-2.09 0-4.424 4.794-4.424 11.21s2.335 11.21 4.424 11.21h5.88c2.09 0 4.424-4.794 4.424-11.21s-2.335-11.21-4.423-11.21h-5.882zm5.88 24.883h-5.88c-3.927 0-6.887-5.88-6.887-13.673 0-7.795 2.96-13.673 6.888-13.673h5.88c3.927 0 6.887 5.878 6.887 13.673 0 7.794-2.96 13.673-6.886 13.673"/><path d="m145.267 262.85h.792c3.122 0 5.654 5.57 5.654 12.443 0 6.87-2.532 12.44-5.655 12.44h-.793c-3.123 0-5.655-5.57-5.655-12.44 0-6.872 2.532-12.442 5.655-12.442" fill="#3db47a"/><path d="m145.712 286.503h.347c2.087 0 4.423-4.794 4.423-11.21s-2.336-11.21-4.424-11.21h-.793c-2.088 0-4.424 4.794-4.424 11.21s2.336 11.21 4.424 11.21h.445zm.347 2.463h-.793c-3.926 0-6.887-5.88-6.887-13.673 0-7.795 2.96-13.673 6.887-13.673h.792c3.925 0 6.885 5.878 6.885 13.673 0 7.794-2.96 13.673-6.886 13.673"/><path d="m44.968 126.853h11.147l33.435-33.436-5.573-5.573-39.01 39.01z" fill="#1677bf"/><path d="m47.347 125.868h8.36l32.45-32.45-4.18-4.18zm8.767 1.97h-11.146c-.398 0-.757-.24-.91-.608-.152-.368-.068-.792.213-1.073l39.01-39.01c.385-.384 1.008-.384 1.393 0l5.573 5.574c.385.386.385 1.01 0 1.394l-33.437 33.435c-.184.184-.435.288-.696.288"/><path d="m56.115 126.853h16.72l25.075-25.075-5.573-5.574-2.787-2.787z" fill="#1677bf"/><path d="m58.493 125.868h13.933l24.09-24.09-6.966-6.967-31.057 31.058zm14.342 1.97h-16.72c-.4 0-.758-.24-.91-.608-.153-.368-.07-.792.213-1.073l33.435-33.437c.385-.384 1.01-.384 1.394 0l8.36 8.36c.384.386.384 1.01 0 1.394l-25.077 25.076c-.183.184-.434.288-.695.288"/><path d="m134.72 47.822-8.672-18.163-20.115.676-33.4 54.98 8.723 18.08 20.064-.593z" fill="#e73c60"/><path d="m73.654 85.37 8.21 17.023 18.892-.56 32.844-54.066-8.163-17.1-18.938.636-32.846 54.07zm7.602 19.012c-.378 0-.723-.216-.888-.557l-8.72-18.08c-.146-.3-.13-.654.044-.94l33.4-54.98c.17-.285.476-.463.808-.474l20.115-.676c.392-.008.753.207.922.56l8.67 18.163c.144.3.126.652-.046.936l-33.398 54.98c-.173.287-.48.465-.813.474l-20.065.594c-.01.002-.02.002-.03.002"/><path d="m126.048 29.66-44.792 73.737" fill="#e73c60"/><path d="m82.098 103.908-1.684-1.023 44.792-73.738 1.684 1.024-44.792 73.738z"/><path d="m185.77 47.822 8.672-18.163 20.115.676 33.398 54.98-8.72 18.08-20.065-.593z" fill="#e73c60"/><path d="m219.734 101.834 18.89.56 8.21-17.023-32.843-54.067-18.937-.637-8.164 17.1 32.844 54.068zm19.5 2.548h-.03l-20.063-.594c-.333-.01-.64-.188-.812-.474l-33.4-54.98c-.172-.285-.19-.637-.046-.936l8.67-18.163c.17-.354.538-.57.923-.56l20.115.676c.332.012.637.19.81.474l33.397 54.982c.174.285.19.638.046.94l-8.722 18.08c-.164.34-.51.556-.886.556"/><path d="m194.442 29.66 44.792 73.737" fill="#e73c60"/><path d="m238.392 103.908-44.792-73.738 1.684-1.023 44.792 73.738z"/><path d="m138.588 80.06h43.314v33.927h-43.314z" fill="#1677bf"/><path d="m139.573 113h41.344v-31.954h-41.344zm42.33 1.97h-43.316c-.543 0-.985-.44-.985-.984v-33.926c0-.544.442-.985.985-.985h43.315c.544 0 .985.44.985.985v33.926c0 .544-.44.985-.985.985"/><path d="m114.97 47.057h90.548v72.894h-90.548z" fill="#c17b4a"/><path d="m115.957 118.965h88.576v-70.923h-88.576zm89.56 1.97h-90.546c-.542 0-.984-.44-.984-.984v-72.893c0-.544.442-.985.985-.985h90.548c.544 0 .985.44.985.985v72.894c0 .545-.44.986-.985.986"/><path d="m262.808 45.233-22.77-14.902-22.77 14.903v46.19l22.77 14.77 22.77-14.77v-46.19z" fill="#1677bf"/><path d="m218.254 90.888 21.784 14.13 21.785-14.13v-45.123l-21.785-14.257-21.784 14.257zm21.784 16.29c-.186 0-.373-.052-.536-.158l-22.77-14.77c-.28-.182-.448-.493-.448-.827v-46.19c0-.333.167-.642.445-.825l22.77-14.9c.326-.216.75-.216 1.078 0l22.77 14.9c.278.183.445.492.445.825v46.19c0 .334-.168.645-.45.827l-22.768 14.77c-.163.106-.35.16-.537.16"/><path d="m239.053 30.33h1.97v75.864h-1.97z"/><path d="m119.002 19.493 17.734 17.735h-11.146l-17.734-17.735z" fill="#e73c60"/><path d="m125.998 36.242h8.36l-15.764-15.762h-8.36zm10.738 1.97h-11.146c-.262 0-.512-.103-.697-.288l-17.733-17.734c-.283-.282-.367-.706-.215-1.074.153-.368.512-.608.91-.608h11.147c.262 0 .512.104.697.29l17.733 17.733c.282.282.366.706.213 1.075-.152.368-.51.608-.91.608"/><path d="m107.856 19.493 17.734 17.735h-16.72l-17.734-17.735z" fill="#e73c60"/><path d="m109.277 36.242h13.934l-15.761-15.762h-13.936zm16.313 1.97h-16.72c-.262 0-.512-.103-.697-.288l-17.733-17.734c-.283-.282-.367-.706-.215-1.074.153-.368.512-.608.91-.608h16.72c.26 0 .512.104.697.29l17.734 17.733c.282.282.366.706.214 1.075-.153.368-.512.608-.91.608"/><path d="m201.488 19.493-17.735 17.735h11.147l17.734-17.735z" fill="#e73c60"/><path d="m186.132 36.242h8.36l15.764-15.763h-8.36l-15.766 15.761zm8.768 1.97h-11.147c-.398 0-.757-.24-.91-.607-.152-.37-.068-.793.213-1.074l17.735-17.733c.186-.185.436-.29.697-.29h11.147c.398 0 .758.24.91.61.153.367.07.79-.213 1.073l-17.733 17.734c-.185.185-.436.29-.697.29"/><path d="m212.634 19.493-17.734 17.735h16.72l17.734-17.735z" fill="#e73c60"/><path d="m197.28 36.242h13.932l15.764-15.763h-13.934l-15.762 15.761zm14.34 1.97h-16.72c-.398 0-.757-.24-.91-.607-.152-.37-.068-.793.213-1.074l17.735-17.733c.185-.185.435-.29.696-.29h16.72c.4 0 .758.24.91.61.153.367.07.79-.213 1.073l-17.733 17.734c-.185.185-.436.29-.697.29"/><path d="m239.188 41.707v21.636l18.917-18.917v-21.636z" fill="#1677bf"/><path d="m240.174 42.115v18.85l16.946-16.947v-18.85zm-.986 22.213c-.127 0-.255-.025-.377-.075-.367-.152-.607-.512-.607-.91v-21.636c0-.26.104-.512.29-.696l18.916-18.917c.28-.282.703-.366 1.072-.213.37.152.61.51.61.91v21.635c0 .262-.105.512-.29.697l-18.917 18.917c-.188.188-.44.288-.697.288"/><path d="m173.146 27.664-9.748-.07 8.08-16.61h8.21z" fill="#3db47a"/><path d="m164.968 26.62 7.508.054 5.768-14.704h-6.15zm8.178 2.03h-.007l-9.748-.072c-.34-.002-.652-.178-.83-.465-.18-.288-.197-.647-.05-.95l8.08-16.61c.165-.337.51-.553.886-.553h8.21c.327 0 .632.16.815.43.184.27.223.612.104.915l-6.543 16.68c-.148.376-.513.624-.918.624"/><path d="m147.344 27.664 9.747-.07-8.078-16.61h-8.21l6.542 16.68z" fill="#3db47a"/><path d="m142.245 11.97 5.77 14.704 7.507-.055-7.126-14.65h-6.15zm5.098 16.68c-.405 0-.768-.248-.917-.626l-6.543-16.68c-.12-.302-.08-.645.103-.914.184-.27.49-.43.814-.43h8.212c.377 0 .72.215.886.554l8.08 16.608c.147.304.13.663-.05.95-.18.288-.492.464-.83.466l-9.747.07h-.007z"/><path d="m171.27 26.86h-22.193l-.33 7.506 11.538 1.27 11.535-1.27-.55-7.507z"/><path d="m149.772 33.487 10.51 1.16 10.486-1.157-.413-5.645h-20.335zm10.51 3.136c-.035 0-.07-.002-.107-.006l-11.536-1.272c-.517-.057-.9-.504-.877-1.023l.33-7.506c.022-.527.456-.942.983-.942h22.195c.517 0 .946.4.984.914l.548 7.506c.038.528-.348.993-.875 1.05l-11.536 1.273c-.034.004-.07.006-.107.006"/><path d="m167.238 36.087h-14.048l-.208 13.412 7.3.805 7.303-.806-.347-13.413z" fill="#1677bf"/><path d="m153.98 48.62 6.303.694 6.294-.694-.3-11.548h-12.117l-.18 11.547zm6.303 2.67c-.036 0-.072-.002-.108-.006l-7.3-.805c-.506-.057-.886-.488-.88-.995l.21-13.413c.008-.538.446-.97.985-.97h14.048c.534 0 .97.426.984.96l.348 13.412c.013.512-.368.95-.877 1.005l-7.302.804c-.034.004-.07.006-.107.006m13.792-24.366h-27.586l.65-3.268h26.287l.65 3.268z"/><path d="m147.69 25.937h25.186l-.258-1.298h-24.67l-.258 1.297zm26.387 1.97h-27.587c-.295 0-.574-.132-.76-.36-.19-.227-.263-.527-.206-.817l.65-3.268c.09-.462.496-.793.966-.793h26.287c.47 0 .874.33.966.79l.65 3.27c.058.29-.018.59-.205.817-.187.228-.466.36-.76.36"/><path d="m156.067 29.836 3.274 3.968" fill="#1677bf"/><path d="m158.58 34.43-3.273-3.967 1.52-1.254 3.274 3.967-1.52 1.254z"/><path d="m164.5 29.836-3.274 3.968" fill="#1677bf"/><path d="m161.986 34.43-1.52-1.253 3.274-3.968 1.52 1.253z"/><path d="m156.21 32.05h8.146l-1.055 5.185h-6.034l-1.055-5.184z" fill="#1677bf"/><path d="m158.07 36.25h4.426l.654-3.214h-5.733l.654 3.214zm5.23 1.97h-6.034c-.468 0-.872-.33-.966-.788l-1.055-5.185c-.06-.29.016-.59.202-.82.188-.23.468-.36.764-.36h8.146c.296 0 .576.13.763.36.186.23.26.53.202.82l-1.056 5.185c-.093.46-.497.788-.965.788m-6.608-21.922-2.958 7.402.986 3.166h11.125l.986-3.166-2.956-7.402h-7.18z"/><path d="m155.446 25.88h9.675l.667-2.14-2.58-6.457h-5.847l-2.58 6.458.666 2.14zm10.4 1.97h-11.126c-.43 0-.81-.28-.94-.69l-.986-3.167c-.067-.216-.058-.45.026-.66l2.958-7.4c.15-.375.512-.62.915-.62h7.18c.404 0 .767.245.916.62l2.956 7.4c.084.21.093.444.026.66l-.986 3.166c-.128.41-.51.69-.94.69"/><path d="m173.753 33.27c-1.786.824-2.453 1.49-3.274 1.49-.823 0-1.49-.666-1.49-1.49l4.342-9.32h3.777l-3.357 9.32z" fill="#e73c60"/><path d="m170.002 33.433c.067.198.255.342.476.342.235 0 .556-.175 1.15-.508.36-.203.792-.447 1.335-.712l2.744-7.62h-1.747zm.476 2.312c-1.363 0-2.473-1.11-2.473-2.474 0-.142.03-.284.092-.415l4.342-9.32c.16-.348.51-.57.892-.57h3.777c.32 0 .62.157.805.42.184.26.23.597.12.9l-3.355 9.32c-.09.25-.275.45-.515.562-.654.3-1.14.575-1.57.817-.757.425-1.354.76-2.117.76"/><path d="m173.193 35.627h-7.74l2.673-4.26h6.305l-1.237 4.26z" fill="#c17b4a"/><path d="m167.235 34.642h5.22l.664-2.29h-4.448l-1.437 2.29zm5.96 1.97h-7.74c-.36 0-.69-.194-.863-.508-.174-.313-.163-.696.027-1l2.67-4.26c.182-.287.497-.462.836-.462h6.305c.312 0 .603.146.79.394.186.248.244.57.158.866l-1.238 4.26c-.123.42-.508.71-.946.71"/><path d="m146.737 33.27c2.427.824 3.093 1.49 3.915 1.49s1.488-.666.848-1.49l-4.342-9.32h-3.777l3.357 9.32z" fill="#e73c60"/><path d="m147.505 32.496c.96.347 1.626.66 2.13.898.53.25.817.38 1.017.38-.016-.028-.032-.057-.045-.086l-4.078-8.752h-1.747l2.722 7.56zm3.147 3.25c-.65 0-1.183-.252-1.857-.57-.566-.266-1.27-.597-2.374-.97-.283-.098-.51-.318-.61-.6l-3.356-9.322c-.11-.302-.064-.637.12-.9.186-.263.486-.42.807-.42h3.777c.383 0 .732.223.893.57l4.3 9.232c.43.61.51 1.29.22 1.888-.324.663-1.077 1.09-1.918 1.09"/><path d="m147.296 35.627h7.74l-2.672-4.26h-6.306z" fill="#c17b4a"/><path d="m148.036 34.642h5.22l-1.438-2.29h-4.447l.666 2.29zm7 1.97h-7.74c-.438 0-.823-.29-.946-.71l-1.238-4.26c-.086-.297-.028-.618.158-.866s.478-.394.788-.394h6.306c.34 0 .654.175.834.462l2.672 4.26c.19.304.202.687.028 1-.174.314-.504.51-.862.51"/><path d="m154.966 32.717h-4.276l.546-5.508h3.184l.546 5.507z" fill="#1677bf"/><path d="m151.778 31.732h2.1l-.35-3.538h-1.4zm3.188 1.97h-4.276c-.278 0-.544-.117-.73-.324-.187-.205-.278-.48-.25-.758l.545-5.508c.05-.504.474-.888.98-.888h3.185c.507 0 .93.384.98.888l.546 5.508c.027.277-.063.553-.25.758-.187.207-.452.324-.73.324"/><path d="m150.69 32.717h4.276l-.546 5.907h-3.185z" fill="#3db47a"/><path d="m152.134 37.64h1.388l.363-3.938h-2.115l.364 3.937zm2.286 1.97h-3.184c-.51 0-.935-.39-.98-.895l-.547-5.907c-.026-.276.065-.55.252-.755.186-.205.45-.32.728-.32h4.275c.278 0 .542.115.728.32.187.205.28.48.253.755l-.545 5.907c-.046.506-.47.894-.98.894"/><path d="m169.877 32.717h-4.277l.547-5.508h3.184l.547 5.507z" fill="#1677bf"/><path d="m166.69 31.732h2.1l-.35-3.538h-1.4zm3.187 1.97h-4.277c-.277 0-.543-.117-.73-.324-.186-.205-.277-.48-.25-.758l.546-5.508c.05-.504.474-.888.98-.888h3.186c.506 0 .93.384.98.888l.545 5.508c.028.277-.063.553-.25.758-.186.207-.452.324-.73.324"/><path d="m165.6 32.717h4.277l-.546 5.907h-3.183l-.546-5.907z" fill="#3db47a"/><path d="m167.045 37.64h1.388l.363-3.938h-2.114l.363 3.937zm2.286 1.97h-3.183c-.51 0-.935-.39-.98-.895l-.547-5.907c-.025-.276.066-.55.253-.755s.45-.32.728-.32h4.277c.277 0 .54.115.728.32.186.205.278.48.253.755l-.546 5.907c-.046.506-.472.894-.98.894"/><path d="m164.12 30.332 2.218-3.03h-12.11l2.218 3.03z" fill="#ffca34"/><path d="m161.67 30.43h-2.773l.494-1.282h1.786l.493 1.283z"/><path d="m165.41 25.827h-10.254l1.33-10.377h7.595l1.33 10.377z" fill="#1677bf"/><path d="m156.276 24.842h8.015l-1.075-8.407h-5.863l-1.076 8.407zm9.134 1.97h-10.254c-.283 0-.553-.12-.74-.334-.186-.213-.273-.496-.237-.776l1.328-10.377c.063-.492.482-.86.978-.86h7.595c.498 0 .916.368.98.86l1.327 10.377c.036.28-.05.563-.238.776-.187.213-.457.334-.74.334"/><path d="m141.77 105.21h36.95l19.892-56.16h-31.257l-7.11 20.074-7.11-20.074h-31.257z" fill="#c17b4a"/><path d="m142.466 104.223h35.558l19.193-54.187h-29.167l-6.877 19.417c-.14.393-.51.656-.928.656-.417 0-.79-.264-.93-.657l-6.877-19.417h-29.166l19.194 54.187zm36.254 1.97h-36.95c-.418 0-.79-.262-.93-.655l-19.89-56.16c-.108-.3-.06-.635.123-.896.185-.262.485-.417.805-.417h31.257c.417 0 .79.263.928.656l6.182 17.453 6.182-17.452c.14-.392.51-.655.928-.655h31.257c.32 0 .62.155.805.417.184.26.23.596.123.897l-19.892 56.158c-.14.393-.51.656-.928.656"/><path d="m110.523 45.282 99.444-.565-49.552 30.33z" fill="#ffca34"/><path d="m114.064 46.246 46.344 27.65 46.03-28.174zm46.35 29.785c-.174 0-.348-.045-.503-.138l-49.89-29.765c-.38-.226-.563-.678-.447-1.105s.503-.723.945-.726l99.442-.564h.006c.44 0 .827.292.948.715.12.425-.056.88-.434 1.11l-49.55 30.33c-.158.096-.336.144-.515.144"/><path d="m160.25 45.8.168 59.13" fill="#ffca34"/><path d="m159.433 104.932-.17-59.128 1.97-.005.17 59.127-1.97.005z"/><path d="m170.346 130.84 12.768 55.454 29.07-.776-26.683-54.678h-15.154z" fill="#1677bf"/><path d="m171.584 131.826 12.31 53.462 26.734-.714-25.742-52.748zm11.53 55.453c-.458 0-.857-.317-.96-.765l-12.768-55.453c-.067-.293.003-.6.19-.835s.47-.372.77-.372h15.154c.378 0 .72.215.887.553l26.684 54.678c.148.3.13.656-.042.943-.174.285-.48.464-.816.473l-29.07.776h-.028"/><path d="m175.01 130.84 14.778 53.94h27.34l-27.34-53.94z" fill="#1677bf"/><path d="m190.54 183.794h24.983l-26.34-51.968h-12.88zm26.587 1.97h-27.337c-.446 0-.835-.297-.952-.725l-14.778-53.939c-.08-.296-.02-.612.167-.857.186-.245.476-.388.783-.388h14.78c.37 0 .71.21.877.54l27.34 53.94c.154.304.14.668-.04.96-.18.29-.497.47-.84.47"/><path d="m184.083 199.594 21.123-9.15 17.077 2.298 33.964 115.99h-83.454z" fill="#3db47a"/><path d="m174.158 307.5h80.445l-33.277-113.645-15.945-2.146-20.146 8.727zm82.09 2.463h-83.455c-.35 0-.68-.147-.915-.406-.233-.26-.346-.605-.31-.952l11.29-109.137c.046-.444.327-.827.736-1.004l21.122-9.15c.206-.09.433-.12.654-.092l17.078 2.3c.482.064.88.407 1.017.874l33.964 115.99c.108.372.035.774-.197 1.084-.233.31-.598.493-.986.493"/><path d="m191.266 197.34 1.478 111.392" fill="#3db47a"/><path d="m191.512 308.748-1.477-111.392 2.463-.032 1.477 111.39z"/><path d="m267.395 287.994h-52.77l6.16 20.775h54l-7.39-20.776z" fill="#3db47a"/><path d="m221.703 307.537h51.337l-6.514-18.31h-50.25zm53.082 2.463h-54c-.547 0-1.027-.36-1.18-.88l-6.16-20.776c-.11-.373-.04-.775.194-1.087.23-.31.597-.495.986-.495h52.77c.52 0 .985.328 1.16.82l7.39 20.774c.134.377.076.795-.154 1.122-.23.328-.606.522-1.007.522"/><path d="m192.455 276.53 22.17 11.464h52.77l-29.56-12.42z" fill="#3db47a"/><path d="m214.925 286.762h46.36l-23.687-9.95-40.277.848 17.605 9.102zm52.47 2.463h-52.77c-.196 0-.39-.047-.565-.137l-22.17-11.464c-.5-.26-.762-.823-.635-1.372.128-.55.61-.942 1.174-.953l45.378-.957c.17-.01.344.03.504.096l29.56 12.418c.54.228.846.804.73 1.38-.115.574-.62.987-1.206.987"/><path d="m219.142 181.348-30.093-.263-7.423 2.992v18.472l9.413-6.458 34.984-.023-6.882-14.722z" fill="#e73c60"/><path d="m182.612 184.742v15.937l7.87-5.4c.165-.113.36-.174.558-.174l33.436-.02-5.963-12.758-29.276-.257zm-.986 18.792c-.157 0-.314-.037-.46-.113-.322-.17-.525-.505-.525-.87v-18.473c0-.4.245-.763.618-.913l7.423-2.993c.12-.048.245-.078.378-.07l30.093.263c.38.003.724.224.885.568l6.88 14.722c.144.305.12.66-.06.946-.18.284-.494.457-.83.457l-34.68.022-9.16 6.285c-.168.114-.363.172-.56.172"/><path d="m188.62 180.708 2.42 18.11" fill="#1677bf"/><path d="m190.063 198.948-2.418-18.11 1.953-.26 2.42 18.11z"/><path d="m214.89 251.28-7.47 15.33h20.277l-2.668-15.33" fill="#3db47a"/><path d="m227.697 267.842h-20.28c-.423 0-.818-.22-1.043-.578-.225-.36-.25-.81-.062-1.192l7.47-15.332 2.215 1.078-6.608 13.56h16.843l-2.418-13.888 2.427-.423 2.668 15.333c.063.358-.036.725-.27 1.004-.234.277-.58.438-.943.438"/><path d="m225.03 251.28h-10.14l-7.47-45.997h10.138l7.47 45.996z" fill="#3db47a"/><path d="m215.937 250.047h7.644l-7.07-43.532h-7.644zm9.092 2.463h-10.14c-.604 0-1.12-.437-1.216-1.034l-7.47-45.995c-.06-.356.043-.72.276-.995.234-.275.577-.434.938-.434h10.14c.603 0 1.12.44 1.215 1.036l7.47 45.996c.06.356-.042.72-.276.995s-.577.433-.938.433"/><path d="m206.195 266.75-6.937-61.33c-.04-.347.07-.696.305-.957.233-.262.568-.41.918-.41h6.938v2.462h-5.558l6.782 59.957-2.447.277z"/><path d="m191.04 144.88h-6.67l-2.936-6.65h6.67z" fill="#1677bf"/><path d="m185.013 143.894h4.515l-2.067-4.68h-4.513l2.066 4.68zm6.027 1.97h-6.67c-.39 0-.742-.23-.9-.587l-2.936-6.65c-.135-.304-.107-.657.075-.936.18-.278.492-.446.825-.446h6.668c.39 0 .744.23.9.587l2.938 6.65c.136.306.107.658-.075.937-.18.28-.492.447-.825.447"/><path d="m196.813 157.856h-7.503l-3.304-7.48h7.503l3.303 7.48z" fill="#1677bf"/><path d="m189.952 156.87h5.35l-2.435-5.51h-5.35zm6.86 1.97h-7.502c-.39 0-.744-.23-.9-.586l-3.305-7.48c-.135-.306-.106-.658.075-.937.183-.28.493-.447.826-.447h7.502c.39 0 .744.23.902.587l3.304 7.48c.134.306.106.658-.076.937-.182.28-.492.447-.825.447"/><path d="m205.75 173.51h-10.534l-4.638-10.504h10.533l4.64 10.504z" fill="#1677bf"/><path d="m195.858 172.525h8.38l-3.77-8.533h-8.38zm9.89 1.97h-10.532c-.39 0-.744-.23-.9-.587l-4.64-10.504c-.134-.304-.106-.656.076-.936.182-.278.492-.447.825-.447h10.534c.39 0 .745.23.902.588l4.638 10.504c.135.305.107.657-.075.936-.182.28-.493.447-.826.447"/><path d="m181.155 262.85h-5.88c-3.124 0-5.656 5.57-5.656 12.443 0 6.87 2.53 12.44 5.654 12.44h5.88c3.125 0 5.656-5.57 5.656-12.44 0-6.872-2.53-12.442-5.655-12.442" fill="#3db47a"/><path d="m175.274 264.083c-2.088 0-4.424 4.794-4.424 11.21s2.336 11.21 4.424 11.21h5.88c2.09 0 4.425-4.794 4.425-11.21s-2.337-11.21-4.425-11.21zm5.88 24.883h-5.88c-3.927 0-6.887-5.88-6.887-13.673 0-7.795 2.96-13.673 6.887-13.673h5.88c3.927 0 6.888 5.878 6.888 13.673 0 7.794-2.96 13.673-6.887 13.673"/><path d="m176.065 262.85h-.79c-3.125 0-5.656 5.57-5.656 12.443 0 6.87 2.53 12.44 5.654 12.44h.79c3.125 0 5.657-5.57 5.657-12.44 0-6.872-2.53-12.442-5.655-12.442" fill="#3db47a"/><path d="m175.718 286.503h.348c2.088 0 4.423-4.794 4.423-11.21s-2.336-11.21-4.424-11.21h-.793c-2.087 0-4.423 4.794-4.423 11.21s2.336 11.21 4.423 11.21h.445zm.348 2.463h-.793c-3.925 0-6.886-5.88-6.886-13.673 0-7.795 2.96-13.673 6.886-13.673h.793c3.925 0 6.886 5.878 6.886 13.673 0 7.794-2.96 13.673-6.886 13.673"/><path d="m248.476 31.763-.083.054-6.874-4.46-17.26 11.197v20.516l17.26 11.295.112-.074 6.844 4.48 17.26-11.295v-20.516l-17.26-11.197z" fill="#1677bf"/><path d="m241.705 69.31c.163.01.324.063.466.157l6.306 4.126 16.274-10.65v-19.449l-16.5-10.704c-.137-.02-.27-.068-.393-.147l-6.337-4.11-16.274 10.556v19.447l16.46 10.772zm6.77 6.446c-.187 0-.375-.054-.538-.16l-6.49-4.25c-.164-.01-.324-.063-.467-.157l-17.26-11.296c-.277-.183-.445-.492-.445-.825v-20.516c0-.334.17-.644.45-.826l17.258-11.196c.326-.21.747-.21 1.073 0l6.563 4.26c.136.02.27.068.392.147l17.26 11.196c.28.18.448.492.448.826v20.515c0 .332-.167.642-.446.825l-17.258 11.295c-.165.107-.352.16-.54.16"/><path d="m249.398 32.036-17.26 11.196v20.515" fill="#1677bf"/><path d="m233.124 63.747h-1.97v-20.515c0-.334.17-.646.448-.827l17.26-11.196 1.072 1.652-16.81 10.905v19.98z"/><path d="m257.532 37.212-17.26 11.197v20.514" fill="#1677bf"/><path d="m241.258 68.924h-1.97v-20.514c0-.335.17-.647.448-.828l17.26-11.196 1.072 1.653-16.81 10.904v19.98z"/><path d="m265.65 42.638-17.26 11.196v20.516" fill="#1677bf"/><path d="m249.375 74.35h-1.97v-20.517c0-.334.17-.646.448-.827l17.26-11.196 1.072 1.654-16.81 10.905v19.98z"/><path d="m248.418 54.2-23.883-15.02" fill="#1677bf"/><path d="m247.893 55.034-23.883-15.02 1.05-1.668 23.882 15.02-1.05 1.668z"/><path d="m141.294 105.544h5.918l2.983 17.87h-11.885z" fill="#1677bf"/><path d="m139.447 122.452h9.612l-2.663-15.946h-4.288l-2.663 15.946zm10.75 1.925h-11.887c-.283 0-.552-.124-.735-.34-.182-.216-.26-.5-.214-.78l2.985-17.872c.077-.464.478-.804.95-.804h5.917c.47 0 .872.34.95.805l2.983 17.872c.047.28-.032.564-.215.78s-.452.34-.734.34"/><path d="m173.058 105.544h5.92l2.982 17.87h-11.885z" fill="#1677bf"/><path d="m171.21 122.452h9.614l-2.662-15.946h-4.29l-2.66 15.946zm10.75 1.925h-11.885c-.283 0-.552-.124-.735-.34s-.26-.5-.214-.78l2.983-17.872c.077-.464.478-.804.948-.804h5.92c.47 0 .87.34.948.805l2.984 17.872c.046.28-.032.564-.215.78s-.452.34-.735.34"/></g></svg>